<svg width="144" height="100" viewBox="0 0 144 100" fill="none" xmlns="http://www.w3.org/2000/svg">
<path d="M117.091 31.9437C118.145 30.1081 117.863 27.5629 114.76 28.9669L111.245 19.6885L104.874 18.2295L100.973 19.6885C100.973 19.6885 98.9902 22.532 98.9902 23.689C98.9902 24.846 99.2644 27.1765 99.2644 27.1765C98.8245 28.0097 98.5578 28.923 98.4795 29.8618C98.545 30.8907 100.125 36.4353 101.197 37.0929C102.27 37.7505 104.707 37.3723 104.707 37.3723L105.158 39.7661L100.802 40.4388C100.802 40.4388 100.438 44.4558 103.26 44.617C106.083 44.7782 117.094 41.5589 117.094 41.5589L113.755 40.0524L113.313 33.9926C113.313 33.9926 116.039 33.7794 117.091 31.9437ZM99.702 27.3422C99.6613 27.0535 99.7186 26.7594 99.8639 26.5069C99.8639 26.5069 100.066 26.2809 100.739 26.4699C101.239 26.6789 101.669 27.0255 101.981 27.4695C101.428 27.7557 100.837 27.9587 100.225 28.0721C100 28.0585 99.763 27.8476 99.702 27.3422ZM102.248 33.6988C101.645 33.5481 100.973 32.2812 100.973 32.2812L103.102 32.1562L106.04 32.3023C104.374 33.8879 102.851 33.8494 102.248 33.6988ZM105.973 28.3433C105.768 28.3033 105.639 28.1354 105.459 27.6872C105.279 27.239 105.773 26.6153 105.773 26.6153C106.002 26.629 106.232 26.629 106.461 26.6153C106.843 26.5927 108.395 27.9199 108.395 27.9199C107.611 28.172 106.796 28.3144 105.973 28.3433Z" fill="#FFE8BB"/>
<path d="M29.5688 24.6927C29.5688 24.6927 26.1287 26.0161 25.4463 27.0232C24.7639 28.0303 23.2581 28.312 24.3631 30.6779C24.3631 30.6779 23.0013 32.2138 23.921 33.8114C23.921 33.8114 31.4737 28.84 33.2002 28.5915C34.9266 28.3429 43.4766 33.2126 47.1652 35.7525L50.9089 37.2974C50.9089 37.2974 53.5264 34.6279 53.5761 31.6202C53.6087 29.8264 53.4061 28.036 52.9735 26.2948C52.9735 26.2948 52.3182 26.4244 51.9257 26.5502C51.6406 26.6153 51.342 26.5865 51.0746 26.4681L48.8608 31.7408C48.8608 31.7408 45.6219 28.0371 42.7234 26.3739C39.8249 24.7108 36.8119 20.3081 29.5688 24.6927Z" fill="#38A1FF"/>
<path d="M61.8761 40.293H61.6644C61.2919 40.2929 60.9235 40.37 60.5823 40.5193C60.2411 40.6686 59.9344 40.887 59.6817 41.1605C59.4289 41.4341 59.2356 41.7571 59.1138 42.1091C58.992 42.461 58.9443 42.8345 58.9738 43.2057L59.3007 47.3041C59.5311 46.7399 59.8805 46.2319 60.3249 45.8147C60.7692 45.3977 61.2983 45.0812 61.8761 44.887V40.293Z" fill="#38A1FF"/>
<path d="M22.84 43.9369C22.84 43.9369 26.9301 37.4786 33.6483 36.2862C40.3664 35.0938 41.4405 41.7676 41.4405 41.7676L42.6337 49.2164L45.7611 49.6871L45.5841 52.5645L47.6344 51.51L49.1289 54.0876C49.1289 54.0876 49.9981 52.16 50.6466 51.986C51.7577 51.5966 52.7813 50.993 53.6596 50.2091C54.6878 49.2909 58.0487 47.1404 59.2991 47.3046C59.5952 46.6497 60.0353 46.0699 60.5866 45.6086C61.1379 45.1473 61.7861 44.8164 62.4831 44.6404C64.2184 44.1458 65.8447 43.328 67.2767 42.23L70.365 50.0381L69.2487 50.9488C69.2487 50.9488 69.837 53.1053 68.5708 53.1603C67.3046 53.2153 68.6634 56.8459 65.6135 57.2685C65.6135 57.2685 65.0592 57.1841 64.7714 57.9344C64.4837 58.6846 61.0662 63.2545 59.9695 63.8503C58.8728 64.4461 51.6289 70.8441 46.6854 71.5514C41.7418 72.2587 30.4982 58.6386 30.4982 58.6386C30.4982 58.6386 23.5255 54.8724 22.5997 50.8727C22.0286 48.5839 22.1119 46.1807 22.84 43.9369Z" fill="#38A1FF"/>
<path d="M23.5952 90.3363L24.6844 93.2408C24.6844 93.2408 43.7369 94.8362 47.8684 95.0757C51.9999 95.3152 62.9227 91.7434 62.9227 91.7434C63.2627 90.6308 63.4299 89.4724 63.4183 88.3086C63.4183 88.3086 48.1343 89.7834 42.5806 89.9085L23.5952 90.3363Z" fill="#38A1FF"/>
<path d="M61.0942 62.9784C61.0942 62.9784 62.2414 76.3281 62.441 77.4753C62.6406 78.6224 64.2345 84.4804 64.233 85.2818C64.2315 86.0833 64.3287 87.3947 63.418 88.3084L62.9224 91.7431L64.7949 98.1698C64.7949 98.1698 67.9525 98.3634 69.117 97.9837C70.2815 97.6041 69.7618 96.7627 69.7618 96.7627L69.2677 92.5273C69.75 91.1594 70.0932 89.7463 70.2921 88.3091C70.2771 86.8614 69.6993 85.4762 68.6809 84.4465C69.2675 82.4918 69.3686 80.4234 68.9754 78.4206C68.3849 74.6672 66.791 72.6319 66.2946 68.6465C65.8009 65.4377 65.1066 62.2628 64.2157 59.1406L61.0942 62.9784Z" fill="#38A1FF"/>
<path d="M100.973 19.6883C100.973 19.6883 102.426 19.0977 103.058 18.8461C103.75 19.3239 104.502 19.7082 105.295 19.9896C105.831 20.0212 108.802 19.5768 108.802 19.5768C109.45 20.1898 109.887 20.9918 110.052 21.8682C110.397 23.4304 112.072 23.6179 112.367 23.7287C112.662 23.8394 112.503 25.5078 112.503 25.5078L112.249 27.4662C112.359 28.1039 112.58 28.7172 112.902 29.2785L113.307 29.7757C113.307 29.7757 112.434 31.0886 112.078 31.0735C111.723 31.0584 110.246 31.4147 110.079 31.8365C109.913 32.2584 110.204 32.4248 111.068 32.4067C111.932 32.2883 112.725 31.868 113.307 31.2204C113.833 30.4949 114.317 29.7405 114.758 28.9607C114.758 28.9607 116.587 28.6164 116.646 28.584C116.706 28.5517 117.351 29.3471 117.351 29.3471C117.748 28.7357 118.029 28.0566 118.18 27.3435C118.132 26.7823 118.113 25.1832 118.113 25.1832L118.457 23.2036C119.093 23.3505 119.755 23.3415 120.387 23.1773C120.638 23.0606 120.862 22.8923 121.044 22.6835C121.225 22.4747 121.361 22.2301 121.441 21.9654C121.523 21.7007 121.547 21.422 121.513 21.1474C121.478 20.8727 121.387 20.6084 121.244 20.3715C121.468 20.215 121.646 20.0024 121.761 19.7549C121.877 19.5076 121.925 19.2341 121.901 18.9621C121.964 18.4747 121.831 17.982 121.534 17.5913C121.236 17.2005 120.795 16.9431 120.308 16.8749C119.341 16.8086 119.865 16.8312 119.865 16.8312C119.878 16.4034 119.737 15.9851 119.465 15.6542C119.194 15.3233 118.811 15.1024 118.388 15.0325C116.859 14.7756 114.915 15.0596 114.841 17.5566C114.841 17.5566 114.871 16.8229 113.42 17.3306C112.907 16.8009 112.254 16.4276 111.537 16.2543C110.698 16.2173 108.659 15.4701 107.675 15.5176C106.25 15.7202 104.853 16.0901 103.515 16.6196C102.744 16.9676 100.973 19.6883 100.973 19.6883Z" fill="#38A1FF"/>
<path d="M113.437 34.5445C114.039 34.8701 114.66 35.1588 115.296 35.4093C115.585 35.4902 115.881 35.5444 116.179 35.5712L116.254 34.7652C115.811 34.7061 115.378 34.5912 114.963 34.4233C114.44 34.1807 114.105 33.9932 114.105 33.9932H113.313L113.437 34.5445Z" fill="#55DEFF"/>
<path d="M57.9517 12.819C57.9517 12.819 57.1713 8.47507 56.2945 7.19908C56.2945 7.19908 48.039 4.56274 46.473 5.84852C44.907 7.1343 43.6416 8.89162 43.6567 10.7935C43.6717 12.6955 43.3637 15.4508 43.3637 15.4508C43.3637 15.4508 41.3239 10.9721 40.1383 12.471C39.2258 13.6944 38.7776 15.2022 38.8736 16.7253C39.0708 17.1758 39.2933 17.6146 39.5402 18.0397C39.5402 18.0397 41.1936 19.4995 42.1268 19.4822L40.4644 24.6923C40.4644 24.6923 46.0143 29.0288 46.6244 29.2924C47.2346 29.556 48.8608 31.7404 48.8608 31.7404L51.0746 26.4677C51.5989 26.5232 52.129 26.4658 52.6292 26.2992C53.1295 26.1327 53.5882 25.8608 53.9746 25.5021C55.0991 24.3097 55.8501 21.6877 56.5823 20.7167C57.3555 19.3107 57.6614 17.6953 57.456 16.1039C57.1849 15.0817 57.9517 12.819 57.9517 12.819ZM48.2914 14.4912C49.1199 14.0182 51.7239 14.4912 51.7239 14.4912C51.6785 14.9804 51.569 15.4616 51.3985 15.9224C51.3305 15.9469 51.2596 15.9624 51.1876 15.9683L50.5533 15.7288C50.1918 15.5714 48.2914 14.4912 48.2914 14.4912ZM51.4648 22.5057C50.8109 22.3611 49.3489 20.2362 49.3489 20.2362L54.2051 21.1325C54.2051 21.1325 52.1156 22.6511 51.4648 22.5057ZM56.6245 16.7253C56.4497 17.0266 56.0339 16.885 56.0339 16.885L55.3763 16.6274L54.6118 16.2884L54.2698 15.1857C54.2698 15.1857 54.9417 15.203 55.405 15.2121C55.8558 15.2644 56.2993 15.3675 56.7269 15.5194C56.7435 15.9241 56.7091 16.3293 56.6245 16.7253Z" fill="#C49E91"/>
<path d="M67.7988 43.242L70.2717 49.6144L72.2836 50.5763L74.2925 50.9077H75.3862L76.4408 51.557L78.1017 51.9246L79.2752 51.212V50.1176L80.2454 49.5541L80.5414 48.544L79.1517 44.3319L78.2621 42.9693L76.1349 42.7373L67.7988 43.242Z" fill="#C49E91"/>
<path d="M91.7921 46.9437L88.4989 50.6896L86.6361 51.2018L84.8736 51.177L83.9411 51.009L82.9423 51.4014L81.4704 51.4602L80.5793 50.673L80.7466 49.7405L80.0054 49.1116L79.9082 48.2054L81.7371 44.8271L82.7042 43.8027L84.5534 43.93L90.2864 45.9894L91.7921 46.9437Z" fill="#FFE8BB"/>
<path d="M88.6943 50.4655C88.6943 50.4655 100.768 66.0222 105.092 67.5249C109.415 69.0276 114.822 64.9812 114.822 64.9812L109.592 56.05L107.244 56.7039L91.7909 46.9434L88.6943 50.4655Z" fill="#FFE8BB"/>
<path d="M89.1308 62.416C89.1308 62.416 88.0559 74.3654 87.6785 75.1578C87.3011 75.9502 85.5574 79.3346 85.2629 80.838C84.9684 82.3415 83.8694 87.6842 85.4421 98.7192C85.4421 98.7192 88.7767 98.952 89.4343 98.8827C89.4343 98.8827 88.2615 91.583 89.2731 87.5366C90.2847 83.4902 91.4786 78.2808 94.0472 75.7348L94.4517 72.1803L93.5478 62.9794L89.1308 62.416Z" fill="#FFE8BB"/>
<path d="M107.432 57.2685L109.592 56.0498L108.566 54.2985C108.537 54.2488 108.527 54.1901 108.537 54.1336C108.548 54.0763 108.579 54.0258 108.624 53.9897L112.145 51.1959L112.677 48.4089C112.681 48.3767 112.692 48.3457 112.709 48.3178C112.725 48.2899 112.748 48.2657 112.774 48.2468C112.801 48.2278 112.831 48.2144 112.863 48.2074C112.894 48.2004 112.927 48.1998 112.96 48.2059C112.991 48.212 113.022 48.2245 113.049 48.2428C113.076 48.2609 113.099 48.2844 113.116 48.3118C113.134 48.3392 113.146 48.3698 113.152 48.4019C113.157 48.434 113.156 48.4669 113.148 48.4986L112.722 50.7402L114.935 48.9829C114.96 48.9631 114.989 48.9484 115.019 48.9396C115.049 48.9308 115.082 48.928 115.112 48.9315C115.144 48.935 115.175 48.9446 115.202 48.9599C115.23 48.9752 115.255 48.9959 115.274 49.0206C115.294 49.0453 115.309 49.0737 115.318 49.1041C115.326 49.1345 115.329 49.1663 115.326 49.1978C115.323 49.2293 115.313 49.2598 115.297 49.2875C115.282 49.3152 115.262 49.3397 115.237 49.3595L109.089 54.2368L115.525 65.2265L124.128 58.6914C125.382 56.8128 127.329 52.606 127.32 49.172C127.31 45.8652 119.83 41.5725 117.884 40.5097C117.744 40.4323 117.588 40.3865 117.427 40.3753C117.267 40.3642 117.106 40.3879 116.956 40.4449C114.913 41.217 106.822 44.172 104.533 43.4579C102.665 42.8719 101.188 41.0234 100.491 40.0043C100.355 39.8064 100.159 39.6577 99.9317 39.5802C99.7042 39.5028 99.4586 39.5006 99.2297 39.5742C97.3661 40.167 92.9552 41.5853 92.5258 41.8663C91.9835 42.2233 90.4439 45.4615 90.4439 45.4615L90.2849 45.9888L90.0898 46.2351C90.0898 46.2351 97.3963 51.2027 99.723 52.5435C102.05 53.8842 107.432 57.2685 107.432 57.2685Z" fill="#38A1FF"/>
<path d="M115.597 65.7707C115.556 65.8031 115.504 65.8197 115.452 65.8197C115.436 65.8197 115.421 65.8182 115.405 65.8152C115.372 65.8084 115.34 65.7948 115.312 65.7752C115.285 65.7549 115.262 65.7301 115.244 65.7007L114.822 64.9798C114.819 64.973 114.817 64.9663 114.815 64.9595C113.345 65.6457 108.124 67.9393 105.349 67.2787C102.325 66.5586 90.5103 52.4346 88.8811 50.5078L86.6906 57.9882C86.6598 58.0922 86.6673 58.2044 86.711 58.3039C86.7539 58.4033 86.8315 58.4846 86.9287 58.5328L88.2054 59.1693L89.2682 55.3527C89.2878 55.2939 89.3285 55.2449 89.3835 55.2156C89.4377 55.1862 89.5017 55.1794 89.5612 55.196C89.6207 55.2126 89.672 55.2517 89.7036 55.3044C89.7345 55.3579 89.745 55.4212 89.7307 55.4815L88.5519 59.7147C88.5519 59.9535 88.5587 60.3451 88.5866 60.9952C88.6664 62.8097 91.7908 65.1041 91.7908 65.1041C91.7908 65.1041 92.4605 65.2548 92.4575 68.4056C92.4544 71.5564 94.4483 72.1816 94.4483 72.1816C94.4483 72.1816 100.771 72.5198 104.24 72.641C107.71 72.7623 119.616 72.1055 119.616 72.1055C120.672 71.2558 121.543 70.2005 122.177 69.0029C123.066 67.3028 123.592 61.2031 123.717 59.6017L115.597 65.7707Z" fill="#38A1FF"/>
<path d="M48.292 14.2982C49.4382 14.1499 50.6019 14.2148 51.7245 14.4896" stroke="#313553" stroke-width="0.240284" stroke-linecap="round" stroke-linejoin="round"/>
<path d="M50.68 14.4004C50.68 14.4004 50.3139 15.293 50.5535 15.7306L51.1877 15.9701C51.3687 15.7817 51.5062 15.5559 51.5904 15.3086C51.6748 15.0614 51.704 14.7987 51.6758 14.539L50.68 14.4004Z" fill="#313553"/>
<path d="M54.2695 15.1833C55.1107 15.1451 55.9527 15.2356 56.7665 15.4515" stroke="#313553" stroke-width="0.240284" stroke-linecap="round" stroke-linejoin="round"/>
<path d="M55.7065 15.4033C55.7065 15.4033 55.3412 16.2952 55.58 16.7328L56.2142 16.9723C56.3952 16.7839 56.5328 16.5582 56.6171 16.3109C56.7014 16.0636 56.7305 15.8009 56.7023 15.5412L55.7065 15.4033Z" fill="#313553"/>
<path d="M48.1315 12.0371C48.748 11.7375 49.4222 11.5753 50.1075 11.5615C50.7928 11.5477 51.473 11.6828 52.101 11.9573C52.2615 12.0424 52.5229 12.1606 52.3737 12.6299C52.2246 13.0992 52.1929 13.1316 51.5497 13.0479C50.8884 12.8484 50.1972 12.7671 49.5076 12.8077C48.2912 13.0841 47.3835 12.3821 48.1315 12.0371Z" fill="#313553"/>
<path d="M52.9736 12.5088L52.6953 13.1316" stroke="#313553" stroke-width="0.240284" stroke-linecap="round" stroke-linejoin="round"/>
<path d="M57.9518 12.8199C57.6341 12.6209 57.2735 12.5007 56.9 12.4693C56.5264 12.4378 56.1508 12.496 55.8043 12.6391C55.631 12.6926 55.3523 12.7619 55.4134 13.25C55.4744 13.7381 55.4985 13.7773 56.1463 13.8127C56.794 13.8481 56.5703 13.4963 57.237 13.711C57.3716 13.739 57.5042 13.776 57.6339 13.8217C57.8878 13.9354 58.2169 12.9909 57.9518 12.8199Z" fill="#313553"/>
<path d="M54.8457 13.0195L55.0044 13.6829" stroke="#313553" stroke-width="0.240284" stroke-linecap="round" stroke-linejoin="round"/>
<path d="M54.2581 13.6631C54.1065 14.0855 54.0505 14.5362 54.0942 14.9828C54.1378 15.4295 54.28 15.8609 54.5104 16.2459C54.5104 16.2459 55.4821 18.0703 55.2463 18.6834C55.0105 19.2966 53.1274 19.6001 53.1274 19.6001" stroke="#313553" stroke-width="0.240284" stroke-linecap="round" stroke-linejoin="round"/>
<path d="M53.1658 18.7854C52.837 18.7763 52.5086 18.817 52.1919 18.906" stroke="#313553" stroke-width="0.240284" stroke-linecap="round" stroke-linejoin="round"/>
<path d="M49.3287 20.2381C49.3287 20.2381 50.5475 22.4044 51.7067 22.5694C52.866 22.7343 54.2248 21.1095 54.2248 21.1095C54.2248 21.1095 49.6519 20.3563 49.2986 20.1205C49.2012 20.0661 49.123 19.983 49.0747 19.8823C49.0265 19.7817 49.0105 19.6686 49.0289 19.5586" stroke="#313553" stroke-width="0.240284" stroke-linecap="round" stroke-linejoin="round"/>
<path d="M39.6198 13.1357C39.6198 13.1357 38.4561 15.7804 39.0436 17.1724C39.3104 17.9119 39.8189 18.5397 40.4868 18.9543C41.1547 19.3689 41.9429 19.546 42.724 19.457" stroke="#313553" stroke-width="0.240284" stroke-linecap="round" stroke-linejoin="round"/>
<path d="M41.9924 19.4932C41.545 21.2578 40.9903 22.9935 40.3315 24.6905" stroke="#313553" stroke-width="0.240284" stroke-linecap="round" stroke-linejoin="round"/>
<path d="M41.5648 14.2206C40.1547 14.0218 39.1416 16.6521 41.7908 18.0403" stroke="#313553" stroke-width="0.240284" stroke-linecap="round" stroke-linejoin="round"/>
<path d="M56.045 6.70508C56.045 6.70508 58.0494 10.3553 57.9522 13.0594C57.7241 14.0034 57.5465 14.9589 57.4204 15.9217C57.3579 16.8 57.9567 18.0368 56.4073 21.0656C54.235 25.3139 54.1205 25.9677 52.2924 26.4889C50.4642 27.0102 45.7324 24.068 44.8413 22.7017" stroke="#313553" stroke-width="0.240284" stroke-linecap="round" stroke-linejoin="round"/>
<path d="M39.6687 13.6629C39.6687 13.6629 40.2976 12.2528 41.1616 12.5406C41.9495 12.8019 42.7645 14.499 43.102 15.6145C43.1283 15.7033 43.1826 15.7811 43.2566 15.8364C43.3307 15.8918 43.4207 15.9218 43.5132 15.9219H44.2665C44.3329 15.9221 44.3985 15.9069 44.458 15.8774C44.5175 15.848 44.5694 15.805 44.6094 15.752C44.6495 15.699 44.6766 15.6374 44.6887 15.5721C44.7009 15.5068 44.6976 15.4396 44.6792 15.3758C44.4284 14.5028 44.0013 12.8373 44.2401 12.3146C44.567 11.5945 45.312 12.5767 45.6645 9.80102C46.017 7.02533 46.829 6.18547 48.6571 6.86338C50.4852 7.5413 53.633 8.69225 54.848 8.58303C56.063 8.47381 56.9955 5.76139 57.3631 4.39803C57.7307 3.03466 56.9654 3.23728 56.2822 3.97094C56.2822 3.97094 56.4675 1.05138 55.2856 0.610734C54.1038 0.170088 53.4876 2.27314 53.4876 2.27314C53.4876 2.27314 53.9396 0.213774 52.6983 0.409617C51.4569 0.605459 50.953 2.05545 50.2623 2.09236C49.5715 2.12927 45.3195 1.06343 42.4956 4.08016C39.6717 7.09689 38.1095 10.1498 39.6687 13.6629Z" fill="#585858"/>
<path d="M47.4707 25.1035L49.7598 29.2689L51.0591 26.4609L47.4707 25.1035Z" fill="#313553"/>
<path d="M51.0606 26.4609L48.8604 31.7404C48.8604 31.7404 50.3834 33.9896 50.5536 35.4983" stroke="#313553" stroke-width="0.240284" stroke-linecap="round" stroke-linejoin="round"/>
<path d="M43.6611 16.8848H44.6901" stroke="#313553" stroke-width="0.240284" stroke-linecap="round" stroke-linejoin="round"/>
<path d="M43.9253 17.8057H44.5052" stroke="#313553" stroke-width="0.240284" stroke-linecap="round" stroke-linejoin="round"/>
<path d="M41.3715 21.0895C41.3715 21.0895 35.2228 19.9107 32.2173 21.5468C29.9711 22.8774 27.8627 24.4282 25.9233 26.1762C25.9233 26.1762 27.2633 27.0047 31.0897 24.2599C34.9162 21.5151 40.5158 25.1036 40.5158 25.1036L41.1652 22.4002L41.3715 21.0895Z" fill="#313553"/>
<path d="M26.5811 25.9064C26.5811 25.9064 23.9161 28.0155 23.9184 29.1958C23.9207 30.3761 24.533 30.4996 24.35 31.0073C24.167 31.515 23.0469 32.2818 23.9184 33.8101C23.9184 33.8101 31.2437 28.1051 34.2898 28.5375C37.3359 28.9698 46.7604 36.6355 50.9108 37.2961C50.9108 37.2961 50.495 32.3112 46.5744 29.2681C42.6537 26.225 40.333 24.6914 40.333 24.6914" stroke="#313553" stroke-width="0.240284" stroke-linecap="round" stroke-linejoin="round"/>
<path d="M51.0742 23.5205C51.3731 23.7231 51.7319 23.8182 52.0919 23.7902" stroke="#313553" stroke-width="0.240284" stroke-linecap="round" stroke-linejoin="round"/>
<path d="M44.8413 26.0996C44.8413 26.0996 47.2675 29.6549 48.0501 30.677" stroke="#313553" stroke-width="0.240284" stroke-linecap="round" stroke-linejoin="round"/>
<path d="M23.9215 33.8115C23.9215 33.8115 22.7917 40.4453 22.8414 43.3882C22.8911 46.3311 19.1076 53.1804 30.4966 58.6383C30.4966 58.6383 40.5757 69.3976 42.9891 70.5787C45.4025 71.7598 45.7068 72.4663 50.4913 70.3301C55.2759 68.194 62.2683 62.9416 65.0839 57.3428C65.0839 57.3428 66.9489 56.8155 67.3722 56.2724C67.7955 55.7293 67.6449 53.8025 68.0012 53.3581C68.3575 52.9137 69.3698 54.1212 69.2485 50.9477L70.3573 49.8322L67.3255 42.0211C66.7525 42.6162 66.0817 43.1087 65.3422 43.4771C64.0248 44.1663 59.2327 45.422 59.302 47.3043C59.302 47.3043 55.7783 47.9152 53.6527 50.2209C51.5271 52.5265 50.8356 51.3696 50.0424 52.4949C49.0879 54.1385 48.2208 55.8303 47.4445 57.565" stroke="#313553" stroke-width="0.240284" stroke-linecap="round" stroke-linejoin="round"/>
<path d="M39.1519 37.7275C39.9881 38.5602 40.6687 39.5356 41.1615 40.6079C41.7739 42.7125 42.6333 49.216 42.6333 49.216L45.7608 49.6867L40.8647 55.5259" stroke="#313553" stroke-width="0.240284" stroke-linecap="round" stroke-linejoin="round"/>
<path d="M45.7603 49.6865C45.7603 49.6865 45.3633 58.2637 44.3638 61.6487C44.3638 61.6487 46.3719 56.5041 47.8678 54.3062" stroke="#313553" stroke-width="0.240284" stroke-linecap="round" stroke-linejoin="round"/>
<path d="M45.5835 52.5643C46.2179 52.1244 46.9072 51.7704 47.6338 51.5098C48.0014 51.5459 49.1282 54.0874 49.1282 54.0874" stroke="#313553" stroke-width="0.240284" stroke-linecap="round" stroke-linejoin="round"/>
<path d="M50.9092 37.2971C52.6437 35.4115 53.6227 32.953 53.6593 30.3913C53.4987 29.0571 53.2119 27.741 52.8028 26.4609" stroke="#313553" stroke-width="0.240284" stroke-linecap="round" stroke-linejoin="round"/>
<path d="M26.7773 29.0101C26.7773 29.0101 33.43 24.9712 36.2222 25.338C39.0145 25.7048 31.0249 29.2662 31.0249 29.2662" stroke="#313553" stroke-width="0.240284" stroke-linecap="round" stroke-linejoin="round"/>
<path d="M42.2036 46.2122C42.2036 46.2122 42.9764 42.3443 43.57 42.4935C44.1635 42.6426 43.4088 47.4219 43.4088 47.4219" stroke="#313553" stroke-width="0.240284" stroke-linecap="round" stroke-linejoin="round"/>
<path d="M46.6851 71.5516C46.6851 71.5516 52.7464 67.3124 53.6631 65.3125" stroke="#313553" stroke-width="0.240284" stroke-linecap="round" stroke-linejoin="round"/>
<path d="M69.2479 50.9477C69.2479 50.9477 66.6311 47.1499 66.5317 48.0447C66.4323 48.9396 67.2653 50.9477 67.2653 50.9477" stroke="#313553" stroke-width="0.240284" stroke-linecap="round" stroke-linejoin="round"/>
<path d="M53.165 27.6836C53.7935 28.6804 54.7699 29.4081 55.9046 29.7256C57.6544 30.1022 62.7003 30.0729 61.822 39.6805L61.9237 44.8884" stroke="#313553" stroke-width="0.240284" stroke-linecap="round" stroke-linejoin="round"/>
<path d="M23.5925 53.1318C23.5925 53.1318 23.6746 66.5937 22.6065 72.9097C21.5384 79.2256 18.7703 88.7277 23.6987 89.7069C28.6272 90.6861 36.5927 90.2937 38.2739 90.0602" stroke="#313553" stroke-width="0.240284" stroke-linecap="round" stroke-linejoin="round"/>
<path d="M61.1935 62.9785C61.1935 62.9785 61.4631 75.578 63.4856 82.1862C65.508 88.7943 63.3485 88.7936 57.9561 88.9284" stroke="#313553" stroke-width="0.240284" stroke-linecap="round" stroke-linejoin="round"/>
<path d="M64.2324 59.1416C64.2324 59.1416 67.4292 74.0415 68.2035 75.7129C68.9778 77.3843 69.8267 81.946 68.6984 84.3857C68.6984 84.3857 71.8681 86.9128 69.2671 92.5275C69.5324 93.9707 69.6979 95.4305 69.7627 96.8963" stroke="#313553" stroke-width="0.240284" stroke-linecap="round" stroke-linejoin="round"/>
<path d="M47.2568 41.3588C47.1262 41.3453 47.0004 41.3024 46.8887 41.2332C46.7771 41.164 46.6826 41.0705 46.6124 40.9595C46.5422 40.8486 46.4982 40.7232 46.4835 40.5926C46.4688 40.4622 46.4839 40.3301 46.5276 40.2063C46.8354 39.388 47.0494 38.5374 47.1656 37.6709C47.2913 36.6203 47.2382 35.5559 47.0082 34.5231C46.9915 34.4628 46.9878 34.3996 46.9974 34.3377C47.007 34.2759 47.0296 34.2168 47.0636 34.1643C47.0978 34.1118 47.1426 34.0672 47.1953 34.0333C47.2479 33.9995 47.3071 33.9772 47.369 33.968C47.4494 33.9545 47.5318 33.9637 47.6072 33.9944C47.6826 34.0251 47.748 34.0762 47.7961 34.142C48.5005 35.2455 48.8411 36.5422 48.77 37.8494C48.7897 38.8943 48.5691 39.9298 48.1252 40.8759C48.0471 41.0355 47.922 41.1672 47.7668 41.2535C47.6115 41.3399 47.4335 41.3765 47.2568 41.3588Z" fill="#313553"/>
<path d="M47.1655 40.8789L46.5576 42.6558" stroke="#313553" stroke-width="0.240284" stroke-linecap="round" stroke-linejoin="round"/>
<path d="M53.1288 40.3957C52.9982 40.4086 52.8663 40.3916 52.7432 40.3462C52.62 40.3007 52.5088 40.2279 52.4179 40.1331C52.3271 40.0384 52.2588 39.9243 52.2185 39.7993C52.1782 39.6744 52.1667 39.5419 52.185 39.412C52.3238 38.5488 52.3642 37.6727 52.3055 36.8005C52.2193 35.7458 51.9552 34.7133 51.5244 33.7469C51.4962 33.691 51.48 33.6299 51.4771 33.5674C51.4741 33.5049 51.4844 33.4425 51.5073 33.3842C51.5302 33.3261 51.5653 33.2734 51.61 33.2297C51.6547 33.1859 51.7083 33.1522 51.767 33.1307C51.843 33.1022 51.9253 33.0951 52.005 33.1104C52.0847 33.1255 52.1587 33.1622 52.2189 33.2166C53.1291 34.1576 53.7208 35.3605 53.9107 36.6559C54.138 37.6759 54.1279 38.7346 53.8813 39.7502C53.8367 39.9218 53.7406 40.0757 53.6059 40.1911C53.4713 40.3064 53.3046 40.3779 53.1281 40.3957H53.1288Z" fill="#313553"/>
<path d="M52.9447 39.9443L52.7021 41.8063" stroke="#313553" stroke-width="0.240284" stroke-linecap="round" stroke-linejoin="round"/>
<path d="M23.6992 89.7071C23.696 90.9537 24.0367 92.177 24.6837 93.242C24.6837 93.242 56.6347 94.5391 62.922 91.7446C63.2121 90.5341 63.3782 89.2973 63.4176 88.0537" stroke="#313553" stroke-width="0.240284" stroke-linecap="round" stroke-linejoin="round"/>
<path d="M24.6837 93.2426L24.2642 98.7902C24.2642 98.7902 44.732 100.03 51.475 99.1502C55.9895 98.6041 60.5334 98.3367 65.0808 98.3503L62.922 91.7451C53.9855 93.5891 44.3049 93.7706 32.8835 93.5431C29.6845 93.4798 26.038 93.4053 24.6837 93.2426Z" fill="#313553"/>
<path d="M34.7069 90.2905L24.1487 92.1518L23.6982 89.9102L28.4 90.2732L34.7069 90.2905Z" fill="#313553"/>
<path d="M36.7666 70.3906C36.7666 70.3906 40.0809 73.967 40.3709 78.0202C40.6609 82.0734 38.6565 84.0356 38.6565 84.0356" stroke="#313553" stroke-width="0.240284" stroke-linecap="round" stroke-linejoin="round"/>
<path d="M58.3774 70.7705C58.3774 70.7705 57.4042 71.5509 57.228 76.0982C57.0148 81.6112 59.9201 83.028 59.9201 83.028" stroke="#313553" stroke-width="0.240284" stroke-linecap="round" stroke-linejoin="round"/>
<path d="M23.5952 61.1556C24.4058 61.6316 25.2567 62.0346 26.1382 62.3607C27.323 62.76 35.333 64.0043 37.0428 65.2472L30.8414 59.0073C30.8414 59.0073 24.6392 54.6483 23.5952 53.6104V61.1556Z" fill="#38A1FF"/>
<path d="M45.3662 30.6768C45.3662 30.6768 50.092 35.0252 50.9101 37.2962" stroke="#313553" stroke-width="0.240284" stroke-linecap="round" stroke-linejoin="round"/>
<path d="M67.7988 43.2412C67.7988 43.2412 74.6691 42.97 76.6961 42.7659C78.7231 42.5618 78.7705 43.4159 79.5223 45.284C80.274 47.152 80.5994 48.3045 80.5331 48.9636C80.4668 49.6226 79.6413 50.0821 79.0613 50.1605C78.7743 50.3907 78.4353 50.5487 78.0745 50.6208C77.713 50.6931 77.3401 50.6776 76.9861 50.5755C76.9861 50.5755 74.1238 50.1718 73.6221 49.6859C73.1205 49.2001 73.36 48.1945 73.8406 48.1041C74.3211 48.0137 75.2778 48.4664 75.3041 49.0652" stroke="#313553" stroke-width="0.240284" stroke-linecap="round" stroke-linejoin="round"/>
<path d="M76.0381 44.3311C76.3883 44.3363 76.7281 44.4504 77.0105 44.6574C77.293 44.8645 77.5039 45.1543 77.6139 45.4865C77.8978 46.6164 77.8459 49.9804 76.9857 50.5754" stroke="#313553" stroke-width="0.240284" stroke-linecap="round" stroke-linejoin="round"/>
<path d="M78.8798 50.2943C78.8798 50.2943 79.6647 50.1068 79.2903 48.3359C78.8738 46.3601 78.9137 44.6187 77.7695 43.9385" stroke="#313553" stroke-width="0.240284" stroke-linecap="round" stroke-linejoin="round"/>
<path d="M76.1359 48.2362C76.1359 48.2362 74.7951 48.6746 74.2935 47.9131" stroke="#313553" stroke-width="0.240284" stroke-linecap="round" stroke-linejoin="round"/>
<path d="M74.8929 46.9883C74.45 47.5137 73.9009 47.9388 73.2817 48.2356C72.5443 48.4616 70.7855 48.79 70.3584 48.2356" stroke="#313553" stroke-width="0.240284" stroke-linecap="round" stroke-linejoin="round"/>
<path d="M70.2676 49.4688C70.2676 49.4688 72.3849 50.8351 73.4236 50.9481C74.4623 51.0611 74.7335 50.4916 75.9198 51.3164C77.1062 52.1412 78.5004 52.1111 79.1979 51.3164C79.3892 51.098 79.6077 50.4419 79.0571 50.161" stroke="#313553" stroke-width="0.240284" stroke-linecap="round" stroke-linejoin="round"/>
<path d="M80.2944 49.4788C80.5084 49.6729 80.7645 49.8143 81.0432 49.8916C81.2639 50.114 81.5343 50.2802 81.8326 50.3762C82.1308 50.4724 82.4479 50.4955 82.7568 50.4437C82.7568 50.4437 85.2161 50.3812 85.6884 50.0189C86.1607 49.6566 86.0545 48.7836 85.6568 48.6631C85.259 48.5426 84.4064 48.8303 84.3258 49.3342" stroke="#313553" stroke-width="0.240284" stroke-linecap="round" stroke-linejoin="round"/>
<path d="M90.4204 46.0859C90.4204 46.0859 85.4551 44.2382 83.761 43.8691C82.067 43.5 81.9442 44.2163 81.1247 45.7235C80.7789 46.36 80.5108 46.8956 80.3149 47.3445" stroke="#313553" stroke-width="0.240284" stroke-linecap="round" stroke-linejoin="round"/>
<path d="M84.1655 45.257C83.8687 45.2276 83.5712 45.2911 83.312 45.4388C83.0537 45.5864 82.8473 45.8109 82.7215 46.0811C82.3712 47.0068 82.088 49.8586 82.7569 50.4446" stroke="#313553" stroke-width="0.240284" stroke-linecap="round" stroke-linejoin="round"/>
<path d="M81.184 50.0231C81.184 50.0231 80.5393 49.7888 81.0274 48.3252C81.572 46.6952 81.7053 45.2189 82.741 44.7549" stroke="#313553" stroke-width="0.240284" stroke-linecap="round" stroke-linejoin="round"/>
<path d="M83.7036 48.5502C83.7036 48.5502 84.7943 49.0504 85.293 48.4561" stroke="#313553" stroke-width="0.240284" stroke-linecap="round" stroke-linejoin="round"/>
<path d="M84.8755 47.6152C85.1986 48.1033 85.622 48.5167 86.1176 48.828C86.7202 49.0946 88.1747 49.539 88.5897 49.1119" stroke="#313553" stroke-width="0.240284" stroke-linecap="round" stroke-linejoin="round"/>
<path d="M81.0399 49.8936C80.5465 50.0773 80.6678 50.6528 80.8086 50.8569C81.3208 51.5966 82.4966 51.7608 83.5798 51.1756C84.663 50.5903 85.5578 51.3413 86.4474 51.3466C87.2458 51.2332 88.0134 50.9565 88.7003 50.5338" stroke="#313553" stroke-width="0.240284" stroke-linecap="round" stroke-linejoin="round"/>
<path d="M39.1515 11.5527H6.52637V62.9802H23.3899" stroke="#313553" stroke-width="0.240284" stroke-linecap="round" stroke-linejoin="round"/>
<path d="M76.1344 51.5566V62.9788H65.2749" stroke="#313553" stroke-width="0.240284" stroke-linecap="round" stroke-linejoin="round"/>
<path d="M57.9199 11.5527H76.1355V42.7384" stroke="#313553" stroke-width="0.240284" stroke-linecap="round" stroke-linejoin="round"/>
<path d="M7.64014 11.5547C8.3396 14.9561 8.57928 18.436 8.3527 21.9012H32.2176" stroke="#313553" stroke-width="0.240284" stroke-linecap="round" stroke-linejoin="round"/>
<path d="M74.0042 11.5547C74.0042 11.5547 74.2671 16.8936 74.7341 21.9034H56.1509" stroke="#313553" stroke-width="0.240284" stroke-linecap="round" stroke-linejoin="round"/>
<path d="M12.1754 21.9004C12.1754 21.9004 11.4757 32.4322 11.6647 35.3668C11.8538 38.3015 12.4895 42.9241 12.3916 46.1691C12.3294 48.096 12.4533 50.0244 12.7615 51.9276" stroke="#313553" stroke-width="0.240284" stroke-linecap="round" stroke-linejoin="round"/>
<path d="M12.6829 54.228C13.2636 54.228 13.7344 53.7573 13.7344 53.1765C13.7344 52.5958 13.2636 52.125 12.6829 52.125C12.1021 52.125 11.6313 52.5958 11.6313 53.1765C11.6313 53.7573 12.1021 54.228 12.6829 54.228Z" stroke="#313553" stroke-width="0.240284" stroke-linecap="round" stroke-linejoin="round"/>
<path d="M9.64111 13.3516C9.64111 13.3516 28.1904 13.8035 29.5696 13.8299C30.9488 13.8562 37.7875 13.8299 37.7875 13.8299" stroke="#313553" stroke-width="0.240284" stroke-linecap="round" stroke-linejoin="round"/>
<path d="M8.34668 16.6272C10.815 16.3239 13.2982 16.1559 15.7849 16.124C17.9648 16.237 29.9172 16.4012 32.2169 16.3688" stroke="#313553" stroke-width="0.240284" stroke-linecap="round" stroke-linejoin="round"/>
<path d="M11.6313 19.4932C11.6313 19.4932 33.0821 19.5587 35.3253 19.5587" stroke="#313553" stroke-width="0.240284" stroke-linecap="round" stroke-linejoin="round"/>
<path d="M58.8643 15.1396C58.8643 15.1396 71.1489 15.3167 72.8369 15.1803" stroke="#313553" stroke-width="0.240284" stroke-linecap="round" stroke-linejoin="round"/>
<path d="M74.5256 19.4932C74.5256 19.4932 61.7627 19.7244 60.5273 19.4932" stroke="#313553" stroke-width="0.240284" stroke-linecap="round" stroke-linejoin="round"/>
<path d="M73.6006 6.30181C73.6006 6.30181 92.3495 6.53381 97.8933 6.30181C103.437 6.06981 106.239 6.06152 106.239 6.06152" stroke="#313553" stroke-width="0.240284" stroke-linecap="round" stroke-linejoin="round"/>
<path d="M81.4258 2.89062C81.4258 2.89062 103.445 3.04127 106.24 3.05709C109.035 3.07291 112.162 3.13241 112.162 3.13241" stroke="#313553" stroke-width="0.240284" stroke-linecap="round" stroke-linejoin="round"/>
<path d="M8.34668 67.5234H20.2818" stroke="#313553" stroke-width="0.240284" stroke-linecap="round" stroke-linejoin="round"/>
<path d="M67.6641 67.5234H86.8038" stroke="#313553" stroke-width="0.240284" stroke-linecap="round" stroke-linejoin="round"/>
<path d="M0.196289 85.9688H8.34709" stroke="#313553" stroke-width="0.240284" stroke-linecap="round" stroke-linejoin="round"/>
<path d="M12.2031 85.9688H17.9519" stroke="#313553" stroke-width="0.240284" stroke-linecap="round" stroke-linejoin="round"/>
<path d="M4.27197 81.1797H14.3149" stroke="#313553" stroke-width="0.240284" stroke-linecap="round" stroke-linejoin="round"/>
<path d="M128.677 85.9688H133.706" stroke="#313553" stroke-width="0.240284" stroke-linecap="round" stroke-linejoin="round"/>
<path d="M137.564 85.9688H143.313" stroke="#313553" stroke-width="0.240284" stroke-linecap="round" stroke-linejoin="round"/>
<path d="M126.99 81.1797H139.674" stroke="#313553" stroke-width="0.240284" stroke-linecap="round" stroke-linejoin="round"/>
<path d="M69.2144 80.8377C69.2144 80.8377 72.5151 76.9209 77.2846 76.9209C81.5472 76.9209 85.3548 79.6951 85.3548 79.6951" stroke="#313553" stroke-width="0.240284" stroke-linecap="round" stroke-linejoin="round"/>
<path d="M68.9756 77.476C71.3127 75.5153 74.2376 74.3914 77.286 74.2822C83.1477 74.2822 86.3166 77.2952 86.3166 77.2952" stroke="#313553" stroke-width="0.240284" stroke-linecap="round" stroke-linejoin="round"/>
<path d="M141.535 71.1749C140.864 71.0996 136.84 71.2502 134.693 71.1749C132.546 71.0996 127.311 71.1749 127.311 71.1749L125.567 62.588C125.567 62.588 129.06 62.3379 131.058 62.2867C134.114 62.2377 137.17 62.3635 140.211 62.6633L138.156 71.0242" stroke="#313553" stroke-width="0.240284" stroke-linecap="round" stroke-linejoin="round"/>
<path d="M133.073 62.172C133.073 62.172 135.78 50.9487 135.398 43.3899C135.212 39.7224 134.837 34.7517 136.125 34.751C138.274 34.751 138.355 40.288 138.269 44.812C138.131 52.0499 134.712 62.2782 134.712 62.2782" stroke="#313553" stroke-width="0.240284" stroke-linecap="round" stroke-linejoin="round"/>
<path d="M135.673 62.2734C135.673 62.2734 139.085 54.9851 139.653 50.6901C140.437 44.7591 143.311 45.1493 141.711 51.9194C140.106 58.7099 137.322 62.2734 137.322 62.2734" stroke="#313553" stroke-width="0.240284" stroke-linecap="round" stroke-linejoin="round"/>
<path d="M130.821 62.2846C130.821 62.2846 129.766 53.8129 129.354 48.7933C128.942 43.7737 129.567 41.4657 129.398 36.9433C129.242 32.8057 131.668 32.6852 131.959 39.1314C132.25 45.5777 132.37 46.12 132.496 49.2904C132.622 52.4608 132.245 62.2846 132.245 62.2846" stroke="#313553" stroke-width="0.240284" stroke-linecap="round" stroke-linejoin="round"/>
<path d="M127.621 62.4239C126.91 59.579 125.795 55.0286 125.125 51.8605C124.083 46.9335 124.41 44.5646 123.67 40.0994C122.992 36.0146 125.383 35.589 126.483 41.9471C127.583 48.3052 127.775 48.8272 128.301 51.9562C128.654 54.0652 129.165 59.2016 129.46 62.326" stroke="#313553" stroke-width="0.240284" stroke-linecap="round" stroke-linejoin="round"/>
<path d="M94.4475 72.1797C94.1605 73.3419 94.0242 74.5366 94.043 75.7342C94.043 75.7342 89.3729 82.2874 89.0257 90.0872C88.6785 97.887 89.4302 98.8821 89.4302 98.8821" stroke="#313553" stroke-width="0.240284" stroke-linecap="round" stroke-linejoin="round"/>
<path d="M95.7402 76.1562C95.7402 76.1562 93.3472 80.217 92.1729 81.6715" stroke="#313553" stroke-width="0.240284" stroke-linecap="round" stroke-linejoin="round"/>
<path d="M102.978 72.5918C102.993 73.6976 102.876 74.8011 102.631 75.8797C102.22 78.5846 102.064 81.3226 102.165 84.0569" stroke="#313553" stroke-width="0.240284" stroke-linecap="round" stroke-linejoin="round"/>
<path d="M99.2793 91.7891C99.2793 91.7891 105.426 95.2736 106.255 95.7534L107.217 98.8823" stroke="#313553" stroke-width="0.240284" stroke-linecap="round" stroke-linejoin="round"/>
<path d="M101.935 94.8818C103.355 95.2645 104.798 95.556 106.256 95.7533" stroke="#313553" stroke-width="0.240284" stroke-linecap="round" stroke-linejoin="round"/>
<path d="M119.62 72.1045C119.699 73.0069 119.699 73.9138 119.62 74.8162C119.62 74.8162 124.544 79.4689 126.989 85.1454C129.434 90.8218 131.94 98.1674 131.94 98.1674" stroke="#313553" stroke-width="0.240284" stroke-linecap="round" stroke-linejoin="round"/>
<path d="M113.571 76.9307C113.571 76.9307 118.555 81.5759 121.15 83.2511" stroke="#313553" stroke-width="0.240284" stroke-linecap="round" stroke-linejoin="round"/>
<path d="M105.593 77.4757C105.958 77.4757 106.255 76.6802 106.255 75.6988C106.255 74.7173 105.958 73.9219 105.593 73.9219C105.227 73.9219 104.931 74.7173 104.931 75.6988C104.931 76.6802 105.227 77.4757 105.593 77.4757Z" stroke="#313553" stroke-width="0.240284" stroke-linecap="round" stroke-linejoin="round"/>
<path d="M89.1305 61.1494C89.1305 61.1494 88.0308 71.9629 87.8658 74.2837C87.7009 76.6044 85.356 76.8176 84.6442 84.9691C84.2503 89.5677 84.5184 94.1986 85.4419 98.7203" stroke="#313553" stroke-width="0.240284" stroke-linecap="round" stroke-linejoin="round"/>
<path d="M13.9309 70.2988L3.51514 74.9855" stroke="#313553" stroke-width="0.240284" stroke-linecap="round" stroke-linejoin="round"/>
<path d="M14.4785 71.5137L4.06348 76.2003" stroke="#313553" stroke-width="0.240284" stroke-linecap="round" stroke-linejoin="round"/>
<path d="M15.1733 69.7415L15.3097 69.6805C15.4709 69.6081 15.6543 69.6029 15.8195 69.6654C15.9848 69.7279 16.1184 69.8537 16.191 70.0149C16.2634 70.1761 16.2689 70.3599 16.2062 70.5248C16.1435 70.6898 16.0177 70.8239 15.8565 70.8962L15.5507 71.034" stroke="#313553" stroke-width="0.240284" stroke-linecap="round" stroke-linejoin="round"/>
<path d="M2.53853 75.4248L1.15332 76.7791L3.08538 76.6405" stroke="#313553" stroke-width="0.240284" stroke-linecap="round" stroke-linejoin="round"/>
<path d="M11.192 73.5886C10.0625 75.1802 8.83403 76.6995 7.5139 78.1367C6.47293 79.0459 17.1396 78.5887 17.1396 78.5887L21.7976 71.5481L16.6319 71.3975" stroke="#313553" stroke-width="0.240284" stroke-linecap="round" stroke-linejoin="round"/>
<path d="M9.70898 76.7799L11.0648 76.3219C11.1749 76.285 11.2923 76.2744 11.4071 76.2925C11.5219 76.3106 11.6306 76.3565 11.7239 76.4258C11.8592 76.526 12.0253 76.5757 12.1932 76.5659C12.3613 76.5561 12.5206 76.4876 12.6436 76.3731L12.731 76.2918C12.849 76.1818 13.0005 76.1147 13.1612 76.1012C13.322 76.0876 13.4826 76.1283 13.6175 76.2164L13.9942 76.4635C14.1316 76.5539 14.2958 76.5938 14.4594 76.578C14.623 76.5622 14.7762 76.4906 14.8935 76.3754L14.9267 76.343C15.0502 76.2217 15.2132 76.1494 15.3859 76.1381C15.5587 76.1275 15.7296 76.1788 15.8674 76.2835L16.5604 76.8107" stroke="#313553" stroke-width="0.240284" stroke-linecap="round" stroke-linejoin="round"/>
<path d="M12.23 74.5799L13.3501 74.0526C13.4473 74.0067 13.5571 73.9954 13.6618 74.0195C13.7664 74.0436 13.8599 74.1031 13.927 74.1867C13.9672 74.2372 14.0172 74.2793 14.074 74.3095C14.1308 74.3404 14.1932 74.3592 14.2576 74.3652C14.3218 74.3705 14.3866 74.3637 14.448 74.3434C14.5094 74.3238 14.5661 74.2914 14.6147 74.2492L15.2173 73.7219C15.2689 73.6768 15.3295 73.6436 15.395 73.624C15.4606 73.6044 15.5295 73.5999 15.5972 73.609C15.6648 73.618 15.7298 73.6421 15.7875 73.6783C15.8454 73.7152 15.8946 73.7634 15.9322 73.8206L16.4391 74.595C16.5072 74.6989 16.6128 74.772 16.7338 74.7991C16.8547 74.8269 16.9815 74.8059 17.0876 74.7418L18.0269 74.1716" stroke="#313553" stroke-width="0.240284" stroke-linecap="round" stroke-linejoin="round"/>
<path d="M107.198 56.7031C107.77 57.3554 108.297 58.0469 108.774 58.7723" stroke="#313553" stroke-width="0.240284" stroke-linecap="round" stroke-linejoin="round"/>
<path d="M100.799 40.4353C100.799 40.4353 104.451 40.0158 105.156 39.7627" stroke="#313553" stroke-width="0.240284" stroke-linecap="round" stroke-linejoin="round"/>
<path d="M104.707 37.3691L105.479 40.5546" stroke="#313553" stroke-width="0.240284" stroke-linecap="round" stroke-linejoin="round"/>
<path d="M118.394 23.1826C118.395 23.826 118.293 24.4653 118.092 25.0763C117.771 25.9651 115.448 27.7457 114.649 27.8241C114.249 27.8625 113.9 28.6331 113.511 29.4059C113.198 30.1336 112.617 30.7126 111.888 31.0223C109.294 31.5647 109.865 32.6042 111.069 32.4076C112.273 32.211 113.767 31.353 114.76 28.9645C114.76 28.9645 116.898 27.916 117.353 29.3494C117.807 30.7828 116.669 34.4255 113.046 33.9781L113.78 40.0281L116.254 40.9553" stroke="#313553" stroke-width="0.240284" stroke-linecap="round" stroke-linejoin="round"/>
<path d="M118.092 25.0771C118.241 25.7376 118.231 26.4239 118.065 27.08C117.761 27.7563 117.231 28.3056 116.566 28.6332" stroke="#313553" stroke-width="0.240284" stroke-linecap="round" stroke-linejoin="round"/>
<path d="M118.065 27.0791C118.065 27.0791 118.694 27.8015 117.352 29.3524" stroke="#313553" stroke-width="0.240284" stroke-linecap="round" stroke-linejoin="round"/>
<path d="M113.204 29.549C112.009 28.8357 112.21 26.8984 112.38 26.0306C112.549 25.1629 113.261 23.7031 111.451 23.2293C109.641 22.7555 110.02 20.4423 109.144 19.7539C108.268 19.0654 106.982 20.2359 105.302 19.9927C103.622 19.7494 103.863 18.3513 102.791 18.966C102.233 19.309 101.62 19.5524 100.979 19.6853C100.979 19.6853 104.004 13.3694 111.327 16.2731" stroke="#313553" stroke-width="0.240284" stroke-linecap="round" stroke-linejoin="round"/>
<path d="M104.089 17.8351C106.018 15.7765 108.748 15.7185 111.836 16.3768" stroke="#313553" stroke-width="0.240284" stroke-linecap="round" stroke-linejoin="round"/>
<path d="M106.471 18.5102C106.471 18.5102 111.046 15.736 112.48 16.5163C112.79 16.7486 113.071 17.0166 113.319 17.3148C113.319 17.3148 114.126 16.905 114.485 17.3901" stroke="#313553" stroke-width="0.240284" stroke-linecap="round" stroke-linejoin="round"/>
<path d="M115.525 17.9856C115.525 17.9856 113.996 17.5961 114.004 18.8217C114.026 19.1304 114.149 19.4233 114.354 19.6549C114.56 19.8864 114.836 20.0436 115.14 20.1022C115.003 20.1258 114.874 20.1805 114.762 20.262C114.65 20.3435 114.558 20.4496 114.494 20.5723C114.43 20.6948 114.394 20.8305 114.39 20.969C114.387 21.1074 114.415 21.2448 114.473 21.3706C114.888 22.377 116.622 21.7329 116.622 21.7329C116.622 21.7329 117.391 23.7222 120.056 23.1987C120.29 23.1833 120.519 23.1197 120.727 23.0119C120.935 22.9041 121.119 22.7544 121.267 22.5723C121.415 22.3901 121.524 22.1794 121.586 21.9533C121.649 21.7272 121.664 21.4906 121.631 21.2584C121.598 21.0261 121.518 20.8032 121.394 20.6035C121.27 20.4039 121.108 20.2319 120.915 20.0982C120.722 19.9646 120.504 19.8722 120.273 19.8269C120.043 19.7815 119.806 19.7842 119.577 19.8348" stroke="#313553" stroke-width="0.240284" stroke-linecap="round" stroke-linejoin="round"/>
<path d="M114.867 17.9325C114.778 17.6023 114.762 17.2563 114.822 16.9195C114.882 16.5826 115.015 16.263 115.212 15.9837C115.41 15.7044 115.666 15.4721 115.965 15.3036C116.262 15.1352 116.594 15.0347 116.935 15.0092C118.804 14.6642 120.358 15.8152 119.879 17.6614" stroke="#313553" stroke-width="0.240284" stroke-linecap="round" stroke-linejoin="round"/>
<path d="M119.96 16.8359C119.96 16.8359 121.768 16.8736 121.891 18.5096C122.014 20.1457 121.248 20.3762 121.248 20.3762" stroke="#313553" stroke-width="0.240284" stroke-linecap="round" stroke-linejoin="round"/>
<path d="M109.14 19.754C109.646 18.8865 110.455 18.2375 111.412 17.9326" stroke="#313553" stroke-width="0.240284" stroke-linecap="round" stroke-linejoin="round"/>
<path d="M112.369 28.3432C112.369 28.3432 113.205 26.6107 114.387 26.5204C115.568 26.43 116.425 24.8474 117.091 24.0527" stroke="#313553" stroke-width="0.240284" stroke-linecap="round" stroke-linejoin="round"/>
<path d="M114.004 19.2939C114.004 19.2939 111.993 20.0577 111.412 20.9051" stroke="#313553" stroke-width="0.240284" stroke-linecap="round" stroke-linejoin="round"/>
<path d="M112.602 25.0751C113.417 24.6548 114.159 24.1048 114.799 23.4466C115.721 22.444 116.043 22.5291 116.043 22.5291" stroke="#313553" stroke-width="0.240284" stroke-linecap="round" stroke-linejoin="round"/>
<path d="M114.543 29.7072C114.543 29.7072 115.915 29.4609 116.038 30.3686C116.03 30.819 115.891 31.2574 115.64 31.6314C115.389 32.0055 115.035 32.2992 114.622 32.4777" stroke="#313553" stroke-width="0.240284" stroke-linecap="round" stroke-linejoin="round"/>
<path d="M100.972 19.6895C100.972 19.6895 98.7986 22.2768 98.9899 24.8476C98.9899 24.8476 99.2234 26.666 99.2641 27.1774C99.3047 27.6889 98.205 29.2112 98.5447 30.8917C98.9221 32.3176 99.4494 33.6997 100.117 35.0149C100.972 37.0931 101.505 37.6663 103.754 37.4253C104.957 37.3286 106.136 37.0366 107.245 36.5605" stroke="#313553" stroke-width="0.240284" stroke-linecap="round" stroke-linejoin="round"/>
<path d="M101.199 19.2826C101.199 19.2826 100.084 19.6359 99.7875 18.7448C99.7046 18.4804 99.6896 18.1995 99.7438 17.9278C99.7973 17.656 99.9186 17.4021 100.096 17.1893C100.096 17.1893 99.0147 16.7969 99.7062 15.2881C100.398 13.7794 101.997 14.7451 101.997 14.7451C101.997 14.7451 102.122 13.3576 103.277 13.1836C104.433 13.0096 105.16 14.443 105.16 14.443C105.16 14.443 106.303 12.9441 107.239 13.9911C108.176 15.0381 107.834 15.5104 107.834 15.5104C106.195 15.6322 104.598 16.0834 103.139 16.8368C102.273 17.4517 101.601 18.2999 101.199 19.2826Z" fill="#585858"/>
<path d="M113.681 33.3574C114.036 33.3574 114.325 33.069 114.325 32.7134C114.325 32.3577 114.036 32.0693 113.681 32.0693C113.325 32.0693 113.037 32.3577 113.037 32.7134C113.037 33.069 113.325 33.3574 113.681 33.3574Z" fill="#313553"/>
<path d="M114.101 33.9938C114.477 34.2219 114.877 34.4044 115.296 34.5376C115.532 34.6001 115.764 34.6756 115.991 34.7636C116.079 34.7976 116.153 34.8614 116.199 34.9439C116.246 35.0264 116.262 35.1225 116.244 35.2156C116.225 35.3211 116.165 35.4146 116.076 35.4758C115.988 35.5369 115.88 35.5606 115.774 35.5417C114.764 35.2226 113.833 34.6898 113.045 33.9795" stroke="#313553" stroke-width="0.240284" stroke-linecap="round" stroke-linejoin="round"/>
<path d="M114.078 34.7642C114.166 35.4606 114.517 36.0974 115.057 36.5448C115.338 36.7603 115.561 36.9169 115.735 37.0292C115.87 37.1156 115.967 37.2499 116.007 37.405C116.046 37.5603 116.026 37.7247 115.949 37.8653C115.905 37.9455 115.845 38.0153 115.772 38.07C115.7 38.1247 115.615 38.1629 115.527 38.1822C115.437 38.2013 115.345 38.201 115.256 38.1811C115.167 38.1613 115.083 38.1224 115.011 38.0671C114.86 37.9542 114.703 37.8253 114.547 37.6905C113.896 37.0115 113.433 36.1745 113.204 35.2621V34.2158L114.078 34.7642Z" fill="#313553"/>
<path d="M98.9902 24.844C98.9902 24.844 99.4904 24.1051 100.068 24.2263C100.583 24.4165 101.055 24.705 101.459 25.076" stroke="#313553" stroke-width="0.240284" stroke-linecap="round" stroke-linejoin="round"/>
<path d="M104.504 25.2076C105.226 24.7103 106.062 24.4028 106.934 24.3135C107.311 24.3742 107.672 24.512 107.994 24.7181C108.315 24.9243 108.591 25.1945 108.803 25.5119" stroke="#313553" stroke-width="0.240284" stroke-linecap="round" stroke-linejoin="round"/>
<path d="M99.7012 26.2314C100.564 26.2534 101.382 26.6151 101.979 27.2378" stroke="#313553" stroke-width="0.240284" stroke-linecap="round" stroke-linejoin="round"/>
<path d="M100.67 27.0147C100.617 27.5058 100.334 27.8772 100.039 27.8433C99.7437 27.8094 99.5486 27.3914 99.6028 26.8972C99.657 26.4031 99.9387 26.2751 100.233 26.3074C100.528 26.3398 100.724 26.5244 100.67 27.0147Z" fill="#313553"/>
<path d="M105.462 26.5078C105.462 26.5078 107.417 26.7767 108.289 27.7883" stroke="#313553" stroke-width="0.240284" stroke-linecap="round" stroke-linejoin="round"/>
<path d="M106.43 27.288C106.377 27.7784 106.094 28.1498 105.8 28.1167C105.505 28.0835 105.309 27.6609 105.363 27.1706C105.416 26.6802 105.699 26.5484 105.993 26.5808C106.288 26.6132 106.484 26.7969 106.43 27.288Z" fill="#313553"/>
<path d="M102.835 25.6582C102.835 25.6582 103.2 26.4596 103.034 26.8016C102.869 27.1436 101.719 28.8143 101.459 29.3521C101.199 29.8899 102.268 30.7757 102.268 30.7757" stroke="#313553" stroke-width="0.240284" stroke-linecap="round" stroke-linejoin="round"/>
<path d="M103.102 30.2158C103.448 30.2737 103.78 30.3971 104.081 30.5796" stroke="#313553" stroke-width="0.240284" stroke-linecap="round" stroke-linejoin="round"/>
<path d="M100.739 32.0693C101.517 32.2564 102.306 32.3923 103.102 32.4761C104.154 32.4145 105.201 32.2845 106.236 32.0867C106.236 32.0867 104.701 33.8417 103.102 33.8726C101.503 33.9035 100.739 32.0693 100.739 32.0693Z" stroke="#313553" stroke-width="0.240284" stroke-linecap="round" stroke-linejoin="round"/>
<path d="M101.655 34.2607C101.764 34.4674 101.921 34.6446 102.114 34.7777C102.306 34.9107 102.527 34.9957 102.759 35.0253C103.304 35.0042 103.835 34.8489 104.305 34.5733" stroke="#313553" stroke-width="0.240284" stroke-linecap="round" stroke-linejoin="round"/>
<path d="M100.739 32.0592C101.296 31.7869 101.893 31.6032 102.507 31.5146C103.035 31.5448 105.778 32.1647 105.778 32.1647L102.87 32.3711L100.739 32.0592Z" fill="#313553"/>
<path d="M105.423 39.2657L106.236 37.1348L104.707 37.369L105.155 39.2212" fill="#313553"/>
</svg>
