<svg width="106" height="144" viewBox="0 0 106 144" fill="none" xmlns="http://www.w3.org/2000/svg">
<path d="M77.3221 107.547C77.7833 108.44 78.0162 109.434 78.0001 110.439C78.0904 112.466 78.8663 117.565 78.8663 118.145C78.8663 121.723 41.2946 122.928 35.4043 117.716C30.7267 113.603 36.5116 108.029 36.5116 108.029L77.3221 107.547Z" fill="#38A1FF" fill-opacity="0.57"/>
<path d="M86.8878 137.767C86.3889 136.674 86.0003 135.533 85.7278 134.362C85.333 132.977 84.8241 131.626 84.2062 130.325C83.5446 128.648 82.7512 127.026 81.8335 125.474C81.0276 124.261 81.4946 123.342 81.2008 120.684C80.907 118.025 80.4476 117.919 79.2424 117.113C78.0372 116.307 76.2972 117.686 74.7983 118.032C73.6383 118.303 71.2505 118.635 69.6612 118.831C69.2167 113.038 69.8419 117.045 68.8627 109.716C70.8889 109.438 73.0733 109.076 73.0809 109.076C73.9622 108.88 75.4385 108.421 76.0938 108.323C77.0655 108.142 77.4723 108.323 77.8489 107.901C77.9769 107.765 78.1351 107.652 78.0221 107.442C77.9091 107.231 77.9091 106.907 77.54 106.929C76.7877 107.072 76.0118 107.028 75.2803 106.801C74.736 106.543 74.1427 106.405 73.5403 106.395C72.7871 106.59 70.0076 108.858 67.0625 108.993C62.9648 109.182 64.0495 108.112 62.4451 109.069C61.8425 109.43 61.609 109.543 59.8238 109.453C58.8277 109.395 57.8607 109.095 57.0067 108.579C56.2535 108.21 52.7735 109.279 52.7584 109.279C49.8509 109.656 49.994 109.219 48.3369 108.398C47.8322 108.15 47.6213 108.338 46.9359 108.624C46.7626 108.692 47.9151 109.166 49.1956 109.686C50.3707 110.153 51.6587 110.68 52.2086 110.439H52.7735L52.0203 115.012L52.3818 119.169V119.237C51.3504 119.338 50.3105 119.31 49.286 119.154C46.9208 118.755 43.7421 118.288 40.3375 117.482C36.9329 116.676 32.6695 118.062 32.2628 118.635C31.856 119.207 29.2498 126.37 28.8581 127.41C28.4664 128.449 28.6849 129.67 28.6849 130.867C28.6849 132.065 27.8563 133.338 27.7132 134.302C27.5701 135.266 27.6002 137.247 27.1332 138.347C26.6662 139.447 25.8075 142.332 26.2142 142.384C36.3077 143.597 34.2287 140.245 41.731 142.497C49.2333 144.75 57.888 141.172 60.0799 142.264C62.2719 143.356 75.9507 142.324 77.2162 142.671C78.4816 143.017 89.3961 143.303 89.3961 142.904C89.3961 142.505 87.287 138.746 86.8878 137.767ZM59.1911 119.998C58.0311 120.111 55.7865 119.418 54.7997 119.185C54.4648 119.139 54.1253 119.139 53.7904 119.185C53.7904 117.52 53.7904 114.665 53.7904 114.665L54.4984 110.545C56.5698 110.545 56.7581 110.462 57.2026 110.801C57.647 111.14 57.6168 110.801 60.2155 110.718C60.5053 111.506 60.6705 112.335 60.7051 113.174C60.5997 114.002 60.6373 119.893 60.6373 119.893H60.7127C60.2833 119.9 59.7334 119.938 59.1911 119.998ZM67.7555 119.102C67.1048 119.412 66.4159 119.635 65.7066 119.765C64.8555 119.81 63.575 119.817 62.6937 119.817L62.4677 110.583L63.7181 110.507C65.2246 110.402 64.7802 110.04 65.7669 110.033C66.136 110.033 66.7612 109.972 67.4843 109.882C67.7311 112.949 67.8217 116.026 67.7555 119.102Z" fill="#BABABA"/>
<path d="M35.9391 106.974C36.9334 107.298 37.1895 107.057 37.7469 107.554C37.19 108.042 36.5842 108.471 35.9391 108.835C35.2537 108.677 34.9449 108.405 35.0955 107.758C35.2462 107.253 35.4646 106.801 35.9391 106.974Z" fill="#D3FFCF"/>
<path d="M104.816 77.8467C105.238 79.7901 104.989 85.8537 104.891 86.4186C104.259 89.8534 100.967 90.8251 98.5716 90.4108C94.4137 89.6576 91.5966 86.3734 82.407 78.7732C81.9701 78.4192 82.7535 78.0878 83.0397 76.7018C83.245 76.0082 83.5998 75.368 84.0792 74.8262C84.5387 74.1709 87.2052 69.5536 87.6948 68.8003C87.868 68.5292 87.868 68.5216 91.009 71.1052C91.4007 71.4291 93.6303 82.2457 95.1744 81.2062C95.8147 80.7768 94.4212 79.7449 93.5474 76.5662C91.9581 70.6081 90.1955 60.8009 87.642 55.1742C87.3859 54.6093 86.5875 52.2893 86.0376 51.6566C84.7873 50.1953 80.0795 49.7132 78.8668 47.1898C78.5128 46.4366 78.7011 46.7078 77.4884 42.934C77.2925 42.3088 77.4884 42.2335 77.5938 42.113C77.6993 41.9925 78.106 42.113 78.2491 42.2712C78.6161 42.7215 78.9039 43.2309 79.1003 43.7777C80.2226 46.2408 79.8159 46.5948 80.6068 46.7906C82.3694 47.2878 81.9927 46.2257 83.8306 46.5421C84.3885 46.704 84.9575 46.8248 85.533 46.9036C85.8192 46.9036 86.0904 46.4592 85.6083 46.2709C85.1571 46.0168 84.6608 45.853 84.147 45.7888C83.6348 45.7888 84.147 44.5836 83.6951 43.1826C82.7234 39.8684 83.3712 39.9813 82.4145 39.1452C81.7894 38.6029 80.8478 37.7141 80.0946 37.7969C79.3413 37.8798 79.5598 38.2639 78.6408 40.1019C78.0156 41.3447 77.2925 41.4502 77.5336 40.5613C77.9397 39.5031 78.2326 38.4047 78.4073 37.2847C78.6785 35.7783 79.9138 35.5372 80.667 35.9967C81.7366 36.6595 81.5333 36.2829 82.987 37.1341C84.6667 38.1133 83.5595 34.9798 83.9135 29.6469C83.9466 28.6223 84.0625 27.6021 84.26 26.5963C84.26 26.4682 84.3278 26.0238 84.6441 25.9635C84.9605 25.9033 85.1187 26.2121 85.1639 26.7168C85.3296 28.5245 84.5914 33.6466 85.9774 38.1284C85.3371 38.1284 84.5764 37.9476 84.7647 38.5502C84.8023 38.6632 85.7137 38.7987 85.7363 38.7987C88.5459 39.1904 90.3763 40.6818 90.6173 40.132C90.7831 39.7403 90.3311 39.5595 89.9093 39.3787C89.4875 39.198 89.8038 39.2432 90.542 37.3601C91.0919 35.944 92.4251 29.7147 93.2236 29.8277C93.4721 29.8277 93.6755 29.9557 93.668 30.3173C93.668 31.7334 91.8677 35.5297 91.461 39.0021C91.0015 42.8361 91.8225 40.6065 91.0844 48.1465C90.9111 49.9467 92.2217 50.2179 94.602 55.2571C94.602 55.2571 97.5773 62.0362 98.4962 63.7536C100.688 67.8889 103.957 73.832 104.816 77.8467ZM90.5044 41.6385C90.8508 41.1112 85.7062 39.3787 84.4784 39.6499C84.4036 39.6789 84.3425 39.7352 84.3076 39.8075C84.2728 39.8798 84.2667 39.9627 84.2906 40.0393C84.3146 40.1159 84.3668 40.1806 84.4366 40.2202C84.5064 40.2598 84.5887 40.2713 84.6667 40.2525C86.9265 40.3203 89.4724 41.759 90.0976 41.9172C90.3537 41.9548 90.429 41.774 90.5194 41.6385H90.5044ZM90.1428 50.0597C90.768 49.3065 87.4839 49.4646 87.6646 46.9112C87.8153 44.7719 89.2916 42.2637 88.561 42.113C88.3124 42.0603 88.1542 42.0678 87.9584 42.6629C86.7607 46.2558 85.6987 49.1633 89.608 50.2329C89.6984 50.248 89.8716 50.3836 90.1579 50.0597H90.1428Z" fill="#C49E91"/>
<path d="M88.726 38.7601C88.726 38.9635 88.8314 38.9786 87.1743 38.3835C87.0086 38.3233 87.0538 38.3082 87.3099 36.1238C87.3099 36.0108 87.5208 29.6685 88.0631 27.5595C88.1837 27.1226 88.1837 26.8514 88.5452 26.7309C89.7052 26.3769 88.2514 31.9282 88.726 38.7601Z" fill="#C49E91"/>
<path d="M88.2811 66.0202C88.6126 66.2989 88.4694 66.0202 86.4884 68.988C85.0422 71.1799 84.3568 72.7542 83.3097 74.2607C81.2308 77.2285 81.4041 79.7518 80.583 78.6144C79.5134 77.1079 77.6077 75.9706 76.8168 74.8482C76.395 74.2682 76.8695 74.1628 76.4327 72.129C75.7999 69.1161 76.3347 68.5436 75.5288 65.7039C75.4233 65.3574 74.8207 65.2595 74.7755 65.7039C74.7755 65.9977 74.9864 66.9618 75.1973 68.4381C75.207 69.7641 75.3457 71.086 75.6116 72.3851C76.3121 75.7295 74.8584 79.4204 74.9412 83.3146C75.0994 89.9507 74.5194 90.8471 74.7454 93.7621C74.9337 96.2252 75.1145 94.6434 76.169 98.8992C76.2218 99.1026 65.7366 93.265 54.9653 79.4581C53.5793 77.6879 35.6146 55.2414 35.6598 55.2263C36.9026 54.8045 37.2265 54.571 37.8065 55.1058C40.5182 57.7271 42.454 60.273 49.3989 62.1938C63.7104 66.088 72.3049 54.0889 73.5026 54.2546C76.5155 54.699 76.8695 54.4505 78.1651 55.6933C80.8241 58.2468 80.5981 59.1507 84.2739 62.6608C85.0874 63.4668 87.1513 65.0787 88.2811 66.0202ZM72.8548 82.4334C73.0054 82.3656 73.2615 82.1773 73.1109 81.9739C72.2823 80.8892 70.7909 84.1583 63.9741 82.9832C59.3567 82.1848 59.7258 81.424 58.4377 81.3788C58.0913 81.3788 58.0159 81.4993 58.0009 81.6425C58.0006 81.7162 58.0238 81.788 58.0671 81.8476C58.1105 81.9072 58.1717 81.9515 58.2419 81.9739C59.997 82.5539 60.2455 83.4804 64.2678 83.9474C69.9473 84.5801 71.8153 82.8702 72.8548 82.4334Z" fill="#38A1FF"/>
<path d="M79.191 114.732C82.1513 115.448 86.4975 112.932 88.9078 111.772C88.3505 109.414 87.085 104.684 85.0211 103.419C83.3866 102.417 82.7614 101.799 81.8726 101.663C81.1516 101.471 80.4113 101.359 79.6656 101.332C78.0913 101.43 78.2043 101.415 78.257 101.724C78.3282 101.888 78.3552 102.069 78.3354 102.247C78.3156 102.425 78.2496 102.596 78.144 102.741C77.9859 102.929 78.837 104.157 78.2043 106.002C78.0913 106.318 78.3323 106.002 78.8144 107.192C79.2362 108.179 78.2495 108.495 78.1817 108.751C78.1139 109.008 78.2796 109.121 78.3173 109.316C78.6035 110.597 78.4905 114.559 79.191 114.732Z" fill="#38A1FF"/>
<path d="M89.2913 114.347C89.2235 114.347 87.83 114.912 87.4533 115.146C85.6682 116.238 85.5251 115.899 83.1975 116.652C82.5492 116.888 81.8601 116.99 81.1713 116.954C80.6365 116.954 80.2524 117.014 80.0867 116.848C80.051 116.81 80.0239 116.765 80.007 116.716C79.9901 116.666 79.9839 116.614 79.9887 116.562C79.9887 115.876 80.7043 116.622 83.4612 115.718C84.6513 115.334 85.5476 115.349 86.8282 114.506C87.5292 114.154 88.2482 113.84 88.9824 113.564C89.2687 113.436 89.3138 113.278 89.4042 112.607C89.4494 112.268 89.1858 112.434 87.024 113.609C84.9978 114.709 83.9056 114.619 82.7908 115.251C82.1279 115.62 80.2222 115.613 79.4087 115.545C79.1451 115.545 78.8815 115.364 78.9794 115.658C79.1602 116.208 78.9794 116.411 79.3334 116.592C79.9226 116.826 80.433 117.224 80.8051 117.737C81.1772 118.251 81.3956 118.859 81.435 119.492C81.5479 120.999 81.8191 121.699 81.8116 122.829C81.8116 125.465 82.7305 124.878 84.2144 129.005C85.0656 131.371 85.1183 131.265 85.269 131.265C85.7386 131.317 86.2137 131.247 86.648 131.061C87.0824 130.875 87.461 130.579 87.7471 130.203C90.3985 126.038 89.9164 126.264 89.8411 117.308C89.8336 116.946 90.2705 113.933 89.2913 114.347Z" fill="#38A1FF"/>
<path d="M73.948 98.6143C71.8438 97.2809 69.8307 95.8089 67.9221 94.2079C59.1619 86.7734 57.0152 83.0976 51.4262 76.3711C43.4644 66.7824 37.205 57.8264 34.8549 55.6872C34.2824 55.175 34.2824 55.175 33.9359 55.3256C33.5894 55.4762 33.4388 55.5666 33.5743 55.7248C33.7099 55.883 34.3276 56.4781 34.5762 56.7417C52.556 78.2768 55.8552 87.0144 70.5585 97.718C77.5561 102.81 77.6917 103.194 77.6389 101.876C77.5862 100.558 77.4958 101.341 73.948 98.6143Z" fill="#38A1FF"/>
<path d="M77.3303 103.397C77.6015 104.112 77.8275 105.596 77.1044 105.86C76.0197 106.259 75.3041 105.581 73.9558 105.385C72.6075 105.19 70.0917 108.398 65.8359 107.999C65.7003 107.999 65.2182 107.999 65.2182 107.999C63.5536 107.69 63.2448 107.389 62.2053 107.999C61.8635 108.314 61.4117 108.482 60.9474 108.466C59.771 108.618 58.5777 108.371 57.5578 107.766C56.0513 106.945 53.6861 108.519 50.8765 108.474C50.12 108.364 49.4056 108.058 48.8051 107.585C47.5171 106.794 46.6358 108.413 44.7075 107.683C43.668 107.284 42.1163 107.479 40.7153 107.216C40.147 107.118 39.5662 107.118 38.9979 107.216C38.5234 107.419 38.8397 106.884 37.8229 106.463C37.4914 106.327 36.3164 106.289 35.7439 105.822C35.051 105.257 36.2109 104.82 36.3691 103.751C36.3834 103.248 36.4906 102.753 36.6855 102.29C37.6647 100.655 37.6421 100.309 37.6873 99.6381C37.598 98.8058 37.6722 97.9639 37.9057 97.16C38.3577 96.3088 37.2504 93.1452 37.0546 92.5652C35.4728 87.9328 36.0076 90.5691 35.2769 85.8463C34.7045 82.1328 34.1772 82.1328 34.132 80.1819C34.0868 78.2311 34.6367 78.1783 34.132 76.943C33.9647 76.6689 33.7649 76.4159 33.5369 76.1898C33.3041 75.9248 33.1666 75.5896 33.1461 75.2375C33.1256 74.8854 33.2234 74.5366 33.4239 74.2464C34.277 72.8285 34.7516 71.2152 34.8024 69.5613C34.9907 68.2732 35.0961 66.9626 34.5839 66.9852C33.7026 66.9852 34.5161 69.5537 33.4993 72.3256C32.9946 73.7116 31.8798 74.495 31.0136 75.3386C28.6559 77.5983 29.6803 77.8017 28.2868 75.4591C26.2832 72.0921 26.4188 72.1524 25.5074 71.2108C23.9256 69.5688 24.3173 70.1488 23.564 69.0942C22.8161 68.0258 21.8178 67.1569 20.6565 66.5633C20.4757 66.5106 23.3757 63.5504 24.5583 62.3678C29.4845 57.6299 29.3564 59.6109 30.5842 57.5847C31.1642 56.6432 31.4655 56.8315 32.7686 56.2515C34.2751 55.6338 54.6955 85.9593 64.2014 93.7327C70.1068 98.5083 77.3078 103.352 77.3303 103.397ZM50.8991 81.7788C50.9904 81.7749 51.0766 81.7359 51.1398 81.6699C51.203 81.604 51.2382 81.5161 51.2381 81.4248C51.2381 80.6188 49.7994 81.3043 48.7449 81.4248C42.6662 81.9445 43.2763 81.7863 39.5704 80.6716C38.8664 80.3915 38.2028 80.0191 37.5969 79.5643C36.8437 79.1651 36.0904 81.6658 44.9787 82.6149C44.9787 82.6149 48.421 82.2232 48.436 82.2232C49.2669 82.1359 50.0901 81.9873 50.8991 81.7788Z" fill="#38A1FF"/>
<path d="M75.5294 21.4816C74.9645 22.4608 77.2092 23.4928 76.8175 25.1725C76.5388 26.3852 75.5596 26.5133 74.9494 26.9125C74.3393 27.3117 74.2414 27.6657 74.8515 28.5094C75.068 28.7546 75.1955 29.0658 75.2133 29.3925C75.231 29.7192 75.1381 30.0423 74.9494 30.3096C74.1209 31.221 72.8856 30.6862 72.8554 31.6202C72.8178 32.8028 73.4053 33.2322 72.524 33.7143C71.6427 34.1963 70.6258 33.3753 70.2643 33.7745C69.9027 34.1737 70.2643 34.4148 70.3622 34.8667C70.6183 35.7555 69.9931 35.4994 68.6599 36.2301C68.0121 36.5916 67.7259 37.5181 68.4038 38.6103C69.496 40.3804 69.5562 40.4859 68.095 41.4124C65.5038 43.0695 68.7578 44.3726 67.7259 45.7059C66.6939 47.0391 66.7391 47.6492 66.7918 47.9656C66.8446 48.2819 66.5508 48.3121 66.3324 47.8451C66.1388 47.5488 66.0467 47.1976 66.0697 46.8445C66.0928 46.4913 66.2299 46.1552 66.4604 45.8866C66.6185 45.7048 66.7348 45.4905 66.8012 45.2588C66.8675 45.0272 66.8823 44.7838 66.8446 44.5459C66.7994 44.1768 66.3324 43.7926 65.8202 43.4235C65.6102 43.2072 65.4808 42.9255 65.4534 42.6254C65.4259 42.3252 65.5022 42.0247 65.6695 41.7739C66.3324 40.7571 66.6939 40.9077 66.8521 40.2675C66.9802 39.7552 66.3399 39.2506 65.9708 38.4145C65.8729 38.2638 69.1947 35.2057 69.4357 32.5467C69.5112 32.1633 69.481 31.7666 69.3483 31.3991C69.2156 31.0316 68.9855 30.707 68.6825 30.4603C68.5469 30.3774 68.4716 30.3322 68.5092 30.0912C70.4225 17.3991 71.0477 13.889 71.2435 12.9549C71.3414 12.4653 71.2435 12.2695 70.9422 12.149C70.6409 12.0285 70.3773 12.2092 70.3396 11.7573C70.0986 9.24147 66.9124 7.9007 64.389 7.9007C63.7144 7.81386 63.0289 7.92072 62.4127 8.20881C61.7965 8.4969 61.275 8.95433 60.909 9.5277C60.7509 9.84406 60.7283 10.0324 60.5249 9.82146C60.1577 9.44978 59.7039 9.1753 59.2042 9.02277C58.7045 8.87023 58.1747 8.84444 57.6626 8.9477C56.3218 9.12848 56.2766 9.70094 56.2239 9.2264C55.8096 5.31708 48.6915 4.948 46.6427 8.1568C46.3715 8.58615 46.6427 8.91004 45.9723 8.9703C44.7897 9.03056 45.3094 9.37705 44.9177 23.2066C44.6767 31.7182 45.0684 27.3569 44.1118 32.3283C43.5092 35.4316 44.6993 36.554 43.8707 38.0831C43.6189 38.3542 43.3469 38.606 43.0572 38.8363C42.3492 39.6347 43.6598 40.1469 43.5845 40.9981C43.4217 41.5365 43.0682 41.9971 42.5902 42.2937C42.5672 42.3113 42.5391 42.321 42.5101 42.3215C42.4811 42.3219 42.4527 42.3131 42.4291 42.2962C42.4055 42.2794 42.388 42.2554 42.379 42.2278C42.37 42.2003 42.3701 42.1705 42.3793 42.143C42.7861 40.7571 42.3793 40.5687 41.5508 39.6498C40.8502 38.8966 41.4378 38.4823 42.432 37.6838C43.0949 37.1566 42.7183 36.7724 42.3191 36.4636C40.5188 35.0701 41.0159 35.0701 41.837 33.4958C42.2061 32.7878 42.0253 32.5091 41.6939 32.1776C41.3624 31.8462 40.6017 31.334 40.3983 30.7465C40.2778 30.3966 40.2415 30.0233 40.2926 29.6568C40.3436 29.2903 40.4805 28.941 40.6921 28.6374C41.4453 27.6431 39.7053 28.3587 38.9671 27.3795C38.3495 26.5585 39.163 25.8052 39.404 25.6019C39.8861 25.1951 39.7204 24.7959 39.3287 24.811C37.1217 24.8938 36.6923 23.1086 38.1536 21.798C38.6131 21.3988 38.8316 21.0975 38.1536 20.8112C36.8053 20.2689 37.4004 19.9074 38.1536 19.3876C38.7562 19.011 38.9069 18.6344 37.9955 18.3331C36.3007 17.7983 36.489 16.2918 37.6038 15.4482C38.7186 14.6045 39.1102 15.6064 39.6827 15.3277C40.1045 15.1243 39.7279 14.3936 39.4492 14.1903C37.9427 13.0679 38.8918 12.2318 39.3664 12.2092C40.3682 12.149 40.3079 12.2846 40.8201 12.1565C42.2061 11.8176 41.0536 10.7404 40.9632 9.83653C40.918 9.42225 41.1289 8.60121 41.7165 8.76693C42.1232 8.87238 43.0723 9.30926 42.9292 8.46563C42.8677 8.23861 42.8517 8.00168 42.8821 7.76846C42.9125 7.53524 42.9887 7.31033 43.1063 7.10665C43.2239 6.90296 43.3806 6.72452 43.5674 6.58158C43.7541 6.43863 43.9673 6.334 44.1946 6.2737C44.6466 6.17578 44.6466 6.42435 45.3471 6.89136C46.0476 7.35837 46.7556 7.07967 46.7707 6.59759C46.7707 5.52799 46.3564 4.33787 48.5408 3.35113C48.9232 3.23268 49.3311 3.22352 49.7185 3.32468C50.1058 3.42584 50.4571 3.63328 50.7328 3.92359C51.0416 4.26255 51.2224 4.53371 51.5463 4.02151C51.7914 3.36634 52.2044 2.78709 52.7439 2.34178C53.1281 2.01497 53.5803 1.7778 54.0675 1.64751C54.5548 1.51722 55.065 1.49708 55.561 1.58854C56.0261 1.64892 56.4608 1.85248 56.805 2.171C57.1491 2.48952 57.3857 2.90722 57.4818 3.36619C57.5496 3.62983 57.4818 3.84827 57.8208 3.93865C58.0467 3.99891 58.2802 3.65995 58.3179 3.58463C58.4733 3.27669 58.7082 3.01587 58.9982 2.82914C59.2882 2.64241 59.6228 2.53657 59.9675 2.52256C61.2706 2.69581 61.1425 3.84827 61.3459 4.02904C62.0238 4.66177 61.6171 2.47737 64.6225 2.95191C65.127 3.05725 65.5945 3.29481 65.977 3.64026C66.3595 3.98571 66.6433 4.42664 66.7994 4.91787C67.1911 5.79916 66.6638 5.7615 66.935 6.42435C67.1157 6.88383 67.4547 6.72564 67.8012 6.35656C68.8482 5.21163 70.2417 5.4376 69.9705 6.40175C69.8076 6.73317 69.7152 7.09484 69.6994 7.46382C69.7028 7.53815 69.7273 7.60995 69.7701 7.67084C69.8129 7.73172 69.8721 7.77916 69.9409 7.80761C70.0096 7.83606 70.085 7.84434 70.1583 7.83148C70.2316 7.81862 70.2997 7.78515 70.3547 7.73499C71.3113 6.69551 74.4071 7.622 73.7367 9.93445C73.5484 10.5973 73.3149 11.0944 73.7819 11.2978C75.0549 11.8477 75.4918 11.8929 76.2676 12.9022C76.6246 13.3166 76.8319 13.8389 76.8565 14.3852C76.8811 14.9316 76.7215 15.4704 76.4032 15.9152C76.3053 16.0583 75.7629 16.3897 75.5596 16.6684C75.5177 16.726 75.491 16.7933 75.4821 16.8639C75.4732 16.9346 75.4824 17.0063 75.5087 17.0725C75.535 17.1387 75.5776 17.1971 75.6326 17.2424C75.6876 17.2876 75.7532 17.3182 75.8232 17.3313C76.8401 17.4518 77.7816 19.1391 76.6367 20.4648C76.0416 21.1879 75.8307 20.9544 75.5294 21.4816Z" fill="#585858"/>
<path d="M69.0365 15.5224C70.6937 14.0159 70.3547 10.084 67.6355 29.6457C67.6355 29.8189 67.5527 29.9018 67.3719 29.9168C67.1911 29.9319 66.8823 30.0298 66.6186 29.8566C66.5278 29.8069 66.4482 29.739 66.3847 29.6571C66.3213 29.5753 66.2754 29.4812 66.25 29.3809C66.2246 29.2805 66.2201 29.176 66.2368 29.0738C66.2536 28.9716 66.2913 28.874 66.3475 28.787C66.6638 28.2522 67.5225 28.0789 66.4228 27.4462C65.5415 26.9415 66.6186 26.2184 66.8295 25.6836C67.3192 24.4483 64.9766 25.2844 64.9163 24.0943C64.8259 22.4673 66.8521 23.2431 66.4228 21.1717C66.2797 20.5013 65.7072 20.5013 64.7355 20.2754C64.3062 20.1774 64.0953 19.831 63.8618 19.5221C63.4023 18.8593 64.615 17.5562 64.035 17.1494C63.455 16.7427 62.5963 18.573 61.6548 17.993C61.2631 17.7595 60.7509 17.5185 60.9015 17.0816C61.2104 16.0873 60.5701 15.8764 60.0956 16.3284C59.9609 16.4391 59.7995 16.5125 59.6276 16.5411C59.4557 16.5698 59.2792 16.5528 59.1159 16.4917C58.9526 16.4307 58.8083 16.3278 58.6973 16.1934C58.5863 16.0589 58.5126 15.8977 58.4836 15.7258C58.3255 14.8144 57.7304 15.0328 57.5421 15.545C57.2634 16.4564 56.3218 17.3302 55.5987 17.0515C55.3544 16.9885 55.1298 16.8651 54.9455 16.6927C54.7613 16.5203 54.6233 16.3044 54.5442 16.0648C54.4995 15.9822 54.4321 15.9142 54.3498 15.8688C54.2676 15.8235 54.1741 15.8028 54.0804 15.8092C53.9867 15.8155 53.8969 15.8487 53.8215 15.9047C53.7461 15.9607 53.6885 16.0372 53.6554 16.125C53.2185 17.0063 53.1055 16.8783 52.3749 16.931C51.7723 16.9762 51.4333 16.577 51.1019 16.0873C51.0549 15.9963 50.9792 15.9232 50.8866 15.8794C50.794 15.8356 50.6895 15.8234 50.5893 15.8448C50.4891 15.8662 50.3987 15.92 50.3321 15.9979C50.2654 16.0757 50.2263 16.1733 50.2206 16.2757C50.3553 16.7491 50.336 17.2531 50.1654 17.7149C49.9948 18.1766 49.6817 18.5721 49.2715 18.8442C48.7154 19.1463 48.0963 19.314 47.4637 19.3338C46.5975 19.4393 46.6427 18.7764 46.0853 19.3715C45.9949 19.4769 46.0853 19.4167 45.8895 19.5372C45.8443 19.2736 45.8367 10.4456 46.1004 10.4531C46.364 10.4606 45.8895 11.1235 46.8536 12.6224C49.1133 16.012 53.9491 14.6411 55.3878 12.1102C55.9753 11.0708 56.2465 10.3251 57.2408 10.0087C57.7101 9.84634 58.2179 9.83149 58.6959 9.96614C59.1739 10.1008 59.5992 10.3785 59.9148 10.7619C60.167 11.2804 60.3736 11.8197 60.5325 12.3739C61.3686 15.9141 65.9633 18.3772 69.0365 15.5224Z" fill="#585858"/>
<path d="M71.6277 54.482C69.707 56.5685 68.5168 57.0505 66.114 58.542C64.3951 59.8427 62.4214 60.7667 60.3216 61.2536C58.9009 61.6795 57.434 61.9324 55.9528 62.0069C54.7853 62.0069 54.8229 62.0069 54.8229 62.0069C50.0453 61.9164 45.4093 60.3685 41.5358 57.5703C37.9353 54.3012 38.1462 55.0545 39.954 54.5573C46.0853 52.9529 46.3188 53.0508 47.4864 48.6143C47.964 47.0139 48.272 45.3679 48.4053 43.7031C49.0004 44.0722 51.1245 46.3018 53.8512 45.8875C57.0073 45.3979 58.5515 43.9743 59.1239 43.7709C59.1767 44.4714 57.851 48.1698 58.6946 51.3033C59.6361 54.723 68.4641 53.7363 71.6277 54.482ZM54.4764 56.222C55.079 56.222 58.1221 55.7776 57.9941 55.19C57.8359 54.4368 56.5478 55.6796 54.1751 55.5817C53.9115 55.5817 53.8061 55.5817 52.7892 55.0469C51.1245 54.2184 50.763 54.5347 48.0212 55.2503C47.0194 55.5139 47.396 56.0035 48.104 55.8077C48.8121 55.6119 50.9287 54.9641 51.5991 55.2503C53.6479 56.1316 53.8738 56.2747 54.4764 56.222Z" fill="#C49E91"/>
<path d="M67.9146 30.7979C68.8034 31.2122 68.7507 32.3797 68.4192 33.2911C67.8865 34.6141 67.1212 35.8309 66.1595 36.8841C65.9358 37.1606 65.6158 37.3422 65.2637 37.3925C64.9116 37.4428 64.5535 37.358 64.2613 37.1552C64.1032 37.0649 63.8847 37.0649 63.6738 37.336C62.6795 38.6015 62.3481 40.9817 57.7081 43.618C55.6744 44.7705 53.1887 45.5915 51.0495 44.5973C48.6316 43.4674 47.4415 41.0721 46.2137 38.9555C43.6301 34.4888 45.242 32.0633 45.5584 29.0504C45.7241 27.5439 45.4831 25.706 45.6337 23.7777C45.7166 22.7006 45.7166 21.2543 46.1233 20.4258C46.2212 20.2375 46.3116 20.0793 46.4698 20.0567C46.9971 19.9964 47.223 20.2827 48.1721 20.1019C49.03 20.0247 49.8317 19.6425 50.4318 19.0247C51.3809 17.8723 50.9817 17.4053 51.3583 17.5861C51.7867 17.8177 52.2773 17.9083 52.7602 17.8447C53.2431 17.7811 53.6936 17.5667 54.0474 17.232C54.3788 16.9533 54.1453 17.4957 55.3806 17.9325C56.2695 18.2414 57.3918 17.5258 57.8739 16.8629C58.145 16.4713 58.2204 17.6614 59.6816 17.4429C60.352 17.345 59.9001 18.6481 61.851 19.0021C62.1972 19.0058 62.5406 18.9391 62.8603 18.8063C63.3123 18.618 62.3406 19.6725 63.9676 20.9003C64.3951 21.1322 64.8629 21.2805 65.346 21.3372C65.6322 21.3975 65.7979 21.7063 65.4439 21.9473C63.3047 23.386 63.9374 25.48 65.3159 25.7135C65.5193 25.7135 65.7302 25.7662 65.6021 25.9169C65.3676 26.2213 65.2404 26.5947 65.2404 26.979C65.2404 27.3632 65.3676 27.7367 65.6021 28.041C65.8959 28.3499 65.3912 28.4026 65.4515 29.5475C65.5042 30.4514 66.2047 30.3761 65.8507 30.7828C65.6096 31.0766 65.8507 31.5888 66.1821 31.4155C66.4457 31.2423 67.0107 30.3836 67.9146 30.7979ZM67.8769 32.6584C68.1255 32.5529 68.1933 31.9579 67.7865 31.5813C67.199 31.0314 66.1068 31.988 65.7151 33.1555C65.3234 34.3231 66.2499 34.2025 65.7754 34.8202C65.4967 35.1818 65.0824 35.5132 65.4213 35.822C65.7603 36.1308 66.1746 35.596 66.4683 35.2646C66.5702 35.1514 66.646 35.0171 66.6903 34.8713C66.7345 34.7255 66.7462 34.5718 66.7244 34.421C66.6642 33.9992 65.813 33.7129 66.9278 32.4174C67.1613 32.1462 67.3647 32.1161 67.5003 32.3571C67.6359 32.5981 67.7488 32.7187 67.8769 32.6584ZM62.6419 27.3405C62.913 27.687 63.4855 27.4836 63.3273 27.0166C63.0638 26.325 62.5792 25.7399 61.9489 25.352C61.3326 24.9712 60.5918 24.8469 59.885 25.0055C57.7081 25.1185 57.9115 26.512 58.8455 26.0977C61.0375 25.2013 61.8359 26.3161 62.6419 27.3405ZM59.1845 37.3737C59.1393 37.8558 59.7645 38.3981 60.0206 37.0875C59.7871 34.8277 57.8663 35.0688 58.4539 35.822C58.6572 36.0856 57.9191 36.1158 57.5876 36.1233C55.2551 36.1686 52.9304 35.8379 50.703 35.1441C49.656 34.8503 49.5732 34.9332 50.2435 36.3945C51.6144 39.4074 52.4355 42.0061 55.0341 40.4996C56.6159 39.5882 58.3635 37.4264 59.2071 36.9142C59.2448 37.3436 59.2146 37.1251 59.1845 37.3737ZM59.4557 29.5626C59.5837 28.9223 59.4557 28.606 59.2146 28.508C59.145 28.4928 59.0728 28.4925 59.003 28.5072C58.9332 28.5218 58.8673 28.5511 58.8097 28.5931C58.752 28.6351 58.7039 28.6889 58.6686 28.7508C58.6332 28.8127 58.6114 28.8815 58.6045 28.9525C58.3635 30.1802 59.3502 30.1426 59.4557 29.5626ZM56.036 33.4418C56.9097 33.2535 57.0453 32.0709 56.4804 32.1085C56.2393 32.1085 56.2318 32.2592 56.1489 32.3797C56.0661 32.5002 55.9456 32.7563 55.6518 32.6433C54.9889 32.3872 55.0191 31.4683 54.4918 32.1914C54.3681 32.3835 54.1926 32.5367 53.9856 32.6334C53.7787 32.7301 53.5486 32.7664 53.3219 32.738C53.0952 32.7097 52.8811 32.6179 52.7043 32.4732C52.5275 32.3285 52.3951 32.1368 52.3225 31.9202C52.1191 31.0013 52.6464 30.6096 53.3092 29.9919C53.5338 29.8043 53.7075 29.5631 53.8142 29.2905C53.9208 29.018 53.957 28.723 53.9193 28.4327C53.9193 28.1465 53.6181 27.9883 53.4071 28.2745C53.239 28.7854 52.9215 29.234 52.4957 29.5626C49.9196 31.6114 52.4957 34.9031 54.6801 33.3288C54.8383 33.2158 54.8986 33.0877 55.0341 33.1857C55.1714 33.3005 55.3326 33.3831 55.506 33.4274C55.6793 33.4717 55.8604 33.4766 56.036 33.4418ZM53.023 23.5367C53.5051 22.7834 51.7274 21.8042 49.6861 22.5424C47.9989 23.145 47.5545 24.8699 48.4885 24.5987C48.7145 24.5309 48.6316 23.9208 49.7991 23.3559C51.6747 22.4445 52.6162 24.1618 53.023 23.5367ZM51.6295 27.6644C51.6747 27.1974 51.3508 26.8283 51.0269 26.9112C50.703 26.994 50.6427 27.1522 50.6277 27.6042C50.6126 28.0561 50.8687 28.3047 51.0344 28.3574C51.3885 28.4101 51.6069 28.0109 51.6295 27.6644Z" fill="#C49E91"/>
<path d="M66.7922 10.4022C66.8901 11.63 65.7828 11.5622 65.9937 13.0913C66.393 15.8858 66.7018 15.8708 66.0841 15.8406C64.7735 15.7578 65.0447 16.1193 64.5777 13.5809C64.4818 13.298 64.4516 12.997 64.4895 12.7008C64.5273 12.4045 64.6322 12.1207 64.7961 11.871C66.1218 9.8147 64.3366 8.51912 65.6548 8.81289C66.4683 9.05392 66.6867 8.99366 66.7922 10.4022Z" fill="white"/>
<path d="M53.701 36.6287C57.1207 37.2765 58.2204 36.6739 57.8589 36.9978C54.2057 40.3422 53.3394 41.6604 51.4714 37.1334C50.9291 35.8002 50.1306 35.9584 53.701 36.6287Z" fill="white"/>
<path d="M51.6148 6.79297C52.7221 6.92102 51.8935 6.79297 51.66 8.29945C51.2683 10.8002 52.8727 9.05269 50.8616 13.4968C50.7486 13.7454 50.7109 13.7228 49.5886 13.542C48.7751 13.414 51.2005 10.8228 50.3041 9.2636C49.8597 8.51036 50.3041 7.82491 50.628 7.04907C50.7109 6.86076 50.6582 6.92855 51.6148 6.79297Z" fill="white"/>
<path d="M48.2015 111.727C50.1599 112.292 50.529 112.262 50.4612 112.541C50.2579 113.219 49.2033 113.121 47.6742 112.827C45.6254 112.435 43.3958 111.772 40.8951 112.232C40.4883 112.307 40.5185 112.232 39.3208 112.134C39.2488 112.121 39.1745 112.133 39.1101 112.168C39.0457 112.202 38.9949 112.258 38.9661 112.325C38.9373 112.392 38.9321 112.467 38.9514 112.538C38.9706 112.609 39.0132 112.671 39.0722 112.714C39.9656 113.005 40.8796 113.229 41.8065 113.384C42.7104 113.55 43.1623 113.384 43.7423 113.686C45.3241 114.605 45.4974 114.107 46.3335 114.642C48.4727 116.006 49.4669 115.847 48.9096 116.352C48.3522 116.857 47.7345 116.714 45.3317 115.523C43.7273 114.725 41.7387 115.132 39.1325 114.484C38.447 114.311 38.0704 114.943 38.5525 115.124C42.0626 116.412 41.686 115.727 43.0719 116.744C44.0286 117.497 44.2545 117.309 45.5275 118.25C45.8514 118.491 45.422 118.732 45.1509 118.74C43.9984 118.74 41.4901 117.339 40.8348 117.339C40.1524 117.324 39.4744 117.226 38.8161 117.045C37.8444 116.812 34.3871 119.644 32.3157 120.058C30.538 120.435 28.7152 119.094 28.5495 118.446C28.5495 118.326 28.4817 118.333 29.2274 116.224C29.6341 115.072 30.1463 116.842 32.1048 115.109C32.5205 114.583 32.765 113.941 32.8053 113.271C32.8053 113.015 33.1292 112.706 33.9803 111.915C34.8315 111.125 35.5621 110.364 36.1798 109.837C39.3961 107.08 39.1927 107.848 42.5145 108.112C44.8797 108.292 44.021 108.225 49.1054 110.273C49.467 110.417 49.1054 111.155 48.4576 111.027C45.7264 109.997 42.827 109.486 39.9083 109.52C39.5242 109.52 39.2379 109.799 39.2831 109.972C39.4714 110.74 40.3678 109.482 48.2015 111.727Z" fill="#C49E91"/>
<path d="M29.4308 111.344C31.4645 111.751 32.3684 113.867 30.538 114.259C27.7134 114.078 27.6155 110.982 29.4308 111.344Z" fill="white"/>
<path d="M28.1578 76.9045C27.7371 77.5234 27.2468 78.0921 26.6965 78.5993C25.5516 79.6313 25.7625 79.7292 25.4763 79.4655C23.9698 78.0495 22.983 75.8123 19.5633 73.1157C17.4693 71.4586 17.055 72.6788 19.7215 69.5378C21.228 67.7752 20.9041 67.6999 21.3033 67.9786C22.6516 68.9126 22.9228 70.0274 24.7607 71.7448C25.8604 72.7542 25.8303 73.1534 26.5459 74.3284C27.0807 75.1645 27.9469 76.5354 28.1578 76.9045Z" fill="#C49E91"/>
<path d="M25.7482 108.79C25.7482 108.79 27.6689 110.297 27.4656 110.538C27.0216 111.055 26.7592 111.703 26.7184 112.383C26.6776 113.063 26.8606 113.738 27.2396 114.304C27.7819 115.117 27.0287 115.125 26.7349 117.166C26.7349 117.445 26.9458 117.46 23.4282 115.102C20.4755 113.129 9.54597 104.919 7.24858 102.214C2.86472 97.0623 -0.532394 93.9288 3.19615 88.9876C6.45015 84.6564 12.5815 77.4253 12.8979 77.2295C16.0012 78.3217 19.5113 83.3081 20.7768 84.438C20.9877 84.6263 21.1986 84.5435 19.662 85.9897C19.662 85.9897 16.1218 89.56 14.5475 91.639C13.5381 92.9722 12.5288 93.3564 12.7322 94.6519C12.9581 96.0831 24.7012 107.728 25.7482 108.79Z" fill="#C49E91"/>
<path d="M16.1808 73.4697C19.6909 75.1946 24.3761 81.0775 24.0974 81.3486C22.2067 83.2016 22.4327 83.1715 22.1691 82.8551C20.9338 81.4917 17.1299 77.025 15.0961 75.8198C14.4258 75.4206 14.2375 75.511 14.3881 75.3528C16.3541 73.2438 15.7665 73.8313 16.1808 73.4697Z" fill="#C49E91"/>
<path d="M104.635 74.3287C103.882 72.2045 94.3381 52.8839 94.3305 52.8688C92.5454 49.4567 91.6942 50.0517 92.0106 47.4154C92.6885 41.6531 91.7921 42.2557 92.342 38.8962C92.7955 36.3136 93.4221 33.7645 94.2176 31.2659C94.6092 29.8197 94.3607 29.089 93.3061 29.0062C92.5529 28.9384 92.0859 29.654 91.6038 30.9947C90.8882 32.9607 90.2404 35.8757 89.5927 37.3973C89.4194 37.804 89.7885 28.4638 89.7734 27.9215C89.8236 27.3578 89.714 26.7913 89.4571 26.287C89.3279 26.1353 89.1563 26.0257 88.9645 25.972C88.7726 25.9183 88.5691 25.9231 88.3799 25.9857C87.3781 26.2568 87.3028 27.3566 87.0392 29.2698C86.6324 32.328 86.542 37.4425 86.4064 36.6742C85.7888 33.2469 85.8415 32.2752 85.7888 28.3885C85.7888 27.8688 85.8491 27.1306 85.7888 26.4828C85.7135 25.5639 85.2314 25.1421 84.5987 25.2324C84.0865 25.3002 83.8078 25.5111 83.5743 26.2569C82.6101 29.2171 83.3332 36.3955 83.0018 36.1168C82.6327 35.9035 82.2412 35.7317 81.8343 35.6046C80.7346 35.0472 80.1696 34.7007 79.1829 35.1225C77.6764 35.7627 77.8948 36.2222 77.3525 38.1355C76.8102 40.0487 76.4788 40.576 76.7273 41.3895C76.8177 41.6606 76.4336 42.1427 76.6445 42.7302C78.7385 48.9143 76.9834 48.598 84.5233 51.5281C85.7436 52.0102 85.7436 52.5826 86.6174 54.8499C87.928 58.2621 88.5532 60.1903 88.8771 61.4332C89.201 62.676 90.9711 68.2124 90.9259 69.8846C90.4348 69.5406 89.9621 69.171 89.5098 68.7773C89.2763 68.5965 89.5098 68.4157 89.5927 67.5118C89.6692 67.2028 89.6701 66.88 89.5954 66.5705C89.5207 66.2611 89.3724 65.9742 89.1633 65.7342C88.5005 65.1241 87.4309 64.1373 85.4574 62.5179C79.9135 58.0135 80.4408 53.4036 73.6616 53.494C73.3603 53.494 72.7351 53.1174 72.1551 53.6447C71.9593 53.833 68.5622 53.0873 66.5058 53.2153C66.1142 53.2153 60.5477 52.9291 59.7719 51.6185C58.8981 50.1647 59.2295 47.4681 59.448 46.4362C60.043 43.6642 59.915 42.9939 60.6908 42.4817C62.0318 41.3384 63.1152 39.9239 63.8695 38.3313C63.9448 38.1581 63.9825 37.8869 64.1105 37.9547C64.3934 38.1351 64.7173 38.2413 65.0521 38.2635C65.3383 38.2635 65.3157 39.0168 66.0991 39.898C66.2196 40.0261 66.1669 40.011 65.5718 40.5458C65.3226 40.7603 65.1212 41.0247 64.9806 41.3219C64.84 41.6191 64.7633 41.9425 64.7555 42.2712C64.7477 42.5999 64.8089 42.9265 64.9353 43.2301C65.0616 43.5336 65.2502 43.8073 65.489 44.0333C66.197 44.5832 66.2874 44.666 66.1217 45.0276C65.7793 45.3901 65.5477 45.843 65.4542 46.3328C65.3608 46.8226 65.4095 47.3289 65.5944 47.792C65.7836 48.1638 66.0389 48.4982 66.3477 48.7787C66.7092 49.193 67.6056 49.2684 67.4398 48.5754C66.8749 46.1273 69.9933 46.8354 67.937 43.2575C67.0105 41.638 71.4998 42.203 69.4887 38.738C69.0141 37.9245 68.3965 37.2768 69.2627 36.9077C70.1289 36.5386 70.3775 36.5687 70.8746 36.1017C71.5902 35.4238 70.8746 34.5952 71.3416 34.6555C73.0138 34.9944 74.4224 33.7139 73.6541 32.1999C73.172 31.2358 75.8234 31.9438 75.9138 29.6314C75.9967 27.801 74.7538 27.8161 75.5673 27.4319C75.9306 27.3417 76.2722 27.18 76.5722 26.9562C76.8723 26.7325 77.1247 26.4512 77.3148 26.1288C78.3694 24.0197 76.6972 22.5208 76.2528 21.873C77.8572 20.954 78.3317 19.6811 77.8572 18.152C77.5032 16.992 76.6897 17.0146 77.0437 16.6078C77.5781 15.9297 77.8315 15.0722 77.7517 14.2125C76.6746 10.1752 74.0608 11.3126 74.4149 10.5593C74.7024 9.93458 74.7507 9.22609 74.5508 8.56807C74.3509 7.91004 73.9166 7.34819 73.3302 6.98895C72.6089 6.56139 71.7685 6.37904 70.9349 6.46922C70.7767 6.28844 71.0479 4.91754 69.5414 4.80456C68.0349 4.69157 67.9747 5.46741 67.8617 5.03053C67.5059 3.97092 66.7955 3.06642 65.8505 2.46951C65.2041 2.14972 64.4829 2.01172 63.764 2.07029C61.8659 2.11549 62.0015 2.82353 61.5796 2.40172C59.8246 0.586409 58.2277 2.72561 58.062 2.31133C57.5046 0.917835 53.4371 -0.483193 51.2828 2.80847C51.1548 3.00431 51.0795 3.1173 50.959 2.98925C50.5856 2.69483 50.1425 2.50196 49.6727 2.42937C49.2028 2.35678 48.7222 2.40693 48.2774 2.57496C44.5865 4.08145 46.6052 6.55961 45.8444 6.10013C45.0837 5.64065 44.5564 5.13598 43.7278 5.5578C41.6037 6.63493 42.5678 8.20167 41.9728 7.98323C40.8881 7.57648 39.8562 9.00764 40.165 10.13C40.6471 11.885 40.6471 11.0414 39.2837 11.2523C38.8538 11.3084 38.4606 11.5237 38.1817 11.8556C37.9028 12.1875 37.7585 12.6119 37.7772 13.045C37.8375 14.1598 38.3723 14.2954 37.9957 14.3406C37.6314 14.4352 37.2906 14.6042 36.9949 14.837C36.6991 15.0698 36.4547 15.3613 36.2771 15.6931C36.0995 16.025 35.9925 16.39 35.9629 16.7652C35.9333 17.1404 35.9817 17.5177 36.105 17.8733C36.5193 19.0559 37.491 18.9203 37.1294 19.199C36.9374 19.3162 36.78 19.4824 36.6735 19.6807C36.5671 19.8789 36.5154 20.1019 36.5239 20.3268C36.5323 20.5516 36.6006 20.7701 36.7216 20.9598C36.8426 21.1495 37.012 21.3035 37.2123 21.406C37.3253 21.4813 37.3253 21.5265 37.2123 21.6094C36.9116 21.8832 36.6905 22.2331 36.5721 22.6222C36.4537 23.0113 36.4425 23.4251 36.5397 23.82C36.6369 24.2149 36.8388 24.5762 37.1242 24.8659C37.4097 25.1556 37.768 25.3629 38.1614 25.4659C38.4552 25.5337 38.1011 25.5488 37.9806 26.5807C37.9502 26.8235 37.9686 27.0699 38.0347 27.3055C38.1008 27.541 38.2133 27.761 38.3655 27.9526C38.5178 28.1441 38.7067 28.3033 38.9213 28.4208C39.1359 28.5384 39.3718 28.6119 39.6151 28.6371C40.1951 28.6748 38.312 30.7085 40.8731 32.4636C41.8071 33.1038 40.6395 33.5407 40.4738 34.6329C40.2629 35.9661 40.8429 36.2147 41.7543 36.9378C42.2138 37.2994 41.7543 37.2994 41.0011 37.9622C40.7304 38.1662 40.5504 38.4681 40.4997 38.8032C40.449 39.1384 40.5316 39.48 40.7299 39.7549C40.9745 40.0885 41.2466 40.4009 41.5434 40.6889C42.0858 41.3217 41.8071 41.7811 41.5434 42.6172C41.4079 43.1068 41.8146 43.4157 42.1611 43.2349C43.9538 42.3159 45.0234 41.1786 43.8107 39.5741C43.4567 39.0996 44.2476 39.3256 44.6844 37.9245C44.6844 37.8869 44.7447 37.8116 44.7899 37.9245C46.3792 41.3593 47.5468 42.218 47.5392 43.6115C47.5392 45.1783 46.5826 50.3907 45.3925 51.6486C44.338 52.7634 42.4925 53.1099 38.3045 54.0816C37.5513 54.2548 37.7697 53.6296 36.6248 53.9987C34.7492 54.5938 34.7266 54.7519 34.478 54.5938C34.2295 54.4356 34.0412 54.4808 32.8812 54.9327C32.4217 55.1135 32.8812 55.1738 32.1279 55.5052C30.983 56.0099 30.3653 56.1605 29.6347 57.4636C28.9041 58.7667 28.4446 56.7104 20.8369 64.996C19.7898 66.1259 19.2626 66.3895 19.3304 67.1729C19.4057 68.1069 19.8727 68.2651 19.4358 68.6794C17.7862 70.1331 8.73227 80.6032 7.38397 82.313C-0.517522 92.1052 -2.3479 92.7153 7.01489 103.449C8.63435 105.309 24.0532 117.429 26.4259 118.152C26.8402 118.28 26.4862 118.747 27.4352 119.169C28.068 119.448 27.8495 119.071 28.648 119.824C30.2298 121.331 30.7646 120.796 30.6214 121.173C30.0189 122.762 28.0077 127.786 28.196 129.285C28.4446 131.244 27.7215 131.899 27.4428 133.285C27.0662 134.934 27.3223 135.74 27.021 137.352C26.7573 138.723 26.5539 137.993 25.9438 141.924C25.8158 142.768 26.6971 142.904 26.8176 142.346C26.9151 141.326 27.1068 140.318 27.39 139.333C27.8896 138.141 28.1457 136.86 28.1433 135.567C28.4446 131.424 29.3861 132.283 29.115 129.496C28.9794 128.072 29.356 127.643 31.4274 121.308C31.5404 120.962 31.7588 121.173 32.3539 121.045C35.2539 120.419 37.9128 117.783 38.5606 117.911C43.1855 118.875 39.4344 117.745 44.0216 119.523C45.739 120.194 46.2813 119.026 46.7634 119.101C46.7634 119.101 53.2865 119.975 53.7384 119.636C54.0322 119.418 53.9267 119.772 55.7872 119.93C56.6911 120.013 57.1506 120.276 58.0469 120.352C58.9433 120.427 60.4121 120.088 60.7963 120.171C61.819 120.277 62.8517 120.234 63.862 120.043C64.9546 120.142 66.0553 120.104 67.1386 119.93C68.1328 119.719 67.6884 119.41 68.2684 119.418C68.7128 119.418 71.6806 119.079 71.7032 119.079C74.0631 118.731 76.3755 118.114 78.5954 117.241C78.8364 117.241 79.0473 117.565 79.3486 117.67C79.7763 117.887 80.1147 118.247 80.3052 118.687C80.7873 119.342 80.5613 119.915 80.8023 121.075C80.9653 122.071 81.0409 123.079 81.0283 124.088C81.2091 125.594 81.4501 125.082 82.9416 128.276C83.2956 129.029 82.6403 127.666 85.2013 133.948C86.9563 138.279 84.3426 133.292 88.7942 142.843C89.0202 143.326 89.1633 144.116 89.7508 143.928C90.7978 143.604 87.4911 139.002 86.7755 135.748C86.06 132.494 84.9753 132.283 85.9168 132.23C86.4267 132.221 86.9279 132.097 87.384 131.869C87.84 131.641 88.2395 131.314 88.5532 130.912C90.0597 128.464 90.8581 127.899 90.9033 123.109C90.9033 120.638 90.7376 117.512 90.9033 116.465C91.2347 114.424 90.1501 113.964 90.3158 113.324C90.489 112.458 90.4438 112.571 90.022 111.637C89.1407 109.641 88.2519 104.21 85.6155 102.651C83.2353 101.242 83.2052 100.941 82.354 100.85C81.179 100.722 80.5312 100.368 78.9418 100.617C78.3844 100.7 78.1886 100.752 78.0229 100.617C77.1567 99.8635 77.1567 99.7807 77.1265 99.4718C76.9458 97.4381 75.7481 95.1859 75.6728 94.3724C75.6087 92.39 75.6615 90.4055 75.831 88.4293C76.1549 83.8572 75.5673 84.2187 75.9891 80.7538C76.1774 79.2473 76.3808 78.3886 76.6369 76.2344C76.6369 76.0837 76.4561 75.8653 78.5351 77.7409C80.0416 79.0741 81.5481 81.5071 82.6704 80.3471C82.7909 80.2265 82.8813 80.2567 82.9943 80.3471C83.9961 81.251 84.5685 81.62 85.6155 82.5164C89.2914 85.6499 95.1139 91.9394 99.9271 91.5101C106.021 90.9753 105.953 87.0434 105.953 80.9647C105.981 78.685 105.532 76.4245 104.635 74.3287ZM87.3103 36.1168C87.3103 36.0038 87.5212 29.6615 88.0636 27.5524C88.1841 27.1155 88.1841 26.8444 88.5457 26.7239C89.668 26.3397 88.2142 31.8986 88.7038 38.7757C88.7038 38.9791 88.8093 38.9941 87.1522 38.3991C87.0241 38.3238 87.0693 38.3087 87.3254 36.1168H87.3103ZM44.112 32.2602C43.5094 35.3635 44.6995 36.4859 43.8709 38.0149C43.6191 38.2861 43.3472 38.5379 43.0575 38.7682C42.3494 39.5666 43.66 40.0788 43.5847 40.93C43.4219 41.4684 43.0684 41.929 42.5904 42.2256C42.5674 42.2432 42.5393 42.2529 42.5103 42.2534C42.4813 42.2538 42.4529 42.245 42.4293 42.2281C42.4058 42.2113 42.3882 42.1873 42.3792 42.1597C42.3702 42.1321 42.3704 42.1024 42.3795 42.0749C42.7863 40.6889 42.3795 40.5006 41.551 39.5817C40.8505 38.8284 41.438 38.4142 42.4323 37.6157C43.0951 37.0885 42.7185 36.7043 42.3193 36.3955C40.519 35.002 41.0162 35.002 41.8372 33.4277C42.2063 32.7197 42.0255 32.441 41.6941 32.1095C41.3627 31.7781 40.6019 31.2659 40.3985 30.6784C40.289 30.3382 40.2586 29.9775 40.3095 29.6238C40.3604 29.2701 40.4913 28.9326 40.6923 28.6371C41.4455 27.6428 39.7055 28.3584 38.9674 27.3792C38.3497 26.5581 39.1632 25.8049 39.4042 25.6015C39.8863 25.1948 39.7206 24.7956 39.3289 24.8106C37.1219 24.8935 36.6926 23.1083 38.1539 21.7977C38.6133 21.3984 38.8318 21.0972 38.1539 20.8109C36.8056 20.2686 37.4006 19.907 38.1539 19.3873C38.7564 19.0107 38.9071 18.6341 37.9957 18.3328C36.3009 17.798 36.4892 16.2915 37.604 15.4478C38.7188 14.6042 39.1105 15.606 39.6829 15.3273C40.1047 15.124 39.7281 14.3933 39.4494 14.1899C37.9429 13.0676 38.892 12.2315 39.3666 12.2089C40.3684 12.1487 40.3081 12.2842 40.8203 12.1562C42.2063 11.8172 41.0538 10.7401 40.9634 9.8362C40.9182 9.42192 41.1292 8.60089 41.7167 8.7666C42.1234 8.87206 43.0725 9.30894 42.9294 8.46531C42.8679 8.23828 42.852 8.00136 42.8824 7.76814C42.9128 7.53492 42.9889 7.31001 43.1065 7.10632C43.2241 6.90264 43.3808 6.7242 43.5676 6.58125C43.7543 6.43831 43.9675 6.33368 44.1948 6.27338C44.6468 6.17546 44.6468 6.42402 45.3473 6.89103C46.0478 7.35804 46.7559 7.07934 46.7709 6.59727C46.7709 5.52767 46.3566 4.33755 48.541 3.3508C48.9234 3.23236 49.3313 3.2232 49.7187 3.32435C50.106 3.42551 50.4573 3.63296 50.733 3.92326C51.0418 4.26222 51.2226 4.53339 51.5465 4.02119C51.7916 3.36602 52.2046 2.78677 52.7441 2.34146C53.1283 2.01464 53.5805 1.77748 54.0678 1.64719C54.555 1.5169 55.0652 1.49676 55.5613 1.58822C56.0263 1.6486 56.461 1.85216 56.8052 2.17067C57.1493 2.48919 57.3859 2.90689 57.482 3.36587C57.5498 3.6295 57.482 3.84794 57.821 3.93833C58.0469 3.99859 58.2804 3.65963 58.3181 3.58431C58.4735 3.27637 58.7084 3.01554 58.9984 2.82882C59.2884 2.64209 59.6231 2.53625 59.9677 2.52224C61.2708 2.69548 61.1428 3.84794 61.3461 4.02872C62.0241 4.66144 61.6173 2.47704 64.6227 2.95158C65.1273 3.05692 65.5947 3.29448 65.9772 3.63994C66.3598 3.98539 66.6436 4.42631 66.7996 4.91754C67.1913 5.79883 66.664 5.76117 66.9352 6.42402C67.116 6.8835 67.4549 6.72532 67.8014 6.35623C68.8484 5.21131 70.2419 5.43728 69.9707 6.40143C69.8078 6.73285 69.7154 7.09451 69.6996 7.4635C69.703 7.53782 69.7276 7.60963 69.7703 7.67051C69.8131 7.7314 69.8723 7.77884 69.9411 7.80729C70.0098 7.83574 70.0853 7.84402 70.1586 7.83115C70.2318 7.81829 70.2999 7.78482 70.3549 7.73466C71.3115 6.69519 74.4073 7.62168 73.7369 9.93413C73.5486 10.597 73.3151 11.0941 73.7821 11.2975C75.0551 11.8474 75.492 11.8926 76.2678 12.9019C76.6248 13.3163 76.8322 13.8386 76.8568 14.3849C76.8813 14.9313 76.7217 15.4701 76.4034 15.9149C76.3055 16.058 75.7632 16.3894 75.5598 16.6681C75.5179 16.7257 75.4912 16.7929 75.4823 16.8636C75.4734 16.9343 75.4826 17.006 75.5089 17.0722C75.5352 17.1384 75.5779 17.1968 75.6329 17.242C75.6879 17.2873 75.7534 17.3179 75.8234 17.3309C76.8403 17.4515 77.7818 19.1387 76.6369 20.4644C76.0117 21.2177 75.7933 20.954 75.4995 21.4813C74.9346 22.4605 77.1793 23.4925 76.7876 25.1722C76.5089 26.3849 75.5297 26.513 74.9195 26.9122C74.3094 27.3114 74.2115 27.6654 74.8216 28.509C75.0381 28.7543 75.1656 29.0655 75.1833 29.3922C75.2011 29.7188 75.1082 30.042 74.9195 30.3093C74.091 31.2207 72.8557 30.6859 72.8255 31.6199C72.7879 32.8025 73.3754 33.2319 72.4941 33.7139C71.6128 34.196 70.5959 33.375 70.2344 33.7742C69.8728 34.1734 70.2344 34.4144 70.3323 34.8664C70.5884 35.7552 69.9632 35.4991 68.63 36.2298C67.9822 36.5913 67.696 37.5178 68.3739 38.61C69.4661 40.3801 69.5263 40.4856 68.065 41.4121C65.4739 43.0692 68.7279 44.3723 67.696 45.7055C66.664 47.0388 66.7092 47.6489 66.7619 47.9653C66.8147 48.2816 66.5209 48.3117 66.3025 47.8447C66.1089 47.5484 66.0167 47.1973 66.0398 46.8442C66.0629 46.491 66.2 46.1549 66.4305 45.8863C66.5886 45.7044 66.7049 45.4902 66.7713 45.2585C66.8376 45.0269 66.8524 44.7835 66.8147 44.5455C66.7695 44.1764 66.3025 43.7923 65.7903 43.4232C65.5803 43.2069 65.4509 42.9252 65.4235 42.625C65.396 42.3249 65.4723 42.0244 65.6396 41.7736C66.3025 40.7567 66.664 40.9074 66.8222 40.2671C66.9502 39.7549 66.31 39.2503 65.9409 38.4142C65.843 38.2635 69.1648 35.2053 69.4058 32.5464C69.4813 32.163 69.4511 31.7663 69.3184 31.3988C69.1857 31.0312 68.9556 30.7067 68.6526 30.4599C68.517 30.3771 68.4417 30.3319 68.4793 30.0908C70.3926 17.3987 71.0178 13.8886 71.2136 12.9546C71.3115 12.465 71.2136 12.2692 70.9123 12.1487C70.611 12.0281 70.3474 12.2089 70.3097 11.757C70.0687 9.24114 66.8825 7.90038 64.3591 7.90038C63.6845 7.81354 62.999 7.9204 62.3828 8.20849C61.7666 8.49658 61.2451 8.95401 60.8791 9.52738C60.7209 9.84374 60.6983 10.032 60.495 9.82114C60.1278 9.44946 59.674 9.17498 59.1743 9.02244C58.6746 8.86991 58.1448 8.84411 57.6327 8.94738C56.2919 9.12816 56.2467 9.70062 56.194 9.22608C55.7797 5.31676 48.6616 4.94767 46.6127 8.15648C46.3416 8.58582 46.6127 8.90972 45.9424 8.96998C44.7598 9.03024 45.2795 9.37673 44.8878 23.2062C44.6769 31.6501 45.0385 27.2888 44.112 32.2602ZM66.4305 27.447C65.5492 26.9423 66.6264 26.2192 66.8373 25.6844C67.3269 24.4491 64.9843 25.2852 64.924 24.0951C64.8336 22.4681 66.8599 23.2439 66.4305 21.1725C66.2874 20.5021 65.7149 20.5021 64.7433 20.2761C64.3139 20.1782 64.103 19.8317 63.8695 19.5229C63.41 18.86 64.6227 17.5569 64.0427 17.1502C63.4627 16.7434 62.604 18.5738 61.6625 17.9938C61.2708 17.7603 60.7586 17.5193 60.9093 17.0824C61.2181 16.0881 60.5778 15.8772 60.1033 16.3291C59.9686 16.4399 59.8073 16.5132 59.6353 16.5419C59.4634 16.5706 59.2869 16.5535 59.1236 16.4925C58.9603 16.4315 58.816 16.3286 58.705 16.1941C58.594 16.0597 58.5204 15.8984 58.4914 15.7265C58.3332 14.8151 57.7381 15.0336 57.5498 15.5458C57.2711 16.4572 56.3296 17.331 55.6064 17.0523C55.3621 16.9893 55.1375 16.8659 54.9532 16.6935C54.769 16.5211 54.631 16.3051 54.5519 16.0655C54.5072 15.9829 54.4398 15.9149 54.3576 15.8696C54.2753 15.8243 54.1818 15.8036 54.0881 15.8099C53.9944 15.8163 53.9046 15.8494 53.8292 15.9054C53.7539 15.9614 53.6962 16.0379 53.6631 16.1258C53.2262 17.0071 53.1132 16.879 52.3826 16.9317C51.78 16.9769 51.441 16.5777 51.1096 16.0881C51.0626 15.997 50.987 15.924 50.8943 15.8801C50.8017 15.8363 50.6972 15.8242 50.597 15.8456C50.4968 15.867 50.4064 15.9208 50.3398 15.9986C50.2732 16.0765 50.234 16.1741 50.2283 16.2764C50.3623 16.7506 50.3419 17.2552 50.1699 17.7171C49.9979 18.1789 49.6833 18.5739 49.2717 18.845C48.7156 19.1471 48.0965 19.3148 47.4639 19.3346C46.5977 19.44 46.6429 18.7772 46.0855 19.3722C45.9951 19.4777 46.0855 19.4174 45.8896 19.5379C45.8444 19.2743 45.8369 10.4463 46.1005 10.4539C46.3642 10.4614 45.8896 11.1242 46.8538 12.6232C49.1135 16.0128 53.9493 14.6419 55.388 12.111C55.9755 11.0715 56.2467 10.3258 57.241 10.0094C57.7057 9.84557 58.2092 9.82622 58.6851 9.95395C59.1611 10.0817 59.5872 10.3505 59.9074 10.725C60.1616 11.2487 60.3707 11.793 60.5326 12.352C61.3386 15.9299 65.9334 18.378 69.0066 15.5382C69.677 14.9206 70.0235 13.9112 70.0159 14.2201C70.0159 14.672 69.2627 17.9863 67.6056 29.6615C67.6056 29.8347 67.5227 29.9176 67.3419 29.9327C67.1612 29.9477 66.8523 30.0457 66.5887 29.8724C66.4978 29.8227 66.4182 29.7548 66.3548 29.673C66.2914 29.5911 66.2455 29.4971 66.2201 29.3967C66.1946 29.2963 66.1901 29.1918 66.2069 29.0896C66.2237 28.9874 66.2613 28.8898 66.3175 28.8028C66.6791 28.2529 67.5227 28.0797 66.4305 27.447ZM50.3112 9.28634C49.8668 8.5331 50.3112 7.84765 50.6351 7.07181C50.7179 6.8609 50.6351 6.92869 51.6218 6.81571C52.7291 6.94376 51.9005 6.81571 51.667 8.32219C51.2753 10.8229 52.8797 9.07543 50.8686 13.5196C50.7556 13.7681 50.7179 13.7455 49.5956 13.5647C48.8047 13.4367 51.2 10.8455 50.3112 9.28634ZM65.6999 8.83439C66.4531 9.01517 66.6941 8.99258 66.7996 10.4011C66.8975 11.6289 65.7903 11.5611 66.0012 13.0902C66.4004 15.8847 66.7092 15.8697 66.0916 15.8395C64.7809 15.7567 65.0521 16.1182 64.5851 13.5798C64.4892 13.2969 64.4591 12.9959 64.4969 12.6997C64.5348 12.4034 64.6396 12.1196 64.8035 11.87C66.1292 9.80607 64.3742 8.54063 65.6923 8.83439H65.6999ZM46.2437 38.964C43.66 34.4973 45.272 32.0719 45.5883 29.0589C45.7541 27.5524 45.513 25.7145 45.6637 23.7862C45.7465 22.7091 45.7465 21.2629 46.1533 20.4343C46.2512 20.246 46.3416 20.0878 46.4998 20.0652C47.027 20.005 47.253 20.2912 48.2021 20.1104C49.0599 20.0332 49.8616 19.651 50.4618 19.0333C51.4109 17.8808 51.0117 17.4138 51.3883 17.5946C51.8167 17.8263 52.3073 17.9168 52.7902 17.8532C53.2731 17.7896 53.7235 17.5752 54.0774 17.2406C54.4088 16.9619 54.1753 17.5042 55.4106 17.9411C56.2994 18.2499 57.4218 17.5343 57.9038 16.8715C58.175 16.4798 58.2503 17.6699 59.7116 17.4515C60.382 17.3535 59.93 18.6567 61.8809 19.0107C62.2272 19.0143 62.5705 18.9477 62.8903 18.8148C63.3422 18.6265 62.3705 19.6811 63.9975 20.9088C64.4251 21.1408 64.8929 21.289 65.376 21.3457C65.6622 21.406 65.8279 21.7148 65.4739 21.9558C63.3347 23.3945 63.9674 25.4885 65.3458 25.722C65.5492 25.722 65.7601 25.7748 65.6321 25.9254C65.3975 26.2298 65.2703 26.6032 65.2703 26.9875C65.2703 27.3717 65.3975 27.7452 65.6321 28.0496C65.9258 28.3584 65.4212 28.4111 65.4814 29.556C65.5342 30.4599 66.2347 30.3846 65.8806 30.7914C65.6396 31.0851 65.8806 31.5973 66.2121 31.4241C66.4456 31.3111 67.0105 30.4524 67.9144 30.8667C68.8183 31.281 68.7505 32.4485 68.4191 33.3599C67.8863 34.6828 67.121 35.8997 66.1593 36.9529C65.9356 37.2294 65.6156 37.411 65.2635 37.4613C64.9114 37.5116 64.5534 37.4268 64.2612 37.224C64.103 37.1336 63.8846 37.1336 63.6736 37.4048C62.6794 38.6703 62.3479 41.0505 57.708 43.6868C55.6742 44.8393 53.1885 45.6603 51.0493 44.6661C48.654 43.4684 47.4639 41.0731 46.2361 38.9565L46.2437 38.964ZM39.9541 54.5335C46.0855 52.9366 46.319 53.027 47.4865 48.5904C47.9626 46.9975 48.2706 45.359 48.4055 43.7019C49.0005 44.071 51.1247 46.3006 53.8514 45.8863C57.0075 45.3967 58.5516 43.9731 59.1241 43.7697C59.1768 44.4702 57.8511 48.1686 58.6947 51.3021C59.6212 54.7444 68.4492 53.7577 71.6128 54.5034C69.692 56.5899 68.5019 57.0719 66.0991 58.5633C64.3802 59.8641 62.4065 60.788 60.3067 61.275C58.886 61.7009 57.4191 61.9538 55.9379 62.0283C54.7703 62.0283 54.808 62.0283 54.808 62.0283C50.0304 61.9378 45.3944 60.3899 41.5208 57.5917C37.9354 54.2473 38.1463 55.0005 39.9541 54.5335ZM24.5955 62.3521C29.5217 57.6143 29.3937 59.5953 30.6214 57.5691C31.2014 56.6275 31.5027 56.8158 32.8058 56.2358C34.3123 55.6182 54.7327 85.9436 64.2386 93.7171C70.0913 98.5077 77.2922 103.351 77.3148 103.396C77.586 104.149 77.812 105.596 77.0889 105.859C76.0042 106.259 75.2886 105.581 73.9403 105.385C72.592 105.189 70.0687 108.398 65.8204 107.999C65.6848 107.999 65.2027 107.999 65.2027 107.999C63.5381 107.69 63.2292 107.388 62.1898 107.999C61.848 108.313 61.3962 108.481 60.9319 108.466C59.7555 108.617 58.5622 108.371 57.5423 107.765C56.0358 106.944 53.6706 108.518 50.861 108.473C50.1098 108.361 49.4009 108.055 48.8047 107.584C47.5166 106.793 46.6353 108.413 44.707 107.682C43.6676 107.283 42.1159 107.479 40.7149 107.215C40.1466 107.118 39.5658 107.118 38.9975 107.215C38.5229 107.419 38.8393 106.884 37.8224 106.462C37.491 106.326 36.3159 106.289 35.7435 105.822C35.0505 105.257 36.2105 104.82 36.3687 103.75C36.3829 103.248 36.4902 102.752 36.685 102.289C37.6642 100.654 37.6417 100.308 37.6868 99.6376C37.5975 98.8052 37.6717 97.9633 37.9053 97.1594C38.3572 96.3082 37.25 93.1446 37.0541 92.5646C35.4723 87.9322 36.0071 90.5685 35.2765 85.8457C34.704 82.1322 34.1767 82.1322 34.1315 80.1814C34.0864 78.2305 34.6362 78.1777 34.1315 76.9424C33.9643 76.6683 33.7645 76.4154 33.5365 76.1892C33.3037 75.9242 33.1661 75.5891 33.1457 75.2369C33.1252 74.8848 33.223 74.536 33.4235 74.2458C34.2765 72.8279 34.7512 71.2146 34.8019 69.5607C34.9902 68.2726 35.0957 66.962 34.5835 66.9846C33.7022 66.9846 34.5157 69.5531 33.4988 72.3251C32.9942 73.711 31.8794 74.4944 31.0131 75.338C28.6555 77.5977 29.6799 77.8011 28.2864 75.4585C26.2828 72.0915 26.4184 72.1518 25.5069 71.2103C23.9251 69.5682 24.3168 70.1482 23.5636 69.0937C22.8157 68.0252 21.8174 67.1563 20.6561 66.5628C20.513 66.495 23.4129 63.4971 24.5955 62.3521ZM37.7471 107.547C37.1902 108.034 36.5844 108.464 35.9393 108.827C35.2539 108.669 34.9451 108.398 35.0957 107.75C35.2087 107.26 35.4648 106.808 35.9393 106.997C36.9336 107.283 37.1897 107.042 37.7471 107.539V107.547ZM19.7221 69.5381C21.2285 67.7755 20.9046 67.7002 21.3039 67.9789C22.6522 68.9129 22.9233 70.0277 24.7612 71.7451C25.861 72.7544 25.8308 73.1536 26.5464 74.3287C27.0812 75.2024 27.9474 76.5884 28.1583 76.9424C27.7376 77.5613 27.2473 78.13 26.6971 78.6372C25.5521 79.6691 25.763 79.7671 25.4768 79.5034C23.9703 78.0873 22.9836 75.8502 19.5639 73.1536C17.4699 71.4588 17.0556 72.6791 19.7221 69.5381ZM14.3891 75.3757C16.3551 73.244 15.7675 73.824 16.1818 73.47C19.6919 75.1949 24.3771 81.0777 24.0984 81.3489C22.2078 83.2094 22.4337 83.1717 22.1701 82.8554C20.9348 81.492 17.1309 77.0253 15.0972 75.8201C14.4268 75.4435 14.2385 75.5339 14.3891 75.3757ZM27.4654 110.537C27.0214 111.054 26.759 111.702 26.7182 112.382C26.6774 113.062 26.8604 113.737 27.2394 114.303C27.7817 115.117 27.0285 115.124 26.7347 117.165C26.7347 117.444 26.9456 117.459 23.428 115.102C20.4753 113.128 9.54578 104.918 7.24839 102.214C2.86453 97.0615 -0.532585 93.928 3.19596 88.9867C6.44996 84.6556 12.5813 77.4245 12.8977 77.2287C16.001 78.3209 19.5112 83.3073 20.7766 84.4372C20.9875 84.6255 21.1984 84.5426 19.6618 85.9888C19.6618 85.9888 16.1216 89.5592 14.5473 91.6381C13.538 92.9714 12.5286 93.3555 12.732 94.6511C13.0667 95.4037 13.5511 96.0802 14.1556 96.6397C15.8956 98.6659 19.1496 102.274 25.763 108.789C25.763 108.805 27.6687 110.303 27.4654 110.537ZM18.5319 100.323C14.487 95.1181 12.6115 95.088 14.1255 93.3631C19.1119 87.6836 18.321 88.7758 24.4223 82.2904C26.4485 80.1286 27.3147 79.1569 27.7742 78.7351C28.2337 78.3133 28.2864 78.4866 28.8061 78.5544C29.4765 78.6372 29.9209 77.3642 32.3464 75.3456C32.4217 75.2853 32.4744 75.2552 32.4669 75.3456C32.3991 76.7842 33.5139 76.852 33.5139 77.9593C33.1642 79.4936 33.2187 81.0924 33.6721 82.5993C34.591 85.439 34.5835 88.4067 35.1786 89.9584C38.2518 98.4851 36.783 94.9825 36.8884 98.9973C36.8884 100.074 36.8884 100.112 35.9469 101.747C35.4573 102.59 35.7586 103.426 35.3066 104.006C34.7341 104.699 34.4027 105.287 34.8095 106.063C35.1032 106.62 34.0562 106.816 34.3274 108.322C34.5232 109.452 35.5326 109.113 35.0204 109.784C34.8471 110.01 34.463 110.341 33.77 111.042C33.4389 111.392 33.0867 111.721 32.7155 112.028C32.482 112.209 32.4142 112.028 32.2033 111.72C31.8047 111.075 31.2071 110.578 30.5009 110.303C28.9191 109.595 28.6781 110.303 28.3241 109.934C27.97 109.565 18.773 100.624 18.5319 100.323ZM29.4313 111.343C31.4651 111.75 32.369 113.866 30.5386 114.258C27.7139 114.077 27.616 110.981 29.4313 111.343ZM45.1364 118.762C43.9839 118.808 41.4756 117.361 40.8203 117.361C40.1379 117.347 39.4599 117.248 38.8016 117.068C37.83 116.834 34.3726 119.666 32.3012 120.081C30.5235 120.457 28.7007 119.116 28.535 118.469C28.535 118.348 28.4672 118.356 29.2129 116.247C29.6196 115.094 30.1318 116.864 32.0903 115.132C32.5061 114.605 32.7505 113.964 32.7908 113.294C32.7908 113.038 33.1147 112.729 33.9658 111.938C34.817 111.147 35.5476 110.386 36.1653 109.859C39.3816 107.102 39.1783 107.87 42.5 108.134C44.8803 108.315 44.0894 108.27 49.0909 110.296C49.4525 110.439 49.0909 111.177 48.4431 111.049C45.7119 110.02 42.8125 109.509 39.8938 109.543C39.5097 109.543 39.2235 109.821 39.2686 109.995C39.4645 110.748 40.3609 109.505 48.1946 111.75C50.153 112.315 50.5221 112.284 50.4543 112.563C50.2509 113.241 49.1964 113.143 47.6673 112.849C45.6185 112.458 43.3889 111.795 40.8881 112.254C40.4814 112.33 40.5115 112.254 39.3138 112.156C39.2418 112.144 39.1675 112.155 39.1031 112.19C39.0387 112.225 38.988 112.28 38.9592 112.348C38.9303 112.415 38.9251 112.49 38.9444 112.561C38.9637 112.631 39.0063 112.693 39.0653 112.736C39.9587 113.028 40.8727 113.252 41.7995 113.407C42.7034 113.573 43.1554 113.407 43.7354 113.708C45.3172 114.627 45.4904 114.13 46.3265 114.665C48.4657 116.028 49.46 115.87 48.9026 116.375C48.3452 116.879 47.7275 116.736 45.3247 115.546C43.7203 114.748 41.7317 115.154 39.1255 114.507C38.4401 114.333 38.0635 114.966 38.5455 115.147C42.0556 116.435 41.679 115.749 43.065 116.766C44.0216 117.52 44.2476 117.331 45.5205 118.273C45.8369 118.514 45.4076 118.755 45.1364 118.762ZM52.2847 111.983C52.1265 113.369 51.4561 116.593 51.8252 118.431C51.8704 118.649 51.7574 118.574 51.4561 118.574C50.5304 118.525 49.6078 118.429 48.6917 118.288C47.592 118.122 46.9969 118.461 46.3265 117.881C44.82 116.593 43.7052 116.375 43.3587 115.892C44.8652 115.817 45.965 117.015 47.5844 117.301C48.654 117.497 49.7161 117.301 50.0927 116.292C50.4693 115.282 47.961 114.785 46.5751 113.814C46.0629 113.599 45.5267 113.447 44.9782 113.362C44.7824 113.301 44.0969 112.955 44.3003 112.94C44.6515 112.955 45 113.008 45.3398 113.098C46.1759 113.316 47.8556 113.603 49.2943 113.851C50.0023 113.957 51.1021 113.686 51.2527 112.676C51.4034 111.667 50.4543 111.509 49.4826 111.268C49.7914 111.117 49.7914 110.65 49.9873 110.68C50.1831 110.71 50.8836 110.989 51.6218 111.094C51.8246 111.125 52.0223 111.183 52.2093 111.268C52.4052 111.35 52.3374 111.494 52.2847 112.006V111.983ZM53.0379 118.762C52.9098 118.762 52.6537 118.71 52.6311 118.582C52.4127 117.135 52.1943 117.444 52.9927 111.599C52.9927 111.366 53.0831 111.305 54.0322 111.381C53.1057 115.546 53.6028 117.881 53.407 118.582C53.3693 118.77 53.2036 118.777 53.0454 118.77L53.0379 118.762ZM60.2615 119.131C58.755 119.327 58.2051 119.501 57.2033 119.207C55.4784 118.687 54.1904 119.124 54.1904 118.393C54.125 116.212 54.2942 114.03 54.695 111.885C54.7196 111.747 54.7918 111.621 54.8991 111.531C55.0064 111.44 55.142 111.389 55.2826 111.388H56.2994C56.9698 111.388 56.9999 111.946 57.934 111.802C58.5893 111.704 59.2446 111.659 59.8999 111.614C60.3067 111.614 60.2313 111.546 60.382 112.842C60.1033 112.857 60.3895 119.124 60.269 119.139L60.2615 119.131ZM62.1973 119.222C61.2783 119.222 61.2482 119.222 61.188 119.101C60.9093 118.476 61.188 112.397 60.9921 111.757C60.9017 111.471 61.075 111.539 61.9638 111.539C62.0542 112.488 62.363 119.229 62.2048 119.229L62.1973 119.222ZM67.3947 118.679C67.2961 118.814 67.1557 118.912 66.9954 118.958C66.4158 119.065 65.8293 119.131 65.2404 119.154C63.5381 119.071 63.0937 119.305 63.0711 118.619C62.7773 108.933 62.0015 112.224 64.9391 111.215C65.3738 110.955 65.8831 110.849 66.3853 110.914C67.2139 110.914 67.2289 110.801 67.3043 111.396C67.4618 113.823 67.4945 116.257 67.4022 118.687L67.3947 118.679ZM68.3814 118.454C67.9822 118.454 68.178 118.408 68.1931 117.414C68.1931 116.721 68.2533 114.665 68.2684 114.333C68.3814 110.567 67.2365 110.718 68.5998 110.703C68.6256 110.708 68.6495 110.719 68.6693 110.737C68.6892 110.754 68.7041 110.776 68.7128 110.801C68.9285 111.534 69.0276 112.296 69.0066 113.06C68.9139 114.755 68.9416 116.454 69.0895 118.145C69.1422 118.438 68.9162 118.491 68.3889 118.461L68.3814 118.454ZM69.9933 118.19C69.6544 117.911 69.903 112.789 69.7448 111.878C69.4133 109.927 68.4266 110.725 72.8029 109.972C77.3224 109.219 77.5257 108.353 77.6086 110.145C77.6086 110.349 77.9024 114.778 78.1961 116.171C78.3393 116.766 70.4829 118.589 70.0009 118.197L69.9933 118.19ZM89.3968 112.631C89.314 113.301 89.2612 113.46 88.975 113.588C88.2408 113.863 87.5217 114.178 86.8207 114.529C85.5402 115.373 84.6439 115.358 83.4538 115.742C80.6969 116.646 79.9738 115.9 79.9813 116.585C79.9751 116.69 80.0103 116.793 80.0792 116.872C80.2449 117.037 80.6291 116.977 81.1639 116.977C81.8527 117.014 82.5418 116.911 83.1901 116.676C85.5176 115.923 85.6607 116.231 87.4459 115.169C87.8225 114.936 89.216 114.416 89.2838 114.371C90.2631 113.949 89.8262 116.97 89.8337 117.339C89.909 126.295 90.3911 126.069 87.7397 130.234C87.4536 130.61 87.0749 130.906 86.6406 131.092C86.2063 131.278 85.7312 131.348 85.2615 131.296C85.1109 131.296 85.0582 131.424 84.207 129.037C82.7005 124.909 81.7816 125.496 81.8042 122.86C81.8042 121.73 81.5405 120.992 81.4275 119.523C81.3882 118.89 81.1697 118.282 80.7977 117.768C80.4256 117.255 79.9152 116.858 79.326 116.623C78.9795 116.442 79.1527 116.239 78.972 115.689C78.874 115.395 79.1377 115.554 79.4013 115.576C80.2148 115.644 82.1205 115.651 82.7834 115.282C83.8982 114.65 84.9904 114.74 87.0166 113.64C89.1859 112.465 89.4797 112.3 89.4043 112.639L89.3968 112.631ZM78.0982 102.733C78.2038 102.588 78.2698 102.418 78.2896 102.24C78.3094 102.062 78.2824 101.881 78.2112 101.717C78.1585 101.408 78.0455 101.423 79.6198 101.325C80.3655 101.352 81.1058 101.463 81.8267 101.656C82.7457 101.792 83.3332 102.41 84.9753 103.411C87.0392 104.677 88.3046 109.437 88.862 111.765C86.4516 112.925 82.0828 115.441 79.1452 114.725C78.4447 114.552 78.5577 110.59 78.2715 109.309C78.2338 109.113 78.0907 108.91 78.1359 108.744C78.1811 108.579 79.1904 108.172 78.7686 107.185C78.2865 106.033 78.0154 106.311 78.1585 105.995C78.8289 104.157 77.9852 102.929 78.1811 102.741L78.0982 102.733ZM77.9626 107.411C78.0756 107.622 77.9174 107.735 77.7894 107.87C77.4128 108.3 77.0361 108.112 76.0343 108.292C75.3639 108.413 73.8876 108.872 73.0214 109.046C73.0214 109.046 67.2892 109.987 65.7752 110.002C64.7884 110.002 65.2178 110.371 63.7264 110.477C62.235 110.582 59.8171 110.68 59.5082 110.703C57.6101 110.838 57.5272 111.011 57.2033 110.748C56.7589 110.401 56.5706 110.514 54.454 110.492C53.5953 110.492 52.1943 110.416 52.1943 110.416C51.6143 110.627 50.3262 110.1 49.1813 109.663C47.8933 109.143 46.7408 108.669 46.9216 108.601C47.607 108.315 47.8179 108.127 48.3226 108.375C49.9797 109.196 49.8291 109.633 52.7441 109.256C52.7441 109.256 56.2166 108.187 56.9924 108.556C57.8464 109.072 58.8134 109.372 59.8095 109.43C61.5947 109.52 61.8282 109.43 62.4308 109.046C64.0277 108.089 62.9505 109.159 67.0482 108.97C69.9933 108.835 72.8029 106.567 73.526 106.372C74.1284 106.382 74.7217 106.52 75.266 106.778C75.9975 107.005 76.7734 107.049 77.5257 106.906C77.8948 106.884 77.8948 107.208 78.0078 107.419L77.9626 107.411ZM77.5709 101.867C77.6237 103.185 77.4881 102.801 70.4905 97.7093C55.8324 87.0057 52.5709 78.3058 34.5534 56.7405C34.3123 56.4543 33.7097 55.9195 33.5516 55.7236C33.3934 55.5278 33.6043 55.4449 33.9131 55.3244C34.2219 55.2039 34.2596 55.1738 34.8321 55.686C37.2123 57.8252 43.4717 66.7812 51.4034 76.37C56.7966 82.8704 59.0337 86.6818 67.8993 94.2067C69.8079 95.8077 71.821 97.2797 73.9253 98.6132C77.4956 101.34 77.4655 100.564 77.6161 101.875L77.5709 101.867ZM80.5387 78.6297C79.4691 77.1232 77.5634 75.9858 76.7725 74.8635C76.3507 74.291 76.8252 74.178 76.3884 72.1443C75.7556 69.1313 76.2904 68.5588 75.4845 65.7191C75.379 65.3726 74.7764 65.2747 74.7312 65.7191C74.7312 66.0129 74.9421 66.977 75.153 68.4534C75.1627 69.7794 75.3014 71.1013 75.5673 72.4004C76.2678 75.7448 74.8141 79.4432 74.8969 83.3299C75.0551 89.966 74.4751 90.8623 74.7011 93.7773C74.8894 96.2404 75.0702 94.6586 76.1247 98.9145C76.1774 99.1178 65.6923 93.2802 54.921 79.4733C53.535 77.7032 35.5702 55.2566 35.6154 55.2416C36.8583 54.8197 37.1822 54.5862 37.7622 55.121C40.519 57.7272 42.4549 60.2732 49.3997 62.194C63.7113 66.0882 72.3058 54.0891 73.5034 54.2548C76.5164 54.6992 76.8704 54.4506 78.166 55.6935C80.8249 58.247 80.599 59.1509 84.2748 62.661C85.1184 63.4669 87.1823 65.0789 88.3121 66.0204C88.6436 66.2991 88.5005 66.0204 86.5194 68.9882C85.0732 71.1801 84.3878 72.7544 83.3408 74.2609C81.2317 77.2512 81.4049 79.7746 80.5839 78.6372L80.5387 78.6297ZM98.5713 90.4028C94.4134 89.6496 91.5963 86.3655 82.4067 78.7653C81.9699 78.4112 82.7532 78.0798 83.0395 76.6938C83.2447 76.0002 83.5995 75.36 84.0789 74.8183C84.5384 74.163 87.2049 69.5456 87.6945 68.7924C87.8677 68.5212 87.8677 68.5137 91.0088 71.0973C91.4004 71.4212 93.63 82.2377 95.1742 81.1982C95.8144 80.7689 94.4209 79.7369 93.5472 76.5583C91.9654 70.6152 90.1953 60.8005 87.6418 55.1662C87.3857 54.6013 86.5872 52.2813 86.0374 51.6486C84.787 50.1873 80.0792 49.7052 78.8665 47.1819C78.5125 46.4286 78.7008 46.6998 77.4881 42.9261C77.2922 42.3009 77.4881 42.2256 77.5935 42.105C77.699 41.9845 78.1057 42.105 78.2489 42.2632C78.6158 42.7136 78.9037 43.223 79.1 43.7697C80.2224 46.2328 79.8156 46.5868 80.6065 46.7827C82.3691 47.2798 81.9925 46.2177 83.8304 46.5341C84.3882 46.696 84.9572 46.8168 85.5327 46.8956C85.8189 46.8956 86.0901 46.4512 85.608 46.2629C85.1569 46.0088 84.6605 45.8451 84.1467 45.7809C83.6345 45.7809 84.1467 44.5757 83.6948 43.1746C82.7005 39.9357 83.3483 39.9809 82.3992 39.1825C81.774 38.6401 80.8325 37.7513 80.0792 37.8342C79.326 37.917 79.5444 38.3012 78.6255 40.1391C78.0003 41.3819 77.2772 41.4874 77.5182 40.5986C77.9244 39.5403 78.2173 38.442 78.392 37.322C78.6631 35.8155 79.8985 35.5744 80.6517 36.0339C81.7213 36.6968 81.5179 36.3201 82.9717 37.1713C84.6514 38.1505 83.5441 35.017 83.8982 29.6841C83.9313 28.6595 84.0471 27.6393 84.2447 26.6335C84.2447 26.5054 84.3124 26.061 84.6288 26.0007C84.9452 25.9405 85.1033 26.2493 85.1485 26.754C85.3143 28.5618 84.5761 33.6838 85.962 38.1656C85.3218 38.1656 84.561 37.9848 84.7493 38.5874C84.787 38.7004 85.6984 38.836 85.721 38.836C88.5306 39.2277 90.361 40.7191 90.602 40.1692C90.7677 39.7775 90.3158 39.5967 89.894 39.416C89.4721 39.2352 89.7885 39.2804 90.5267 37.3973C91.0765 35.9812 92.4098 29.7519 93.2082 29.8649C93.4568 29.8649 93.6602 29.9929 93.6526 30.3545C93.6526 31.7706 91.8524 35.5669 91.4456 39.0393C90.9862 42.8733 91.8072 40.6437 91.069 48.1837C90.8958 49.9839 92.2064 50.2551 94.5866 55.2943C94.5866 55.2943 97.5619 62.0734 98.4809 63.7908C100.741 67.9337 103.98 73.9069 104.838 77.8915C105.26 79.8349 105.011 85.8984 104.914 86.4634C104.258 89.853 100.967 90.8322 98.5713 90.4028ZM83.1223 45.3364C83.1223 45.811 82.919 45.5172 81.8192 45.9918C81.5104 46.1273 80.7119 46.0596 80.5764 45.7583C80.2223 44.9598 80.4559 44.9673 80.0416 44.0183C79.7822 43.3854 79.4698 42.7756 79.1075 42.1954C78.9042 41.864 78.407 41.8715 78.6556 41.5928C80.1621 39.9282 79.8533 38.4142 80.501 38.7079C81.0908 39.0331 81.6268 39.4472 82.0904 39.9357C82.5875 40.2219 82.1507 40.817 82.9265 43.4684C83.0797 44.0787 83.1456 44.7076 83.1223 45.3364Z" fill="#000001"/>
<path d="M84.5233 39.6492C85.7209 39.4082 90.8656 41.1105 90.5492 41.6378C90.4588 41.7733 90.3835 41.9541 90.1726 41.9165C89.5474 41.7959 86.9788 40.3196 84.7417 40.2518C84.7022 40.2661 84.6601 40.2726 84.6181 40.2707C84.5761 40.2688 84.5348 40.2586 84.4967 40.2408C84.4586 40.2229 84.4243 40.1978 84.3959 40.1667C84.3675 40.1356 84.3455 40.0993 84.3312 40.0597C84.3169 40.0202 84.3104 39.9781 84.3123 39.9361C84.3142 39.8941 84.3244 39.8528 84.3422 39.8147C84.3601 39.7766 84.3852 39.7423 84.4163 39.7139C84.4474 39.6855 84.4837 39.6635 84.5233 39.6492Z" fill="#000001"/>
<path d="M87.6796 46.9094C87.4988 49.4629 90.7829 49.3424 90.1577 50.0579C89.8715 50.3818 89.6982 50.2463 89.6229 50.2312C85.7287 49.1616 86.7757 46.2541 87.9733 42.6611C88.1692 42.0661 88.3273 42.0585 88.5759 42.1113C89.3066 42.2619 87.8302 44.7702 87.6796 46.9094Z" fill="#000001"/>
<path d="M77.6542 142.609C77.8877 142.941 77.5036 143.687 77.0064 143.189C76.5093 142.692 76.7353 142.436 76.1477 141.111C74.7618 138.022 74.468 135.378 73.4963 131.793C73.4511 131.62 72.9239 130.505 73.293 130.422C74.5057 130.158 74.3927 134.294 77.1345 141.163C77.2639 141.66 77.4379 142.144 77.6542 142.609Z" fill="#000001"/>
<path d="M73.1125 81.975C73.2632 82.1784 73.0071 82.3667 72.8564 82.4345C71.8169 82.8939 69.9489 84.5812 64.2318 83.9409C60.2472 83.4965 59.9986 82.5474 58.2059 81.9674C58.1357 81.945 58.0745 81.9008 58.0311 81.8412C57.9878 81.7816 57.9646 81.7097 57.9648 81.636C57.9648 81.4929 58.0552 81.3649 58.4017 81.3724C59.6898 81.4176 59.3207 82.1784 63.938 82.9768C70.7925 84.1594 72.2764 80.8903 73.1125 81.975Z" fill="#000001"/>
<path d="M67.7861 31.5831C68.1929 31.9598 68.1251 32.5548 67.8765 32.6603C67.7485 32.7205 67.6505 32.6603 67.4999 32.359C67.3492 32.0577 67.1685 32.1481 66.9274 32.4192C65.8126 33.7148 66.6638 34.0086 66.724 34.4229C66.7458 34.5737 66.7341 34.7274 66.6899 34.8732C66.6456 35.019 66.5698 35.1532 66.4679 35.2665C66.2043 35.5979 65.7147 36.1026 65.4209 35.8239C65.1272 35.5452 65.4963 35.1836 65.775 34.8221C66.2495 34.2044 65.3305 34.3023 65.7147 33.1574C66.0989 32.0125 67.1986 31.0333 67.7861 31.5831Z" fill="#000001"/>
<path d="M63.3276 27.0169C63.4858 27.4839 62.9133 27.6873 62.6422 27.3408C61.8362 26.3164 61.0378 25.2016 58.876 26.098C57.9419 26.4821 57.7386 25.1187 59.9154 25.0058C60.6222 24.8471 61.3631 24.9715 61.9793 25.3522C62.5984 25.7451 63.0719 26.3298 63.3276 27.0169Z" fill="#000001"/>
<path d="M60.6005 141.827C60.9018 142.776 59.7945 143.092 59.7192 142.211C59.5761 140.448 58.966 138.784 58.966 137.285C58.9567 135.147 58.826 133.012 58.5743 130.89C58.5698 130.84 58.5752 130.79 58.59 130.743C58.6048 130.695 58.6288 130.651 58.6606 130.613C58.6924 130.575 58.7315 130.544 58.7755 130.521C58.8194 130.498 58.8675 130.484 58.917 130.479C58.9665 130.475 59.0163 130.48 59.0637 130.495C59.1111 130.51 59.1551 130.534 59.1932 130.565C59.2314 130.597 59.2628 130.636 59.2859 130.68C59.3089 130.724 59.3231 130.772 59.3275 130.822C60.0808 135.763 59.4932 136.486 60.2013 139.702C60.3595 140.448 60.495 141.503 60.6005 141.827Z" fill="#000001"/>
<path d="M60.0199 37.0893C59.7638 38.3999 59.1386 37.8425 59.1838 37.3755C59.1838 37.127 59.2441 37.3755 59.1838 36.9161C58.3402 37.4283 56.5927 39.5901 55.0109 40.5015C52.4122 42.008 51.5911 39.3867 50.2203 36.3963C49.5951 35.0254 49.6252 34.8898 50.499 35.0932C52.7825 35.818 55.1688 36.1666 57.5643 36.1251C57.8958 36.1251 58.6339 36.1251 58.4306 35.8239C57.843 35.0706 59.7864 34.807 60.0199 37.0893ZM57.843 36.9989C58.2046 36.675 57.0898 37.2776 53.6852 36.6298C50.1148 35.9594 50.9132 35.8013 51.4254 37.1345C53.3236 41.6615 54.2124 40.3433 57.843 36.9989Z" fill="#000001"/>
<path d="M59.2138 28.5097C59.485 28.6076 59.5904 28.924 59.4549 29.5642C59.3193 30.2045 58.3627 30.1894 58.6037 28.9541C58.6106 28.8831 58.6324 28.8144 58.6678 28.7525C58.7031 28.6905 58.7512 28.6368 58.8089 28.5948C58.8665 28.5528 58.9324 28.5235 59.0022 28.5088C59.072 28.4942 59.1441 28.4945 59.2138 28.5097Z" fill="#000001"/>
<path d="M57.9941 55.1891C58.1222 55.7767 55.0791 56.2286 54.4765 56.2211C53.8739 56.2135 53.6479 56.1307 51.5991 55.2494C50.9287 54.9632 48.8121 55.5883 48.1041 55.8068C47.396 56.0252 47.0194 55.513 48.0212 55.2494C50.763 54.4961 51.1246 54.2174 52.7892 55.046C53.8061 55.5507 53.9115 55.5657 54.1752 55.5808C56.5479 55.6787 57.8435 54.466 57.9941 55.1891Z" fill="#000001"/>
<path d="M56.4802 32.1101C57.0451 32.1101 56.9095 33.255 56.0358 33.4433C55.858 33.4741 55.6756 33.4644 55.5021 33.4148C55.3286 33.3653 55.1686 33.2772 55.0339 33.1571C54.8984 33.0592 54.8381 33.1571 54.6799 33.3002C52.488 34.9046 49.9194 31.6129 52.4955 29.534C52.9213 29.2054 53.2388 28.7568 53.407 28.2459C53.6179 27.9597 53.8966 28.1179 53.9192 28.4041C53.9639 28.6978 53.9327 28.9981 53.8285 29.2763C53.7244 29.5545 53.5507 29.8014 53.3241 29.9935C52.6612 30.6111 52.134 31.0028 52.3374 31.9218C52.41 32.1384 52.5423 32.3301 52.7191 32.4748C52.8959 32.6195 53.11 32.7113 53.3367 32.7396C53.5634 32.7679 53.7935 32.7317 54.0005 32.6349C54.2075 32.5382 54.383 32.385 54.5067 32.1929C55.0415 31.4397 55.0038 32.3888 55.6667 32.6449C55.9604 32.7579 56.0659 32.5168 56.1638 32.3812C56.2617 32.2457 56.2391 32.1251 56.4802 32.1101Z" fill="#000001"/>
<path d="M49.6855 22.5425C51.7268 21.7893 53.5045 22.8061 53.0224 23.5368C52.5403 24.2674 51.6741 22.4446 49.7985 23.356C48.631 23.9209 48.7139 24.5311 48.4879 24.5989C47.5539 24.87 47.9983 23.1451 49.6855 22.5425Z" fill="#000001"/>
<path d="M51.0644 26.927C51.3883 26.829 51.7122 27.1981 51.667 27.6802C51.667 28.0267 51.426 28.4334 51.072 28.3657C50.9062 28.3657 50.6577 28.087 50.6652 27.6124C50.6727 27.1379 50.8159 26.9872 51.0644 26.927Z" fill="#000001"/>
<path d="M51.2372 81.4237C51.2373 81.515 51.2021 81.6028 51.1389 81.6688C51.0757 81.7348 50.9895 81.7738 50.8982 81.7777C50.0885 81.976 49.2652 82.1145 48.4351 82.192C48.4351 82.192 44.9778 82.5686 44.9778 82.5837C36.1046 81.6346 36.8804 79.1338 37.596 79.533C38.2036 79.9773 38.8672 80.3395 39.5695 80.6102C43.2754 81.725 42.6653 81.8831 48.744 81.3634C49.7985 81.3031 51.1995 80.6102 51.2372 81.4237Z" fill="#000001"/>
<path d="M43.3363 129.573C43.8409 129.505 43.7882 130.077 43.9087 130.914C43.6451 133.648 42.4022 136.239 42.5077 138.115C42.696 140.947 42.0557 140.608 42.2064 142.129C42.2064 142.325 42.2064 142.837 41.89 142.883C41.2874 142.935 41.2799 142.34 41.2046 141.549C41.5558 140.562 41.7093 139.515 41.6565 138.469C41.3251 135.862 43.4568 131.878 43.0726 130.356C42.9898 130.047 42.9822 129.633 43.3363 129.573Z" fill="#000001"/>
</svg>
