<svg width="145" height="132" viewBox="0 0 145 132" fill="none" xmlns="http://www.w3.org/2000/svg">
<path d="M62.6021 83.3495C62.5169 82.9698 62.5195 82.5759 62.6096 82.1978C63.3116 79.0907 63.2054 74.5057 63.9067 70.7779C64.608 67.0501 66.9197 67.4697 69.4754 66.5763C71.1069 66.0039 72.6337 65.1241 74.3715 64.3166C75.4064 63.8222 76.4783 63.4077 77.5765 63.0768C80.8305 62.1186 88.9987 65.5625 92.9547 66.1959C93.8894 66.3443 94.8107 66.5688 95.7093 66.8663L95.7274 66.8121C95.7274 66.8121 113.769 54.4454 118.486 51.0588C123.203 47.6722 132.885 40.7959 132.885 40.7959L143.914 66.1952C143.914 66.1952 122.261 80.5067 119.057 83.3284C115.852 86.15 108.805 89.7362 108.805 89.7362L108.748 89.7226C108.318 91.6931 106.887 93.9408 102.941 96.1689L102.703 96.2517C102.05 94.749 101.224 93.3284 100.243 92.017C96.3081 84.7784 80.2596 74.0522 78.8721 74.2827C77.4846 74.5132 73.6529 75.0179 73.6529 75.0179C73.3712 75.8645 72.1931 76.3383 72.1931 76.3383H72.0922C72.1113 78.8993 71.2317 81.3858 69.6065 83.3645C67.0394 86.6035 63.1301 85.6845 62.6021 83.3495Z" fill="#C49E91"/>
<path d="M107.24 19.634C107.493 20.7888 107.59 21.972 107.53 23.1524C107.518 23.359 107.463 23.5607 107.367 23.7444C107.272 23.9282 107.139 24.0897 106.977 24.2186C106.815 24.3475 106.628 24.4408 106.428 24.4926C106.227 24.5443 106.018 24.5532 105.814 24.5188L100.452 23.6337C100.124 23.5811 99.8225 23.4182 99.5996 23.1718C99.3759 22.9253 99.2425 22.6101 99.2222 22.2779C99.2011 21.3955 98.8825 20.5462 98.3183 19.8675C98.0878 19.5997 97.8295 19.3576 97.547 19.1452L96.0044 28.4936L98.2076 29.8269C101.239 31.6135 103.187 33.6865 104.05 36.0456C104.914 38.4021 105.144 40.9445 104.715 43.4176C104.443 45.1589 103.825 46.8282 102.897 48.3265C102.013 49.7538 100.872 51.0051 99.5318 52.0173C98.176 53.0324 96.6258 53.7591 94.9785 54.1528C93.9089 54.4151 92.8099 54.5362 91.7086 54.5128L90.9705 58.9893C90.9298 59.2374 90.8402 59.4748 90.7076 59.6883C90.5743 59.9017 90.401 60.0869 90.1969 60.2332C89.992 60.3796 89.7608 60.4842 89.516 60.5412C89.2711 60.5983 89.0181 60.6065 88.7695 60.5655C88.5217 60.5245 88.2844 60.4351 88.0712 60.3023C87.8573 60.1695 87.672 59.996 87.5259 59.7917C87.3798 59.5873 87.2751 59.3562 87.2178 59.1114C87.1613 58.8665 87.153 58.6129 87.1937 58.3649L87.9236 53.9434C85.2903 53.2435 82.9613 51.6925 81.3011 49.5316C80.4929 48.5111 79.8594 47.3634 79.427 46.1353C79.2945 45.77 79.1755 45.3948 79.0723 45.0054C78.8019 43.9923 78.658 42.9497 78.6422 41.9013C78.6346 41.5607 78.7017 41.2226 78.8395 40.9109C78.9774 40.5993 79.1815 40.3218 79.4391 40.0981C79.696 39.8745 79.9988 39.7103 80.3272 39.617C80.6548 39.5238 80.9991 39.5039 81.335 39.5587L83.6 39.9354L85.2074 40.1997C85.6835 40.2801 86.1226 40.5068 86.4638 40.8484C86.805 41.19 87.031 41.6293 87.1109 42.1054C87.2231 42.7645 87.4144 43.4076 87.6803 44.0209C87.9967 44.7455 88.5714 45.3261 89.293 45.6494L91.033 35.1041L89.11 34.0119C86.7244 32.7115 84.7562 30.7633 83.4305 28.3919C82.1832 26.0093 81.7862 23.2725 82.3044 20.6336C82.5763 18.8887 83.2098 17.2197 84.1627 15.733C85.0703 14.3172 86.2537 13.0986 87.6426 12.1498C88.9691 11.2007 90.4793 10.5401 92.077 10.211C93.0984 9.9978 94.1416 9.90658 95.1841 9.93905L95.8334 6.00186C95.9162 5.50095 96.1942 5.05338 96.607 4.75766C96.8111 4.61123 97.0423 4.50653 97.2871 4.44943C97.5319 4.39233 97.7858 4.38405 98.0336 4.42495C98.2822 4.46593 98.5194 4.55534 98.7334 4.68806C98.9465 4.82085 99.1318 4.99432 99.278 5.19868C99.4248 5.40303 99.5295 5.6342 99.5868 5.87908C99.6433 6.12388 99.6516 6.37757 99.6109 6.62554L98.9639 10.5529C99.9996 10.8634 100.99 11.3092 101.91 11.8786C103.276 12.7173 104.449 13.8362 105.351 15.1613C106.26 16.5176 106.902 18.036 107.24 19.634ZM96.5045 42.2373C96.7147 41.1454 96.5625 40.0149 96.0722 39.0172C95.6955 38.3325 95.1773 37.7359 94.5521 37.2666L93.1082 46.0117C93.5759 45.8803 94.0249 45.6889 94.4437 45.4423C95.0108 45.1032 95.4922 44.6374 95.85 44.0814C96.207 43.5254 96.4315 42.8942 96.5045 42.2373ZM92.4784 26.3288L93.8117 18.2541C93.1805 18.363 92.5907 18.6413 92.1056 19.0593C91.2416 19.7798 90.6699 20.7905 90.4982 21.902C90.3679 22.7207 90.4394 23.5588 90.7076 24.3433C91.0774 25.1732 91.6958 25.8672 92.4784 26.3288Z" fill="#38A1FF"/>
<path d="M62.6019 83.3488C63.1291 85.6839 67.0392 86.6006 69.6025 83.3646C71.2277 81.3859 72.1073 78.8994 72.0882 76.3384H72.1891C72.1891 76.3384 73.3672 75.8646 73.6489 75.018C73.6489 75.018 77.4776 74.5133 78.8681 74.2828C80.2586 74.0523 96.3041 84.7785 100.239 92.0171C101.221 93.3285 102.046 94.7491 102.699 96.2518C103.126 97.3553 103.289 98.4061 102.774 99.0147C101.001 101.124 98.8312 100.503 97.3089 98.7503C97.2336 98.6652 97.1583 98.5741 97.083 98.4814C95.5524 96.5268 91.625 91.755 91.625 91.755L88.3476 89.7212C89.1122 90.4368 89.83 91.1999 90.4966 92.0073C91.3742 93.2035 94.8255 96.7271 96.3757 99.1428C96.7741 99.6655 97.0363 100.279 97.1372 100.929C97.1048 101.403 96.9594 101.864 96.7131 102.272C96.4676 102.679 96.1279 103.022 95.7234 103.273C95.3181 103.523 94.8594 103.673 94.3849 103.71C93.9103 103.749 93.4335 103.673 92.9944 103.49C92.9401 103.467 92.8874 103.439 92.8385 103.407C91.5263 102.594 85.0673 96.8002 84.0647 95.8556C83.8643 95.4835 83.5887 95.1566 83.255 94.8975C83.0531 94.7348 82.8384 94.5894 82.6125 94.4629L82.6027 94.4546C80.9041 93.4889 79.0451 93.852 77.44 95.1069C75.6691 96.4974 76.4457 95.6764 75.6796 96.474C75.6141 95.8466 75.3459 95.2583 74.9158 94.7966C73.3288 93.0152 71.1775 92.927 69.1528 94.017C67.5901 94.9148 66.0824 95.9061 64.6379 96.984L58.7453 97.5482L58.6941 97.5384C58.8382 96.4899 58.611 95.424 58.0515 94.5254C56.771 92.5941 54.8495 92.793 53.8372 92.8532C53.6711 92.8645 53.5069 92.8939 53.3476 92.9413L53.3347 92.8532C52.5502 92.4668 51.7902 92.0329 51.0592 91.5531C50.1011 90.955 49.0609 90.2666 48.2293 89.7077C47.3133 89.0915 46.6558 88.6358 46.6558 88.6358C46.7176 81.1659 47.2614 73.7088 48.2835 66.309L49.6122 66.8242C51.7657 67.6603 55.8355 69.2346 56.356 69.4184C56.605 69.5495 56.8823 69.618 57.1638 69.618C57.4453 69.618 57.7227 69.5495 57.9717 69.4184C58.7091 69.1389 67.3819 64.572 69.1347 64.1555C70.8875 63.739 74.3667 64.3129 74.3667 64.3129C72.6267 65.1234 71.0999 66.0032 69.4707 66.5726C66.9179 67.466 64.601 67.0434 63.902 70.7742C63.203 74.505 63.3069 79.087 62.6049 82.1941C62.5158 82.5737 62.5147 82.9684 62.6019 83.3488Z" fill="#C49E91"/>
<path d="M97.0919 98.4804C97.1672 98.573 97.2426 98.6642 97.3179 98.7493C97.3179 98.7493 96.4065 99.1711 96.3884 99.1432C94.8382 96.7276 91.3869 93.2039 90.5093 92.0078C89.8427 91.201 89.1249 90.4373 88.3604 89.7217L91.6377 91.7554C91.6377 91.7554 95.5613 96.5257 97.0919 98.4804Z" fill="#C49E91"/>
<path d="M92.8471 103.406L92.6686 103.667C92.6016 104.019 92.4532 104.35 92.2362 104.634C92.0185 104.918 91.7376 105.147 91.416 105.304C90.9587 105.591 90.4473 105.78 89.9132 105.86C89.3792 105.939 88.8346 105.907 88.3141 105.764C87.8471 105.538 87.3967 105.279 86.9658 104.991L86.2766 104.915C86.6246 104.594 86.9327 104.231 87.1933 103.835C88.1725 102.184 88.1386 101.161 87.0585 100.302C86.6525 99.9176 86.1531 99.6472 85.61 99.5169C85.0661 99.3866 84.4982 99.4009 83.9626 99.5591L83.8481 99.489C83.9061 99.3926 83.9566 99.2917 83.9988 99.1877C84.2564 98.6725 84.3973 98.1068 84.4101 97.5313C84.4229 96.9559 84.3084 96.3842 84.0741 95.8584C85.0759 96.7992 91.532 102.593 92.8471 103.406Z" fill="#C49E91"/>
<path d="M88.3145 105.765C87.3978 106.901 86.1444 107.717 84.7344 108.096C84.4376 108.203 84.1212 108.243 83.8071 108.216C83.4923 108.188 83.188 108.093 82.9145 107.935L82.562 107.93C83.8636 107.006 85.105 106 86.277 104.917L86.9662 104.992C87.3971 105.281 87.8475 105.539 88.3145 105.765Z" fill="#C49E91"/>
<path d="M87.0591 100.297C88.1392 101.156 88.1701 102.18 87.1939 103.83C86.9333 104.226 86.6252 104.589 86.2772 104.91C85.1052 105.994 83.8639 107 82.5623 107.923C82.1299 108.237 81.8535 108.428 81.8535 108.428C77.5916 110.932 75.7017 111.488 74.1772 110.771C73.7049 110.582 73.2816 110.289 72.9381 109.913C72.5954 109.538 72.3415 109.089 72.1969 108.601L72.1216 108.43C73.8322 107.681 75.4901 106.815 77.0824 105.839C77.0824 105.839 82.6564 101.503 83.8465 99.481L83.961 99.5511C84.4973 99.3929 85.066 99.3786 85.6099 99.5097C86.1537 99.6407 86.6531 99.9119 87.0591 100.297Z" fill="#C49E91"/>
<path d="M84.0753 95.8526C84.3096 96.3783 84.4241 96.9501 84.4113 97.5255C84.3985 98.1018 84.2576 98.6667 84 99.1819C83.9578 99.2859 83.9074 99.3868 83.8494 99.4832C82.6585 101.505 77.0853 105.841 77.0853 105.841C75.4929 106.818 73.835 107.683 72.1244 108.432C68.5842 109.906 67.7601 109.035 66.4887 108.438C65.2772 107.798 64.3673 106.705 63.957 105.398V105.362C65.0098 105.283 66.0375 105.002 66.9836 104.534C66.9836 104.534 73.8908 100.843 74.9287 99.1412C75.4696 98.3586 75.7377 97.4201 75.6925 96.4695C76.4586 95.6718 75.682 96.4928 77.4528 95.1024C79.058 93.8467 80.9178 93.4844 82.6156 94.45L82.6253 94.4583C82.8513 94.5849 83.066 94.7303 83.2679 94.893C83.6008 95.1528 83.8765 95.4797 84.0753 95.8526Z" fill="#C49E91"/>
<path d="M64.6419 96.9825C66.0883 95.9046 67.5974 94.9141 69.1613 94.0155C71.186 92.9255 73.3373 93.0137 74.9244 94.7951C75.3545 95.2568 75.6226 95.8451 75.6882 96.4725C75.7333 97.4224 75.4652 98.3617 74.9244 99.1443C73.8864 100.845 66.9792 104.537 66.9792 104.537C66.0331 105.005 65.0055 105.286 63.9527 105.365C61.9512 105.432 59.9532 105.151 58.0473 104.537C55.9691 103.998 54.9771 100.11 54.9771 100.11C55.7727 99.9804 56.5476 99.7454 57.2812 99.4109C57.6562 99.243 57.9827 98.9831 58.2307 98.6554C58.4788 98.3278 58.6403 97.9436 58.7003 97.5369L58.7515 97.5467L64.6419 96.9825Z" fill="#C49E91"/>
<path d="M73.4106 2.47949L73.8995 4.84617L44.7672 10.8495L52.6656 49.1834L50.2967 49.67L49.8078 47.3011L41.9116 8.97017L71.0417 2.96684L73.4106 2.47949Z" fill="#38A1FF"/>
<path d="M71.0414 2.9666L41.9113 8.96993L49.8075 47.3008L47.4386 47.7904L39.0527 7.08758L70.5548 0.597656L71.0414 2.9666Z" fill="#313553"/>
<path d="M53.3553 92.9398C53.5147 92.8923 53.6789 92.8629 53.8449 92.8516C54.8572 92.7944 56.775 92.5925 58.0593 94.5238C58.6187 95.4224 58.846 96.4883 58.7018 97.5368C58.6418 97.9435 58.4803 98.3277 58.2322 98.6553C57.9842 98.983 57.6576 99.2429 57.2827 99.4108C56.5491 99.7453 55.7742 99.9803 54.9785 100.11C53.2107 100.407 51.372 100.247 50.5645 99.4523C49.2087 98.1138 47.7504 95.0383 50.917 91.7896L51.0677 91.5508C51.7987 92.0306 52.5587 92.4645 53.3432 92.8509L53.3553 92.9398Z" fill="#C49E91"/>
<path d="M49.1653 65.0095L49.1367 65.0329C49.1086 64.9954 49.0727 64.9646 49.0314 64.9426C48.9901 64.9207 48.9444 64.9081 48.8977 64.9059C48.851 64.9037 48.8044 64.9118 48.7612 64.9298C48.7179 64.9476 48.6792 64.9749 48.6478 65.0095C48.4489 65.4167 48.3275 65.8573 48.29 66.3089C47.2679 73.7087 46.7241 81.1658 46.6623 88.6357C46.6954 90.3568 46.8325 91.4912 47.1097 91.6441C47.2825 91.7639 47.4956 91.8098 47.7025 91.7729L47.713 91.8068C46.9417 92.3198 44.8831 92.5781 44.3234 90.9504C44.1852 89.6307 44.1749 88.3005 44.2926 86.9785C44.5592 80.576 45.6024 68.5241 46.1757 65.2219C46.2063 64.9346 46.2778 64.653 46.3881 64.3858C47.0065 63.5754 49.093 64.0416 49.1653 65.0095Z" fill="#38A1FF"/>
<path d="M46.0367 65.196L46.1791 65.2224C45.6044 68.5283 44.5611 80.5794 44.296 86.979H44.2207C44.2207 86.979 39.7577 84.9753 37.4897 84.7057C34.2018 84.3178 0.797852 68.8048 0.797852 68.8048L13.5788 43.9102L43.9593 64.1625L46.0367 65.196Z" fill="#C49E91"/>
<path d="M132.883 40.7959L143.911 66.1952" stroke="#C49E91" stroke-width="0.258738" stroke-linecap="round" stroke-linejoin="round"/>
<path d="M0.794922 68.8018L13.5789 43.9102" stroke="#FFE8BB" stroke-width="0.258738" stroke-linecap="round" stroke-linejoin="round"/>
<path d="M106.545 122.474C98.5573 127.749 89.3264 130.838 79.773 131.434C70.2195 132.029 60.6768 130.11 52.0963 125.867C43.5157 121.625 36.1971 115.208 30.87 107.255C25.5429 99.3014 22.3936 90.0916 21.7358 80.542" stroke="#313553" stroke-width="0.258738" stroke-linecap="round" stroke-linejoin="round"/>
<path d="M131.077 78.4404C130.85 86.2538 128.949 93.9278 125.503 100.943C122.056 107.96 117.144 114.155 111.099 119.109" stroke="#313553" stroke-width="0.258738" stroke-linecap="round" stroke-linejoin="round"/>
<path d="M100.436 113.752C94.474 117.69 87.6369 120.105 80.524 120.785C73.4112 121.465 66.2404 120.388 59.6404 117.651C53.0405 114.913 47.2132 110.598 42.6696 105.084C38.1261 99.5695 35.0051 93.0238 33.5806 86.0225" stroke="#313553" stroke-width="0.258738" stroke-linecap="round" stroke-linejoin="round"/>
<path d="M119.262 85.457C117.357 95.5113 111.979 104.577 104.068 111.067" stroke="#313553" stroke-width="0.258738" stroke-linecap="round" stroke-linejoin="round"/>
<path d="M105.714 45.1807C108.298 47.5125 110.595 50.1441 112.556 53.0196" stroke="#313553" stroke-width="0.258738" stroke-linecap="round" stroke-linejoin="round"/>
<path d="M37.3682 57.9241C39.3823 53.8786 42.01 50.1689 45.1582 46.9268" stroke="#313553" stroke-width="0.258738" stroke-linecap="round" stroke-linejoin="round"/>
<path d="M103.136 29.0342C110.026 32.9104 116.001 38.225 120.653 44.6165" stroke="#313553" stroke-width="0.258738" stroke-linecap="round" stroke-linejoin="round"/>
<path d="M27.9707 51.161C31.4727 44.5716 36.2792 38.764 42.0977 34.0918" stroke="#313553" stroke-width="0.258738" stroke-linecap="round" stroke-linejoin="round"/>
<path d="M95.7295 66.8113C95.7295 66.8113 113.771 54.4446 118.488 51.0581C123.205 47.6715 132.885 40.7959 132.885 40.7959" stroke="#313553" stroke-width="0.258738" stroke-linecap="round" stroke-linejoin="round"/>
<path d="M108.803 89.7354C108.803 89.7354 115.849 86.1469 119.054 83.3275C122.259 80.5082 143.911 66.1943 143.911 66.1943" stroke="#313553" stroke-width="0.258738" stroke-linecap="round" stroke-linejoin="round"/>
<path d="M0.794922 68.8008C0.794922 68.8008 34.1996 84.3175 37.4875 84.7017C39.7555 84.9714 44.2185 86.975 44.2185 86.975" stroke="#313553" stroke-width="0.258738" stroke-linecap="round" stroke-linejoin="round"/>
<path d="M46.0375 65.1952L43.9586 64.1625L13.5781 43.9102" stroke="#313553" stroke-width="0.258738" stroke-linecap="round" stroke-linejoin="round"/>
<path d="M49.6447 66.7568C49.6004 66.1525 49.4273 65.5646 49.137 65.0326C49.109 64.9951 49.073 64.9643 49.0318 64.9424C48.9904 64.9205 48.9448 64.9079 48.8981 64.9056C48.8514 64.9034 48.8047 64.9116 48.7615 64.9294C48.7183 64.9474 48.6796 64.9746 48.6481 65.0093C48.4492 65.4164 48.3279 65.857 48.2904 66.3086C47.2682 73.7084 46.7244 81.1655 46.6626 88.6354C46.6957 90.3566 46.8328 91.4909 47.11 91.6439C47.2829 91.7636 47.496 91.8096 47.7028 91.7727C48.3807 91.5972 48.1615 89.9272 48.1615 89.9272" stroke="#313553" stroke-width="0.258738" stroke-linecap="round" stroke-linejoin="round"/>
<path d="M49.1656 65.0101C49.0903 64.0422 47.0068 63.579 46.393 64.3865C46.2827 64.6536 46.2112 64.9352 46.1805 65.2226C45.6058 68.5285 44.5626 80.5796 44.2974 86.9792C44.1798 88.3011 44.1901 89.6313 44.3283 90.951C44.885 92.5787 46.9436 92.3204 47.7179 91.8074" stroke="#313553" stroke-width="0.258738" stroke-linecap="round" stroke-linejoin="round"/>
<path d="M48.291 66.309L49.6197 66.8242C51.7732 67.6603 55.843 69.2346 56.3635 69.4184C56.6125 69.5495 56.8898 69.618 57.1713 69.618C57.4529 69.618 57.7302 69.5495 57.9792 69.4184C58.7166 69.1389 67.3894 64.572 69.1422 64.1555C70.895 63.739 74.3742 64.3129 74.3742 64.3129" stroke="#313553" stroke-width="0.258738" stroke-linecap="round" stroke-linejoin="round"/>
<path d="M46.6626 88.6348C46.6626 88.6348 47.3202 89.0905 48.2361 89.7066C49.0647 90.2655 50.1079 90.954 51.066 91.5521C51.7971 92.0319 52.557 92.4657 53.3416 92.8522" stroke="#313553" stroke-width="0.258738" stroke-linecap="round" stroke-linejoin="round"/>
<path d="M108.544 84.7979C108.544 85.8908 109.199 87.6511 108.746 89.7218C108.316 91.6923 106.885 93.9399 102.939 96.1688" stroke="#313553" stroke-width="0.258738" stroke-linecap="round" stroke-linejoin="round"/>
<path d="M99.2733 68.5625C98.1736 67.8289 96.9737 67.2564 95.7112 66.864C94.8126 66.5664 93.8914 66.3427 92.9566 66.1936C89.0006 65.5616 80.8294 62.1163 77.5785 63.0744C76.4802 63.4054 75.4084 63.8199 74.3734 64.3142C72.6334 65.1247 71.1066 66.0045 69.4774 66.574C66.9246 67.4673 64.6077 67.0447 63.9087 70.7755C63.2096 74.5063 63.3136 79.0883 62.6116 82.1954C62.5214 82.5735 62.5188 82.9675 62.604 83.3471C63.1313 85.6822 67.0414 86.5989 69.6047 83.3629C71.2298 81.3842 72.1095 78.8977 72.0904 76.3367C72.0852 75.6143 72.0036 74.895 71.8471 74.19" stroke="#313553" stroke-width="0.258738" stroke-linecap="round" stroke-linejoin="round"/>
<path d="M72.1914 76.3385C72.1914 76.3385 73.3695 75.8648 73.6512 75.0181C73.6512 75.0181 77.4799 74.5134 78.8704 74.283C80.2609 74.0525 96.3064 84.7786 100.241 92.0172" stroke="#313553" stroke-width="0.258738" stroke-linecap="round" stroke-linejoin="round"/>
<path d="M100.241 92.0156C101.222 93.327 102.048 94.7476 102.701 96.2503C103.128 97.3538 103.291 98.4046 102.776 99.0132C101.003 101.122 98.8332 100.502 97.3109 98.7488C97.2356 98.6637 97.1603 98.5726 97.0849 98.4799C95.5544 96.5252 91.627 91.7535 91.627 91.7535L88.3496 89.7197" stroke="#313553" stroke-width="0.258738" stroke-linecap="round" stroke-linejoin="round"/>
<path d="M82.6216 82.7734C82.6886 83.4709 82.8634 84.1534 83.1398 84.7974C83.3545 85.046 86.2176 87.6273 88.356 89.7213C89.1205 90.4369 89.8384 91.1999 90.505 92.0074C91.3825 93.2036 94.8339 96.7272 96.384 99.1429C96.7825 99.6656 97.0446 100.28 97.1456 100.929C97.1132 101.403 96.9678 101.864 96.7215 102.272C96.4759 102.679 96.1362 103.022 95.7317 103.273C95.3265 103.523 94.8678 103.673 94.3932 103.711C93.9187 103.749 93.4419 103.673 93.0027 103.49C92.9485 103.467 92.8958 103.439 92.8468 103.407C91.5347 102.594 85.0756 96.8003 84.0731 95.8557L84.0686 95.8504" stroke="#313553" stroke-width="0.258738" stroke-linecap="round" stroke-linejoin="round"/>
<path d="M92.6696 103.669C92.6025 104.021 92.4542 104.351 92.2372 104.635C92.0195 104.92 91.7386 105.149 91.4169 105.306C90.9597 105.593 90.4483 105.782 89.9142 105.862C89.3802 105.941 88.8356 105.908 88.3151 105.766C87.8481 105.54 87.3977 105.281 86.9668 104.992" stroke="#313553" stroke-width="0.258738" stroke-linecap="round" stroke-linejoin="round"/>
<path d="M88.3145 105.766C87.3978 106.902 86.1444 107.717 84.7344 108.096C84.4376 108.203 84.1212 108.244 83.8071 108.217C83.4923 108.189 83.188 108.093 82.9146 107.936" stroke="#313553" stroke-width="0.258738" stroke-linecap="round" stroke-linejoin="round"/>
<path d="M78.8696 74.2827C78.8696 74.2827 80.0402 73.1227 80.0402 72.4629" stroke="#313553" stroke-width="0.258738" stroke-linecap="round" stroke-linejoin="round"/>
<path d="M73.6519 75.0177C73.7558 74.4738 73.7558 73.9149 73.6519 73.3711" stroke="#313553" stroke-width="0.258738" stroke-linecap="round" stroke-linejoin="round"/>
<path d="M62.543 83.1083C62.5425 83.1934 62.563 83.2762 62.6025 83.3516C63.071 84.2991 66.3566 83.9933 67.4104 82.4145C68.5463 80.7084 67.1588 78.4404 67.1588 78.4404" stroke="#313553" stroke-width="0.258738" stroke-linecap="round" stroke-linejoin="round"/>
<path d="M63.2417 77.8232C63.2417 77.8232 64.0853 77.7585 65.2001 77.6289" stroke="#313553" stroke-width="0.258738" stroke-linecap="round" stroke-linejoin="round"/>
<path d="M99.8662 99.1426C100.637 98.9151 101.345 98.5129 101.935 97.9668" stroke="#313553" stroke-width="0.258738" stroke-linecap="round" stroke-linejoin="round"/>
<path d="M97.3138 98.749C97.3138 98.749 96.4024 99.1708 96.3843 99.143" stroke="#313553" stroke-width="0.258738" stroke-linecap="round" stroke-linejoin="round"/>
<path d="M51.5588 93.894C52.1026 93.4827 52.7092 93.1618 53.3553 92.9441C53.5147 92.8967 53.6789 92.8673 53.8449 92.856C54.8572 92.7988 56.775 92.5969 58.0593 94.5282C58.6187 95.4268 58.846 96.4927 58.7018 97.5412C58.6418 97.9479 58.4803 98.3321 58.2322 98.6597C57.9842 98.9874 57.6576 99.2473 57.2827 99.4152C56.5491 99.7497 55.7742 99.9847 54.9785 100.114C53.2107 100.412 51.372 100.251 50.5645 99.4567C49.2087 98.1182 47.7504 95.0427 50.917 91.7939" stroke="#313553" stroke-width="0.258738" stroke-linecap="round" stroke-linejoin="round"/>
<path d="M64.6411 96.9834C64.043 97.4188 63.5459 97.7886 63.2378 98.0169" stroke="#313553" stroke-width="0.258738" stroke-linecap="round" stroke-linejoin="round"/>
<path d="M54.9785 100.112C54.9785 100.112 55.9705 104 58.0487 104.539C59.9546 105.153 61.9526 105.434 63.9541 105.367C65.0069 105.288 66.0346 105.007 66.9807 104.539C66.9807 104.539 73.8879 100.848 74.9258 99.1462C75.4667 98.3636 75.7348 97.4243 75.6896 96.4745C75.6241 95.847 75.3559 95.2588 74.9258 94.797C73.3388 93.0156 71.1875 92.9275 69.1628 94.0174C67.6001 94.9153 66.0924 95.9066 64.6479 96.9844" stroke="#313553" stroke-width="0.258738" stroke-linecap="round" stroke-linejoin="round"/>
<path d="M64.6463 96.9854H64.6441L58.7515 97.5495" stroke="#313553" stroke-width="0.258738" stroke-linecap="round" stroke-linejoin="round"/>
<path d="M69.3011 96.6729C68.8105 97.2528 68.5434 97.9888 68.5479 98.7488C68.5844 99.0682 68.6989 99.374 68.8814 99.6391C69.0638 99.9043 69.3086 100.12 69.5942 100.269C69.8797 100.417 70.1974 100.493 70.5191 100.49C70.8409 100.487 71.1571 100.404 71.4396 100.251C72.7781 99.5103 74.9218 98.0114 74.332 96.6729" stroke="#313553" stroke-width="0.258738" stroke-linecap="round" stroke-linejoin="round"/>
<path d="M70.2217 95.8525C70.6894 95.4375 71.2599 95.1558 71.8735 95.0368C72.3051 95.018 72.7277 95.1633 73.0569 95.4435" stroke="#313553" stroke-width="0.258738" stroke-linecap="round" stroke-linejoin="round"/>
<path d="M82.6112 94.4547C80.9126 93.4891 79.0536 93.8521 77.4484 95.107C75.6776 96.4975 76.4542 95.6765 75.6881 96.4742C75.6723 96.49 75.6572 96.5081 75.6392 96.5261" stroke="#313553" stroke-width="0.258738" stroke-linecap="round" stroke-linejoin="round"/>
<path d="M63.9561 105.403C64.3663 106.71 65.2762 107.803 66.4877 108.443C67.7592 109.041 68.587 109.911 72.1234 108.437C73.8341 107.688 75.4919 106.823 77.0843 105.846C77.0843 105.846 82.6583 101.51 83.8484 99.4882C83.9064 99.3918 83.9569 99.2909 83.999 99.1869C84.2566 98.6717 84.3975 98.1068 84.4103 97.5305C84.4231 96.9551 84.3086 96.3833 84.0744 95.8576C83.874 95.4855 83.5983 95.1586 83.2646 94.8995C83.0628 94.7368 82.8481 94.5914 82.6221 94.4648" stroke="#313553" stroke-width="0.258738" stroke-linecap="round" stroke-linejoin="round"/>
<path d="M78.0364 97.7009C77.6537 98.3569 77.5166 99.1275 77.6507 99.8755C77.7411 100.184 77.906 100.466 78.1305 100.696C78.3557 100.926 78.6337 101.097 78.9402 101.195C79.2461 101.292 79.5722 101.313 79.8886 101.256C80.2049 101.198 80.5025 101.064 80.7548 100.864C81.951 99.9071 83.8069 98.0662 82.9995 96.8467" stroke="#313553" stroke-width="0.258738" stroke-linecap="round" stroke-linejoin="round"/>
<path d="M78.8027 96.7328C79.1929 96.2455 79.7074 95.8719 80.2911 95.6504C80.7137 95.5585 81.1559 95.6301 81.5287 95.85" stroke="#313553" stroke-width="0.258738" stroke-linecap="round" stroke-linejoin="round"/>
<path d="M72.1973 108.607C72.3419 109.095 72.5957 109.543 72.9385 109.919C73.2819 110.294 73.7053 110.587 74.1775 110.777C75.7021 111.494 77.592 110.937 81.8538 108.434C81.8538 108.434 82.1303 108.243 82.5626 107.929C83.8642 107.006 85.1056 105.999 86.2776 104.916C86.6256 104.595 86.9337 104.232 87.1943 103.836C88.1735 102.185 88.1396 101.162 87.0595 100.303C86.6535 99.9185 86.1541 99.6481 85.611 99.5178C85.0671 99.3875 84.4992 99.4018 83.9636 99.56" stroke="#313553" stroke-width="0.258738" stroke-linecap="round" stroke-linejoin="round"/>
<path d="M82.8028 102.073C82.5068 102.58 82.4014 103.176 82.5053 103.753C82.5746 103.992 82.7027 104.211 82.8759 104.389C83.0499 104.568 83.2653 104.7 83.5026 104.776C83.7399 104.852 83.9922 104.868 84.237 104.823C84.4818 104.779 84.7123 104.674 84.9074 104.52C85.8316 103.779 87.2688 102.355 86.6398 101.41" stroke="#313553" stroke-width="0.258738" stroke-linecap="round" stroke-linejoin="round"/>
<path d="M83.3975 101.323C83.7003 100.946 84.0995 100.657 84.5522 100.486C84.8791 100.415 85.2203 100.471 85.5073 100.642" stroke="#313553" stroke-width="0.258738" stroke-linecap="round" stroke-linejoin="round"/>
<path d="M80.041 91.1758L80.908 92.8299L82.6118 94.4554L82.6216 94.4637" stroke="#313553" stroke-width="0.258738" stroke-linecap="round" stroke-linejoin="round"/>
<path d="M57.2818 99.4108C56.5296 99.0658 55.8436 98.5921 55.2549 98.0106C54.8547 97.4893 54.5777 96.8852 54.4444 96.2419C54.4161 96.0966 54.3504 95.961 54.254 95.8488C54.1575 95.7365 54.0334 95.6514 53.894 95.6017C53.7546 95.5512 53.6045 95.5392 53.4587 95.5648C53.3129 95.5904 53.1762 95.6537 53.0622 95.7478C52.6997 96.016 52.446 96.4054 52.3474 96.8453C52.2332 97.3507 52.2921 97.8795 52.5147 98.3465C52.7372 98.8143 53.1104 99.1939 53.5744 99.4236" stroke="#313553" stroke-width="0.258738" stroke-linecap="round" stroke-linejoin="round"/>
<path d="M79.4064 46.1399L53.1522 51.5482L52.6656 49.1822L44.7671 10.8483L73.8994 4.84499L76.2661 4.3584L83.5974 39.9294" stroke="#313553" stroke-width="0.258738" stroke-linecap="round" stroke-linejoin="round"/>
<path d="M52.6656 49.1834L50.2967 49.67L49.8078 47.3011L41.9116 8.97017L71.0417 2.96684L73.4106 2.47949L73.8995 4.84617V4.84843" stroke="#313553" stroke-width="0.258738" stroke-linecap="round" stroke-linejoin="round"/>
<path d="M49.8075 47.3008L47.4386 47.7904L39.0527 7.08758L70.5548 0.597656L71.0414 2.9666" stroke="#313553" stroke-width="0.258738" stroke-linecap="round" stroke-linejoin="round"/>
<path d="M50.8945 15.2322L72.3717 10.8076" stroke="#313553" stroke-width="0.258738" stroke-linecap="round" stroke-linejoin="round"/>
<path d="M53.0537 19.7264L74.5316 15.2988" stroke="#313553" stroke-width="0.258738" stroke-linecap="round" stroke-linejoin="round"/>
<path d="M51.1738 22.5831L75.0199 17.6689" stroke="#313553" stroke-width="0.258738" stroke-linecap="round" stroke-linejoin="round"/>
<path d="M51.6602 24.9505L75.5062 20.0371" stroke="#313553" stroke-width="0.258738" stroke-linecap="round" stroke-linejoin="round"/>
<path d="M52.1509 27.3207L68.8909 23.8701" stroke="#313553" stroke-width="0.258738" stroke-linecap="round" stroke-linejoin="round"/>
<path d="M55.0059 29.199L76.483 24.7744" stroke="#313553" stroke-width="0.258738" stroke-linecap="round" stroke-linejoin="round"/>
<path d="M53.1265 32.0557L76.9726 27.1445" stroke="#313553" stroke-width="0.258738" stroke-linecap="round" stroke-linejoin="round"/>
<path d="M53.6133 34.4232L77.4594 29.5098" stroke="#313553" stroke-width="0.258738" stroke-linecap="round" stroke-linejoin="round"/>
<path d="M56.4692 36.3067L77.9494 31.8799" stroke="#313553" stroke-width="0.258738" stroke-linecap="round" stroke-linejoin="round"/>
<path d="M54.5889 39.1614L78.435 34.248" stroke="#313553" stroke-width="0.258738" stroke-linecap="round" stroke-linejoin="round"/>
<path d="M55.0776 41.5306L78.9237 36.6172" stroke="#313553" stroke-width="0.258738" stroke-linecap="round" stroke-linejoin="round"/>
<path d="M62.6914 46.1336L65.1229 45.6342L68.0115 45.0384L74.0126 43.8008L75.1523 43.5651L77.0655 43.1719" stroke="#313553" stroke-width="0.258738" stroke-linecap="round" stroke-linejoin="round"/>
<path d="M69.7637 42.4806C69.6883 42.7555 69.2221 44.4849 69.8646 44.503C70.5583 44.5233 72.1401 40.5342 72.1401 40.5342C72.1401 40.5342 71.3658 43.7731 72.3028 43.8402C73.2399 43.9072 73.1035 41.536 73.9163 41.316C74.488 41.1601 74.0142 42.8534 74.0142 43.8017C74.0142 44.2085 74.1023 44.4797 74.3953 44.4043C74.7599 44.3139 74.9799 43.9697 75.1539 43.5652C75.4386 42.8873 75.6013 42.0429 76.109 41.9164" stroke="#313553" stroke-width="0.258738" stroke-linecap="round" stroke-linejoin="round"/>
<path d="M66.7505 43.6446C67.0819 44.4498 67.5791 45.0759 67.9979 44.9779C68.9507 44.7474 69.6603 42.7724 69.7612 42.4794C69.7631 42.4707 69.7656 42.4621 69.7687 42.4537V42.4463" stroke="#313553" stroke-width="0.258738" stroke-linecap="round" stroke-linejoin="round"/>
<path d="M66.7508 43.6451C67.5191 42.1951 67.9439 40.4943 67.025 40.7301C66.1332 40.9605 66.2755 42.4851 66.7508 43.6451Z" stroke="#313553" stroke-width="0.258738" stroke-linecap="round" stroke-linejoin="round"/>
<path d="M65.105 45.5472C65.6202 45.4079 66.2567 44.5793 66.7516 43.6445" stroke="#313553" stroke-width="0.258738" stroke-linecap="round" stroke-linejoin="round"/>
<path d="M61.2079 43.3135L60.017 45.1228L58.8262 46.9298" stroke="#313553" stroke-width="0.258738" stroke-linecap="round" stroke-linejoin="round"/>
<path d="M58.2061 43.9326L60.0161 45.1235L61.8231 46.3121" stroke="#313553" stroke-width="0.258738" stroke-linecap="round" stroke-linejoin="round"/>
<path d="M79.4249 46.134C79.8572 47.362 80.4907 48.5097 81.2989 49.5303C82.9598 51.6906 85.2881 53.2416 87.9214 53.9421L87.1915 58.3636C87.1509 58.6116 87.1591 58.8652 87.2156 59.11C87.2729 59.3548 87.3776 59.5859 87.5237 59.7903C87.6698 59.9946 87.8551 60.1681 88.0691 60.3009C88.2822 60.4337 88.5195 60.5231 88.7673 60.5642C89.0159 60.6052 89.269 60.5969 89.5138 60.5398C89.7586 60.4828 89.9898 60.3782 90.1947 60.2318C90.3988 60.0855 90.5721 59.9003 90.7054 59.6869C90.838 59.4735 90.9276 59.236 90.9683 58.988L91.7065 54.5115C92.8077 54.5348 93.9067 54.4137 94.9763 54.1515C96.6236 53.7573 98.1738 53.03 99.5296 52.0145C100.87 51.0022 102.011 49.7509 102.895 48.3236C103.823 46.8263 104.442 45.1581 104.714 43.4177C105.143 40.9444 104.914 38.4017 104.049 36.0451C103.184 33.6849 101.236 31.6119 98.2062 29.8262L96.0029 28.493L97.5456 19.1445C97.828 19.3569 98.0864 19.5992 98.3169 19.8669C98.8811 20.5456 99.1997 21.3949 99.2208 22.2773C99.2411 22.6094 99.3744 22.9247 99.5982 23.1711C99.8211 23.4176 100.122 23.5805 100.451 23.6331L105.812 24.5181C106.017 24.5526 106.225 24.5437 106.426 24.4919C106.627 24.4402 106.813 24.3469 106.975 24.218C107.137 24.089 107.271 23.9275 107.366 23.7438C107.461 23.5601 107.517 23.3584 107.529 23.1518C107.589 21.9714 107.491 20.7882 107.239 19.6335C106.9 18.037 106.259 16.5202 105.349 15.1652C104.448 13.8401 103.275 12.7212 101.908 11.8826C100.989 11.3131 99.9981 10.8673 98.9624 10.5569L99.6095 6.62951C99.6501 6.38147 99.6418 6.12777 99.5854 5.88297C99.5281 5.63809 99.4234 5.40692 99.2765 5.20257C99.1304 4.99822 98.9451 4.82474 98.7319 4.69202C98.518 4.55923 98.2807 4.46982 98.0322 4.42892C97.7844 4.38794 97.5305 4.39623 97.2857 4.45332C97.0409 4.51042 96.8097 4.61512 96.6055 4.76155C96.1928 5.05727 95.9148 5.50485 95.832 6.00583L95.1827 9.94301C94.1402 9.91047 93.0969 10.0017 92.0755 10.2149C90.4779 10.544 88.9677 11.2045 87.6412 12.1537C86.2522 13.1025 85.0689 14.3211 84.1612 15.7369C83.2084 17.2236 82.5749 18.8926 82.303 20.6375C81.7848 23.2764 82.1817 26.0132 83.4291 28.3959C84.7548 30.7672 86.723 32.7154 89.1085 34.0158L91.0301 35.1057L89.2901 45.6511C88.5685 45.3278 87.9937 44.7471 87.6774 44.0226C87.4115 43.409 87.2202 42.7657 87.1079 42.1064C87.0281 41.6303 86.8021 41.1911 86.4609 40.8497C86.1197 40.5082 85.6805 40.2817 85.2045 40.2014L83.5971 39.9371L81.3321 39.5604C80.9961 39.5055 80.6519 39.5254 80.3242 39.6187C79.9958 39.7119 79.693 39.8761 79.4362 40.0998C79.1786 40.3234 78.9744 40.6009 78.8366 40.9126C78.6987 41.2242 78.6317 41.5623 78.6392 41.9029C78.6551 42.9514 78.7989 43.9939 79.0693 45.007C79.1733 45.3935 79.2923 45.7686 79.4249 46.134Z" stroke="#313553" stroke-width="0.258738" stroke-linecap="round" stroke-linejoin="round"/>
<path d="M90.7038 24.3451C90.4357 23.5606 90.3641 22.7224 90.4944 21.9038C90.6662 20.7922 91.2379 19.7815 92.1018 19.0611C92.5869 18.643 93.1767 18.3647 93.8079 18.2559L92.4747 26.3306C91.6921 25.8689 91.0737 25.1749 90.7038 24.3451Z" stroke="#313553" stroke-width="0.258738" stroke-linecap="round" stroke-linejoin="round"/>
<path d="M94.4449 45.4423C94.0261 45.6889 93.5771 45.8803 93.1094 46.0117L94.5533 37.2666C95.1785 37.7358 95.6968 38.3325 96.0734 39.0171C96.5637 40.0149 96.7159 41.1454 96.5057 42.2372C96.4327 42.8942 96.2082 43.5254 95.8512 44.0813C95.4934 44.6374 95.0121 45.1031 94.4449 45.4423Z" stroke="#313553" stroke-width="0.258738" stroke-linecap="round" stroke-linejoin="round"/>
</svg>
