<svg width="133" height="145" viewBox="0 0 133 145" fill="none" xmlns="http://www.w3.org/2000/svg">
<path d="M62.8236 91.3291C62.6276 88.5293 63.0075 85.7189 63.9399 83.0713" stroke="black" stroke-width="0.564931" stroke-linecap="round" stroke-linejoin="round"/>
<path d="M64.155 52.5157L63.6255 43.0986" stroke="black" stroke-width="0.564931" stroke-linecap="round" stroke-linejoin="round"/>
<path d="M56.3115 59.2701L55.3955 43.5273" stroke="black" stroke-width="0.564931" stroke-linecap="round" stroke-linejoin="round"/>
<path d="M39.6812 59.5418L37.1338 57.624" stroke="black" stroke-width="0.564931" stroke-linecap="round" stroke-linejoin="round"/>
<path d="M37.1339 57.6235C42.8012 59.8132 41.7836 53.5598 40.0534 50.4821C38.2916 47.3486 35.9174 48.3353 35.7456 51.5125C35.7456 51.8989 35.5325 51.9388 34.9299 51.6127C33.6742 50.9348 33.1123 53.0725 34.9156 53.4589C35.1589 54.4464 35.3622 54.9895 35.6025 55.7774C35.8639 56.6353 36.3558 58.7692 36.5471 59.6415C37.4434 63.7534 38.2916 67.1415 40.012 69.7884C44.7167 77.033 50.717 79.463 58.2306 79.2039C58.8446 76.389 59.2038 73.5245 59.304 70.6456C64.6279 70.2019 65.9461 69.0517 70.3525 58.9244C70.7947 57.9075 71.2564 56.8206 71.7694 55.6184" stroke="black" stroke-width="0.564931" stroke-linecap="round" stroke-linejoin="round"/>
<path d="M40.7983 61.1869C40.0276 60.2762 39.4353 59.2285 39.0522 58.0986" stroke="black" stroke-width="0.564931" stroke-linecap="round" stroke-linejoin="round"/>
<path d="M64.1547 52.5117C63.0957 55.0878 60.6718 60.4328 58.5875 61.8572C55.9625 63.6514 44.1901 61.3992 44.1901 61.3992C42.2723 60.9985 40.5693 60.7838 39.0522 61.9574" stroke="black" stroke-width="0.564931" stroke-linecap="round" stroke-linejoin="round"/>
<path d="M43.3745 61.244L56.1977 57.3369" stroke="black" stroke-width="0.564931" stroke-linecap="round" stroke-linejoin="round"/>
<path d="M69.1064 43.7854C70.1226 42.8694 72.2701 40.3393 73.4858 38.9767C74.0454 38.3485 74.3143 40.0358 70.9956 43.9428" stroke="black" stroke-width="0.564931" stroke-linecap="round" stroke-linejoin="round"/>
<path d="M70.168 44.528C71.3272 43.7551 72.8224 42.5289 74.2181 41.451C74.8727 40.9455 75.3774 41.9089 71.9584 45.1147" stroke="black" stroke-width="0.564931" stroke-linecap="round" stroke-linejoin="round"/>
<path d="M71.0093 53.6601C72.1392 54.7146 71.9569 55.3059 71.7678 55.6185C70.7208 57.015 65.2184 55.0657 64.3349 52.8489C63.9771 51.9525 64.7235 51.3898 66.2684 51.5397" stroke="black" stroke-width="0.564931" stroke-linecap="round" stroke-linejoin="round"/>
<path d="M70.168 56.0791L71.0124 53.6605C71.7566 51.3849 71.9283 50.8268 71.5276 49.4099C71.2127 48.2936 70.8994 47.7664 71.5991 47.3491C75.3985 45.0848 75.4926 44.0446 74.7477 44.3007C73.1598 44.8476 72.1716 45.0592 71.1125 45.3311" stroke="black" stroke-width="0.564931" stroke-linecap="round" stroke-linejoin="round"/>
<path d="M66.5442 48.7515C66.1136 47.2995 65.4524 45.9261 64.5858 44.684C64.0706 43.9684 64.5858 43.2672 66.7897 45.6858" stroke="black" stroke-width="0.564931" stroke-linecap="round" stroke-linejoin="round"/>
<path d="M57.0426 42.0422C54.8002 42.8323 54.8469 44.2454 57.1858 44.79C59.0035 45.1976 60.904 45.0128 62.6091 44.2627C64.2135 43.4244 63.8143 42.3465 62.0818 41.8584" stroke="black" stroke-width="0.564931" stroke-linecap="round" stroke-linejoin="round"/>
<path d="M59.3744 39.6764C59.1597 39.1612 58.9879 38.7319 58.8162 38.3455C57.8524 36.2857 56.6517 34.3452 55.2383 32.5636C53.5164 30.636 53.1526 31.2017 54.2222 33.3221C55.969 36.787 57.3331 40.9246 57.1847 44.7857" stroke="black" stroke-width="0.564931" stroke-linecap="round" stroke-linejoin="round"/>
<path d="M55.7397 33.1666C55.6376 32.212 55.6762 31.2476 55.8542 30.3043C55.9258 30.0467 56.2956 29.8041 56.6271 31.4063C56.6979 31.7498 57.0285 33.2238 57.1709 33.7413C57.4147 34.7999 57.7254 35.842 58.1012 36.8612" stroke="black" stroke-width="0.564931" stroke-linecap="round" stroke-linejoin="round"/>
<path d="M58.8164 38.3472C59.5177 39.3204 60.1293 36.7428 60.5195 35.6852C60.8743 34.7249 61.6493 33.7969 61.4784 36.6012C61.3593 38.5762 62.0998 42.0923 62.6082 44.2579" stroke="black" stroke-width="0.564931" stroke-linecap="round" stroke-linejoin="round"/>
<path d="M68.177 69.4027L84.9072 65.2418C87.0118 64.7143 89.218 64.7488 91.3045 65.342C99.74 67.6708 107.89 70.9297 115.606 75.0588C115.462 79.3094 113.373 82.6726 110.754 85.8784C103.53 82.2688 95.9527 79.4163 88.1416 77.3667C88.1416 77.3667 71.8972 84.0442 66.2735 83.5064C60.3764 82.943 58.2139 79.17 58.2139 79.17" stroke="black" stroke-width="0.564931" stroke-linecap="round" stroke-linejoin="round"/>
<path d="M85.5346 65.0805C95.1219 56.4688 104.21 47.3182 112.758 37.6731C110.41 33.6056 107.434 30.7433 103.67 29.3438C92.6852 41.7834 80.7666 53.3667 68.0195 63.9928" stroke="black" stroke-width="0.564931" stroke-linecap="round" stroke-linejoin="round"/>
<path d="M130.317 84.4013C130.26 83.8861 127.898 82.8413 125.15 81.7966C122.574 80.8091 118.009 78.633 115.347 77.3027C114.809 79.6769 113.775 81.9103 112.313 83.8559C114.402 84.8577 116.406 86.0456 117.623 86.1458C118.427 86.1932 119.234 86.0863 119.998 85.8309C123.233 84.802 130.502 86.2475 130.317 84.4013Z" stroke="black" stroke-width="0.564931" stroke-linecap="round" stroke-linejoin="round"/>
<path d="M117.02 16.9504C116.504 16.8931 114.986 18.9969 113.384 21.4585C111.982 23.6196 108.647 27.913 106.4 30.7038C108.33 31.958 110.002 33.571 111.324 35.4552C112.926 33.2226 115.631 31.1761 116.061 29.7306C116.272 28.9525 116.334 28.1419 116.247 27.3406C115.934 23.9638 118.868 17.1507 117.02 16.9504Z" stroke="black" stroke-width="0.564931" stroke-linecap="round" stroke-linejoin="round"/>
<path d="M45.5059 60.601C45.5529 60.2276 45.5286 59.8488 45.4344 59.4846C45.3727 59.3573 45.2968 59.2373 45.2084 59.1269C45.7173 59.1904 46.2322 59.0709 46.6611 58.7898C47.09 58.5087 47.405 58.0842 47.5499 57.5923C47.6948 57.1003 47.66 56.5729 47.4519 56.1043C47.2437 55.6356 46.8757 55.2561 46.4136 55.0337C46.9254 54.9696 47.3975 54.7251 47.7452 54.3441C48.0929 53.9632 48.2933 53.4707 48.3106 52.9552C48.3278 52.4397 48.1607 51.935 47.8393 51.5316C47.5178 51.1283 47.063 50.8528 46.5567 50.7546C46.9268 50.5125 47.2141 50.1631 47.3802 49.7532C47.5463 49.3433 47.5832 48.8925 47.4861 48.461C47.389 48.0296 47.1623 47.6381 46.8366 47.339C46.5108 47.0399 46.1015 46.8474 45.6634 46.7873C45.4888 46.7623 45.3118 46.7576 45.1361 46.773C45.3266 46.5005 45.4493 46.1865 45.4939 45.857C45.5333 45.5751 45.5167 45.2882 45.4452 45.0127C45.3735 44.7372 45.2483 44.4786 45.0766 44.2515C44.9049 44.0245 44.6901 43.8335 44.4445 43.6896C44.199 43.5457 43.9274 43.4516 43.6454 43.4127C43.2197 43.3523 42.7857 43.4222 42.4003 43.6131C42.4266 43.5242 42.4458 43.4332 42.4576 43.3412C42.5226 42.8716 42.4318 42.3937 42.1993 41.9806C41.9667 41.5675 41.6052 41.2421 41.17 41.0541C40.7348 40.866 40.2501 40.8258 39.7899 40.9396C39.3297 41.0534 38.9195 41.3149 38.6221 41.6841C38.6246 41.16 38.4378 40.6528 38.0959 40.2557C37.754 39.8586 37.2801 39.5984 36.7616 39.523L36.6185 39.4944C36.1127 39.4257 35.5989 39.5372 35.1672 39.8093C34.7354 40.0815 34.4132 40.4969 34.257 40.9828C34.0883 40.531 33.7738 40.1483 33.3632 39.8953C32.9527 39.6423 32.4695 39.5333 31.99 39.5857C31.5106 39.638 31.0623 39.8487 30.7161 40.1844C30.3698 40.5202 30.1453 40.9617 30.0781 41.4393C30.0662 41.5053 30.0614 41.5725 30.0638 41.6396C29.7346 41.3117 29.3075 41.1002 28.8473 41.037C28.5655 40.997 28.2786 41.0131 28.003 41.0843C27.7275 41.1555 27.4688 41.2805 27.2417 41.4521C27.0146 41.6237 26.8237 41.8384 26.6799 42.084C26.5361 42.3296 26.4422 42.6012 26.4038 42.8832C26.3623 43.1864 26.388 43.495 26.4791 43.7871C26.2933 43.7006 26.0955 43.6427 25.8923 43.6154C25.6104 43.5757 25.3234 43.592 25.0478 43.6634C24.7722 43.7347 24.5133 43.8597 24.286 44.0312C24.0587 44.2026 23.8674 44.4172 23.7231 44.6627C23.5788 44.9081 23.4843 45.1795 23.445 45.4616C23.4061 45.7516 23.4252 46.0465 23.5014 46.3291C23.5775 46.6117 23.7092 46.8762 23.8887 47.1074C23.3784 47.0462 22.8631 47.1685 22.4347 47.4522C22.0063 47.736 21.6927 48.1628 21.5499 48.6565C21.4071 49.1501 21.4445 49.6784 21.6553 50.1471C21.8662 50.6158 22.2368 50.9942 22.7008 51.2148C22.1918 51.2813 21.723 51.527 21.3785 51.9076C21.034 52.2883 20.8363 52.7792 20.8208 53.2924C20.8053 53.8056 20.973 54.3075 21.2939 54.7083C21.6148 55.1091 22.0679 55.3825 22.572 55.4797C22.3155 55.6481 22.0984 55.8698 21.9354 56.1299C21.7724 56.3898 21.6674 56.6819 21.6275 56.9861C21.5504 57.5533 21.7004 58.1278 22.0447 58.585C22.389 59.0421 22.8998 59.3448 23.4661 59.4274C23.6408 59.4554 23.8188 59.4554 23.9934 59.4274C23.8134 59.704 23.6962 60.0166 23.6499 60.3433C23.5957 60.7338 23.6488 61.1316 23.8035 61.4942C23.9582 61.8568 24.2088 62.1703 24.5283 62.4013C24.8477 62.6323 25.224 62.7719 25.6168 62.8052C26.0096 62.8385 26.4041 62.7642 26.7578 62.5903C26.7316 62.6744 26.7124 62.7606 26.7005 62.8479C26.6595 63.13 26.6748 63.4175 26.7455 63.6937C26.8163 63.9698 26.9411 64.2292 27.1129 64.4569C27.2845 64.6845 27.4996 64.8757 27.7458 65.0196C27.992 65.1636 28.2642 65.2572 28.5467 65.2951C28.9196 65.3498 29.3003 65.3043 29.6498 65.1635C29.9993 65.0226 30.3052 64.7915 30.536 64.4937C30.5354 65.0091 30.7186 65.5079 31.0529 65.9002C31.3872 66.2926 31.8506 66.5528 32.3596 66.6338C32.8687 66.7149 33.3899 66.6117 33.8296 66.3426C34.2692 66.0736 34.5985 65.6565 34.7579 65.1663C34.8769 65.4967 35.0748 65.793 35.3344 66.0295C35.5941 66.2658 35.9076 66.4352 36.2477 66.5227C36.5878 66.6101 36.9441 66.6132 37.2856 66.5314C37.6271 66.4497 37.9435 66.2857 38.207 66.0537" stroke="black" stroke-width="0.564931" stroke-linecap="round" stroke-linejoin="round"/>
<path d="M36.6484 60.0725L39.6825 59.543" stroke="black" stroke-width="0.564931" stroke-linecap="round" stroke-linejoin="round"/>
<path d="M118.925 125.175C117.841 124.806 116.848 124.21 116.012 123.428C115.175 122.645 114.515 121.695 114.073 120.638L112.256 116.316L119.24 113.511L119.898 115.056C120.605 116.741 121.932 118.09 123.605 118.823L131.39 122.257C131.496 122.302 131.592 122.367 131.671 122.449C131.751 122.532 131.813 122.629 131.854 122.736C131.896 122.843 131.915 122.956 131.912 123.071C131.909 123.185 131.882 123.298 131.834 123.402C131.173 124.877 129.984 126.052 128.502 126.695C127.019 127.339 125.349 127.405 123.82 126.88L118.925 125.175Z" stroke="black" stroke-width="0.564931" stroke-linecap="round" stroke-linejoin="round"/>
<path d="M112.257 116.316L119.241 113.511L117.008 108.244C116.944 108.098 116.827 107.983 116.68 107.922C116.533 107.86 116.369 107.858 116.221 107.915L110.382 110.25C110.307 110.281 110.239 110.326 110.183 110.382C110.126 110.44 110.08 110.507 110.05 110.582C110.019 110.656 110.004 110.736 110.004 110.817C110.005 110.898 110.021 110.977 110.053 111.051L112.257 116.316Z" stroke="black" stroke-width="0.564931" stroke-linecap="round" stroke-linejoin="round"/>
<path d="M62.7812 55.6064C63.718 56.6858 64.8836 57.5428 66.1932 58.1151C67.5026 58.6873 68.9239 58.9605 70.3521 58.9147" stroke="black" stroke-width="0.564931" stroke-linecap="round" stroke-linejoin="round"/>
<path d="M55.582 46.6758C56.894 47.221 58.3079 47.477 59.7278 47.4265C61.1476 47.376 62.5398 47.02 63.8097 46.3828" stroke="black" stroke-width="0.564931" stroke-linecap="round" stroke-linejoin="round"/>
<path d="M17.6416 94.1914L82.2012 125.562" stroke="black" stroke-width="0.564931" stroke-linecap="round" stroke-linejoin="round"/>
<path d="M95.4689 126.735C95.8493 125.951 95.9028 125.048 95.6188 124.224C95.3341 123.401 94.7345 122.724 93.9519 122.341L88.6566 119.78C87.8725 119.4 86.9701 119.346 86.1461 119.63C85.3228 119.915 84.6456 120.515 84.263 121.297L76.8353 136.582C76.4549 137.366 76.4014 138.268 76.6854 139.092C76.9701 139.916 77.5697 140.593 78.3523 140.976L83.6476 143.552C84.4317 143.932 85.3341 143.985 86.1581 143.702C86.9814 143.417 87.6586 142.817 88.0412 142.035L95.4689 126.735Z" stroke="black" stroke-width="0.564931" stroke-linecap="round" stroke-linejoin="round"/>
<path d="M15.5386 84.2437L17.7282 79.7498C18.8036 77.5383 20.7129 75.8435 23.0367 75.0383C25.3606 74.2339 27.9089 74.3838 30.1221 75.4564L89.2002 104.155C91.4118 105.23 93.1065 107.139 93.9117 109.464C94.7162 111.787 94.5663 114.336 93.4937 116.549L91.304 121.057" stroke="black" stroke-width="0.564931" stroke-linecap="round" stroke-linejoin="round"/>
<path d="M7.88135 106.742L78.3658 140.975" stroke="black" stroke-width="0.564931" stroke-linecap="round" stroke-linejoin="round"/>
<path d="M118.31 47.707L119.455 55.0346" stroke="black" stroke-width="0.564931" stroke-linecap="round" stroke-linejoin="round"/>
<path d="M122.547 50.7979L115.219 51.9428" stroke="black" stroke-width="0.564931" stroke-linecap="round" stroke-linejoin="round"/>
<path d="M32.812 21.4449C32.8114 22.376 32.5347 23.2861 32.017 24.06C31.4993 24.8339 30.7637 25.4369 29.9033 25.7929C29.0429 26.1488 28.0963 26.2416 27.183 26.0596C26.2699 25.8775 25.4312 25.4289 24.7731 24.7703C24.1149 24.1116 23.6667 23.2727 23.4852 22.3594C23.3039 21.4461 23.3973 20.4995 23.7537 19.6393C24.1102 18.7791 24.7137 18.044 25.488 17.5267C26.2621 17.0095 27.1724 16.7334 28.1035 16.7334C28.7223 16.7327 29.3351 16.8541 29.9069 17.0907C30.4787 17.3273 30.9981 17.6743 31.4355 18.112C31.873 18.5497 32.2197 19.0694 32.4559 19.6413C32.6921 20.2132 32.8131 20.8261 32.812 21.4449Z" stroke="black" stroke-width="0.564931" stroke-linecap="round" stroke-linejoin="round"/>
<path d="M27.2327 13.4013C27.8295 14.4082 28.1312 15.5626 28.1034 16.7329C27.0346 16.2656 26.1176 15.5091 25.4558 14.5485C24.8577 13.5409 24.5551 12.3853 24.5828 11.2139C25.6528 11.6816 26.5707 12.4392 27.2327 13.4013Z" stroke="black" stroke-width="0.564931" stroke-linecap="round" stroke-linejoin="round"/>
<path d="M59.2205 72.6922L50.8882 70.834" stroke="black" stroke-width="0.564931" stroke-linecap="round" stroke-linejoin="round"/>
<path d="M59.3035 70.6484C54.2655 71.0985 49.1918 70.9448 44.1904 70.1904" stroke="black" stroke-width="0.564931" stroke-linecap="round" stroke-linejoin="round"/>
<path d="M7.20801 63.0918L7.53717 64.9237" stroke="black" stroke-width="0.564931" stroke-linecap="round" stroke-linejoin="round"/>
<path d="M6.10629 66.9561L4.27441 67.2852" stroke="black" stroke-width="0.564931" stroke-linecap="round" stroke-linejoin="round"/>
<path d="M11.4027 66.0391L9.5708 66.3539" stroke="black" stroke-width="0.564931" stroke-linecap="round" stroke-linejoin="round"/>
<path d="M8.4545 70.2186L8.13965 68.3867" stroke="black" stroke-width="0.564931" stroke-linecap="round" stroke-linejoin="round"/>
<path d="M9.57037 66.355C9.34282 66.3952 9.10954 66.3901 8.88395 66.3398C8.65835 66.2896 8.44496 66.1953 8.25597 66.0623C8.06691 65.9293 7.90609 65.7602 7.78263 65.5648C7.65918 65.3694 7.57557 65.1516 7.53663 64.9238C7.57685 65.1514 7.57173 65.3847 7.52149 65.6103C7.47124 65.8359 7.37694 66.0492 7.24392 66.2383C7.11097 66.4273 6.94187 66.5881 6.74655 66.7116C6.55116 66.835 6.33332 66.9186 6.10547 66.9576C6.3331 66.9174 6.56638 66.9225 6.7919 66.9727C7.01749 67.023 7.23096 67.1173 7.41995 67.2503C7.60894 67.3833 7.76975 67.5523 7.89321 67.7477C8.01667 67.9431 8.10028 68.161 8.13922 68.3887C8.09899 68.1612 8.10412 67.9279 8.15436 67.7023C8.2046 67.4767 8.29891 67.2633 8.43193 67.0743C8.56495 66.8853 8.73398 66.7245 8.92937 66.601C9.12476 66.4775 9.34259 66.3939 9.57037 66.355Z" stroke="black" stroke-width="0.564931" stroke-linecap="round" stroke-linejoin="round"/>
<path d="M107.934 84.5156C109.192 89.8184 108.508 95.3969 106.006 100.239C103.503 105.081 99.3484 108.865 94.2949 110.906" stroke="black" stroke-width="0.564931" stroke-linecap="round" stroke-linejoin="round"/>
<path d="M65.0278 53.8025C65.586 52.772 66.2586 51.5556 66.2586 51.5556C66.5735 50.9115 66.4982 45.8008 66.9885 44.7011C67.1166 44.4148 69.5096 41.6128 70.638 40.2502C71.5983 39.0924 72.4842 38.9621 70.0941 42.7833" stroke="black" stroke-width="0.564931" stroke-linecap="round" stroke-linejoin="round"/>
<path d="M19.7007 89.9262C20.0808 89.1421 20.1346 88.2397 19.8502 87.4156C19.5659 86.5923 18.9665 85.9152 18.1837 85.5325L12.9027 82.9715C12.1187 82.5911 11.216 82.5376 10.3924 82.8216C9.5688 83.1063 8.89149 83.7059 8.50907 84.4885L1.06705 99.7733C0.686968 100.557 0.633186 101.46 0.917534 102.284C1.20188 103.107 1.80124 103.784 2.58408 104.167L7.87936 106.743C8.66341 107.123 9.56609 107.177 10.3897 106.893C11.2133 106.608 11.8906 106.009 12.273 105.226L19.7007 89.9262Z" stroke="black" stroke-width="0.564931" stroke-linecap="round" stroke-linejoin="round"/>
<path d="M81.9865 0.764648L81.8291 15.1335L90.8454 30.7617L91.0028 16.3929L81.9865 0.764648Z" stroke="black" stroke-width="0.564931" stroke-linejoin="round"/>
<path d="M85.5672 21.668L80.8443 26.3622L79.542 42.1478L90.8624 30.8274L85.5672 21.668Z" stroke="black" stroke-width="0.564931" stroke-linejoin="round"/>
</svg>
