<svg width="145" height="116" viewBox="0 0 145 116" fill="none" xmlns="http://www.w3.org/2000/svg">
<path d="M118.229 56.6727L120.251 53.8018" stroke="black" stroke-width="0.564931" stroke-linecap="round" stroke-linejoin="round"/>
<path d="M128.582 41.9377L143.881 20.084L116.861 1.16406L103.995 19.5258" stroke="black" stroke-width="0.564931" stroke-linecap="round" stroke-linejoin="round"/>
<path d="M101.848 80.121L108.26 70.9473" stroke="black" stroke-width="0.564931" stroke-linecap="round" stroke-linejoin="round"/>
<path d="M41.5234 90.5967L77.0734 115.485L94.3618 90.8114" stroke="black" stroke-width="0.564931" stroke-linecap="round" stroke-linejoin="round"/>
<path d="M23.6493 37.8165L19.685 35.04L0.765137 62.0603L30.5046 82.8836" stroke="black" stroke-width="0.564931" stroke-linecap="round" stroke-linejoin="round"/>
<path d="M75.8868 59.6699L68.9743 69.5449L66.5557 67.8561" stroke="black" stroke-width="0.564931" stroke-linecap="round" stroke-linejoin="round"/>
<path d="M57.8833 24.7074L65.8405 13.3297L73.3541 18.5821L82.2273 5.93066" stroke="black" stroke-width="0.564931" stroke-linecap="round" stroke-linejoin="round"/>
<path d="M76.6313 6.90385L82.2272 5.93066L83.2147 11.5122" stroke="black" stroke-width="0.564931" stroke-linecap="round" stroke-linejoin="round"/>
<path d="M23.0482 22.6467L28.2004 21.7307C31.2668 21.1733 30.3893 16.6358 27.399 17.1796L24.5223 17.6662C21.4589 18.1882 20.7267 13.6259 23.7209 13.1152L28.873 12.1992" stroke="black" stroke-width="0.564931" stroke-linecap="round" stroke-linejoin="round"/>
<path d="M24.8511 11.167L27.0694 23.6753" stroke="black" stroke-width="0.564931" stroke-linecap="round" stroke-linejoin="round"/>
<path d="M74.2124 79.2338L80.4236 78.1318" stroke="black" stroke-width="0.564931" stroke-linecap="round" stroke-linejoin="round"/>
<path d="M76.7739 75.5693L77.8616 81.7949" stroke="black" stroke-width="0.564931" stroke-linecap="round" stroke-linejoin="round"/>
<path d="M112.953 91.0411L121.64 89.5098" stroke="black" stroke-width="0.564931" stroke-linecap="round" stroke-linejoin="round"/>
<path d="M116.531 85.9316L118.063 94.6331" stroke="black" stroke-width="0.564931" stroke-linecap="round" stroke-linejoin="round"/>
<path d="M44.4867 109.374C45.6012 109.374 46.5046 108.471 46.5046 107.356C46.5046 106.241 45.6012 105.338 44.4867 105.338C43.3722 105.338 42.4688 106.241 42.4688 107.356C42.4688 108.471 43.3722 109.374 44.4867 109.374Z" stroke="black" stroke-width="0.564931" stroke-linecap="round" stroke-linejoin="round"/>
<path d="M25.6819 87.7765L14.5762 89.1647L12.501 72.5181L32.6517 70" stroke="black" stroke-width="0.564931" stroke-linecap="round" stroke-linejoin="round"/>
<path d="M49.8269 20.6252C50.6927 20.2505 51.4289 19.6291 51.9435 18.8385C52.6734 17.6333 51.2566 16.1909 50.0544 17.5648C50.1403 15.9762 48.1939 16.3054 48.0207 17.1927C47.9017 16.9875 47.7191 16.8267 47.5005 16.7346C47.2819 16.6426 47.0392 16.6243 46.8093 16.6825C46.5793 16.7408 46.3747 16.8724 46.2263 17.0574C46.0779 17.2425 45.9939 17.4708 45.9869 17.7079C45.2857 16.8793 43.8545 17.1806 44.0978 18.4378C43.1103 17.4789 40.5771 18.0514 44.6251 25.7939" stroke="black" stroke-width="0.564931" stroke-linecap="round" stroke-linejoin="round"/>
<path d="M47.0385 27.8417C46.8281 27.2433 46.7157 26.6148 46.7056 25.9805C47.8354 27.1216 49.0097 28.0534 49.5634 27.6248" stroke="black" stroke-width="0.564931" stroke-linecap="round" stroke-linejoin="round"/>
<path d="M31.3068 37.3145C29.7468 48.821 29.3965 55.3485 30.6627 61.5583C31.816 67.2128 33.8685 74.8537 34.9276 78.4173C30.0044 83.4407 20.3584 93.0723 19.3423 94.2745" stroke="black" stroke-width="0.564931" stroke-linecap="round" stroke-linejoin="round"/>
<path d="M20.444 96.7647C19.3277 95.8488 18.9435 94.8206 19.342 94.2745C19.9039 93.5047 22.1056 93.7134 26.4119 96.6096C30.2203 99.1706 31.7109 101.105 31.378 101.807C31.1799 102.223 30.3189 102.208 28.9021 101.592" stroke="black" stroke-width="0.564931" stroke-linecap="round" stroke-linejoin="round"/>
<path d="M58.4985 95.9783C57.1819 95.735 56.4452 95.3049 56.5092 94.6903C56.6004 93.8165 58.427 93.2727 63.2214 93.5454C67.7408 93.8022 69.0213 94.7754 69.0748 95.4917C69.1064 95.9211 68.488 96.3075 67.0282 96.3075" stroke="black" stroke-width="0.564931" stroke-linecap="round" stroke-linejoin="round"/>
<path d="M31.3638 101.787C46.3194 85.5291 46.9709 84.4836 47.3325 81.8081C47.5291 80.3619 47.4756 78.5451 46.3736 69.2998" stroke="black" stroke-width="0.564931" stroke-linecap="round" stroke-linejoin="round"/>
<path d="M17.7394 99.8419C18.6561 98.2677 33.9114 109.288 32.8524 110.876C32.0253 112.121 16.3805 102.175 17.7394 99.8419Z" stroke="black" stroke-width="0.564931" stroke-linecap="round" stroke-linejoin="round"/>
<path d="M57.5687 100.044C57.7081 98.3268 75.1283 101.504 74.8714 103.293C74.6703 104.695 57.3631 102.577 57.5687 100.044Z" stroke="black" stroke-width="0.564931" stroke-linecap="round" stroke-linejoin="round"/>
<path d="M22.547 94.4326C21.0156 96.0212 18.5684 98.9521 17.7383 99.8281" stroke="black" stroke-width="0.564931" stroke-linecap="round" stroke-linejoin="round"/>
<path d="M29.1623 98.6689C26.9726 102.633 33.5416 106.397 32.8532 110.877" stroke="black" stroke-width="0.564931" stroke-linecap="round" stroke-linejoin="round"/>
<path d="M57.5679 100.042C57.94 97.7955 58.5411 97.3518 58.7414 93.5879" stroke="black" stroke-width="0.564931" stroke-linecap="round" stroke-linejoin="round"/>
<path d="M66.2257 93.8896C65.9997 98.5982 74.3118 98.7556 74.8842 103.292" stroke="black" stroke-width="0.564931" stroke-linecap="round" stroke-linejoin="round"/>
<path d="M56.5224 94.6899C56.7084 89.9671 56.136 77.2298 55.907 75.1546C42.082 66.2957 36.7581 64.6356 35.8994 60.7285" stroke="black" stroke-width="0.564931" stroke-linecap="round" stroke-linejoin="round"/>
<path d="M69.0746 95.492C68.2016 72.5363 67.9448 69.8751 66.1408 67.1837C64.3789 64.5512 62.9207 63.4341 55.2354 58.7256" stroke="black" stroke-width="0.564931" stroke-linecap="round" stroke-linejoin="round"/>
<path d="M18.5118 60.3144C17.6531 48.8508 17.7397 44.3902 19.5708 41.6785C22.2072 37.7865 29.8608 33.5631 37.9183 31.4344C48.0365 28.7574 52.144 29.1303 53.9902 30.7904C55.4966 32.1507 55.9486 34.2839 56.3945 48.42C59.1634 48.7477 65.5976 49.5235 66.8992 49.7532C68.7454 51.3704 69.0602 56.909 66.8992 58.9556C56.7952 58.9556 52.1854 58.8433 50.1546 57.5673C47.0182 55.5961 46.4336 53.7175 45.0025 40.5366C44.6741 44.5446 44.5453 48.7793 44.4752 50.7204" stroke="black" stroke-width="0.564931" stroke-linecap="round" stroke-linejoin="round"/>
<path d="M55.564 48.3213L56.3925 48.4192" stroke="black" stroke-width="0.564931" stroke-linecap="round" stroke-linejoin="round"/>
<path d="M20.057 60.7301C19.0123 60.7587 18.5242 60.587 18.4971 60.3151C18.4526 59.8714 19.9425 59.1664 23.134 58.8553C26.397 58.5367 28.0715 58.9125 28.1431 59.3419C28.186 59.5995 27.8139 59.9143 26.6833 60.0861" stroke="black" stroke-width="0.564931" stroke-linecap="round" stroke-linejoin="round"/>
<path d="M30.2921 45.9157C28.8753 46.388 26.5568 47.0893 25.3403 47.4222C27.1292 46.2927 28.854 45.0647 30.5068 43.7441" stroke="black" stroke-width="0.564931" stroke-linecap="round" stroke-linejoin="round"/>
<path d="M28.1574 59.3556C28.0143 56.3502 27.814 49.9529 27.814 46.7012" stroke="black" stroke-width="0.564931" stroke-linecap="round" stroke-linejoin="round"/>
<path d="M18.2407 56.4212C19.4858 54.6322 26.7847 54.0025 27.9869 55.216" stroke="black" stroke-width="0.564931" stroke-linecap="round" stroke-linejoin="round"/>
<path d="M62.6486 49.1807C64.4518 50.8265 64.2801 57.0807 61.9902 58.9412" stroke="black" stroke-width="0.564931" stroke-linecap="round" stroke-linejoin="round"/>
<path d="M29.9604 56.0205C32.9079 53.8888 39.0867 52.8011 46.7826 52.7002" stroke="black" stroke-width="0.564931" stroke-linecap="round" stroke-linejoin="round"/>
<path d="M29.8887 53.759C32.6493 51.7252 39.0029 50.697 46.3372 50.6963" stroke="black" stroke-width="0.564931" stroke-linecap="round" stroke-linejoin="round"/>
<path d="M26.3688 58.7686C26.3452 59.2853 26.4965 59.7945 26.7981 60.214C27.0241 60.5003 28.5306 61.8433 28.859 62.3321C29.2205 62.8737 29.4028 65.1515 29.1166 65.3948C28.7445 65.7104 26.24 65.9673 25.2382 65.9673C24.5226 65.9673 24.6943 64.7508 27.0557 64.1497C25.0973 64.2642 23.7784 63.6917 23.4492 61.9887" stroke="black" stroke-width="0.564931" stroke-linecap="round" stroke-linejoin="round"/>
<path d="M20.1132 59.3838C19.9987 61.4876 20.037 63.5967 20.2276 65.6952" stroke="black" stroke-width="0.564931" stroke-linecap="round" stroke-linejoin="round"/>
<path d="M22.132 65.8809C22.0567 64.5785 23.6084 64.4068 23.7636 65.6549C23.8796 66.5852 23.9368 67.2435 24.0069 67.9899C24.0543 68.2159 24.0101 68.4509 23.8839 68.6445C23.7578 68.8373 23.56 68.9729 23.3342 69.0204C23.1084 69.0678 22.8729 69.0234 22.6797 68.8976C22.4864 68.7711 22.3512 68.5737 22.3038 68.3477C22.2044 67.529 22.147 66.7057 22.132 65.8809Z" stroke="black" stroke-width="0.564931" stroke-linecap="round" stroke-linejoin="round"/>
<path d="M27.2985 65.8242C27.4274 66.4268 27.5313 66.9111 27.642 67.4414C27.6946 67.6561 27.6637 67.8828 27.5556 68.0749C27.4475 68.2677 27.2703 68.4124 27.0598 68.4794C26.8493 68.5464 26.6212 68.5306 26.4216 68.4357C26.2221 68.3415 26.066 68.1743 25.9849 67.9687C25.8179 67.3096 25.6935 66.64 25.6128 65.9651" stroke="black" stroke-width="0.564931" stroke-linecap="round" stroke-linejoin="round"/>
<path d="M20.4872 65.8813C20.4872 64.6219 21.9937 64.536 22.0758 65.7525C22.136 66.6564 22.1511 67.2982 22.1759 68.0122C22.2035 68.2314 22.1445 68.4521 22.0116 68.6284C21.8786 68.8047 21.6822 68.9222 21.464 68.9553C21.2459 68.9892 21.0233 68.9365 20.8435 68.8084C20.6637 68.6804 20.541 68.4868 20.5015 68.2699C20.4307 67.6703 20.4872 67.0263 20.4872 65.8813Z" stroke="black" stroke-width="0.564931" stroke-linecap="round" stroke-linejoin="round"/>
<path d="M25.5806 65.967C25.6951 66.654 25.7689 67.1978 25.8525 67.7989C25.9032 68.0241 25.8644 68.2599 25.7442 68.4565C25.6241 68.6531 25.4321 68.7954 25.2088 68.8527C24.9856 68.9107 24.7487 68.8791 24.5484 68.7653C24.3479 68.6516 24.1998 68.464 24.1352 68.2426C23.9979 67.4133 23.9024 66.5772 23.8489 65.738C23.7329 64.6217 24.8221 64.2783 25.3087 64.9366" stroke="black" stroke-width="0.564931" stroke-linecap="round" stroke-linejoin="round"/>
<path d="M74.1555 58.324C74.3242 57.1354 72.9902 56.7912 72.6957 57.909C72.579 58.3519 72.4245 58.9537 72.3236 59.4155C72.2707 59.6189 72.3 59.8358 72.405 60.0181C72.5104 60.2004 72.6829 60.3337 72.8855 60.3902C73.0881 60.4467 73.3051 60.4211 73.4889 60.3186C73.6727 60.2169 73.8098 60.0467 73.8693 59.8448C73.9905 59.3432 74.0862 58.8355 74.1555 58.324Z" stroke="black" stroke-width="0.564931" stroke-linecap="round" stroke-linejoin="round"/>
<path d="M72.6373 57.9655C72.9454 56.7829 71.5444 56.3467 71.1776 57.4646C71.0322 57.9075 70.828 58.5364 70.7339 58.8528C70.3987 59.9774 71.9233 60.4707 72.2366 59.4825C72.4091 58.9386 72.5439 58.3232 72.6373 57.9655Z" stroke="black" stroke-width="0.564931" stroke-linecap="round" stroke-linejoin="round"/>
<path d="M71.092 57.6238C71.4528 56.4894 70.2077 56.0081 69.6895 57.0514C69.5471 57.3383 69.3279 57.8513 69.1313 58.368C69.0364 58.5578 69.0208 58.7778 69.0879 58.9789C69.1551 59.18 69.2994 59.3465 69.4891 59.4414C69.6789 59.5363 69.8986 59.5521 70.0999 59.4851C70.3012 59.418 70.4676 59.2734 70.5625 59.0836C70.7162 58.7529 70.9738 57.9944 71.092 57.6238Z" stroke="black" stroke-width="0.564931" stroke-linecap="round" stroke-linejoin="round"/>
<path d="M75.6569 58.5401C75.6953 57.3808 74.4366 57.1089 74.2257 58.2109C74.1383 58.6689 74.0073 59.5667 73.9824 59.8138C73.9915 59.9983 74.0653 60.1731 74.1911 60.3087C74.3169 60.4435 74.4863 60.5301 74.6694 60.552C74.8532 60.5746 75.0385 60.5309 75.1929 60.43C75.3473 60.329 75.461 60.1769 75.5138 59.9999C75.5891 59.5163 75.6365 59.0289 75.6569 58.5401Z" stroke="black" stroke-width="0.564931" stroke-linecap="round" stroke-linejoin="round"/>
<path d="M64.3654 93.646C63.7628 74.1966 63.979 71.0194 62.5622 68.9156C60.5578 65.9388 58.1505 64.6146 46.9626 57.9815C45.1299 56.8954 44.5868 55.6774 44.501 52.7842" stroke="black" stroke-width="0.564931" stroke-linecap="round" stroke-linejoin="round"/>
<path d="M41.3643 66.2969C43.644 71.0159 45.6657 75.8555 47.4203 80.7945" stroke="black" stroke-width="0.564931" stroke-linecap="round" stroke-linejoin="round"/>
<path d="M90.0557 12.3984C91.0432 18.0477 91.3294 18.8951 92.2167 18.9961C93.0897 19.0955 93.6336 18.7385 95.537 16.6776C95.3238 17.6674 94.9186 18.6056 94.3439 19.439" stroke="black" stroke-width="0.564931" stroke-linecap="round" stroke-linejoin="round"/>
<path d="M94.3763 10.4665C94.2761 9.47896 93.9469 9.2786 91.0846 9.07823C88.0219 8.86356 87.7929 9.36447 88.1078 10.996C88.437 12.7849 89.7536 12.4987 92.8879 12.1552C93.8038 13.3145 94.4049 13.9299 94.4049 13.2143C94.4049 11.8833 95.7931 11.9119 95.8217 14.0428C96.3151 14.7339 96.8876 15.3658 97.5256 15.9259C96.8951 10.8536 96.7678 10.6811 94.3763 10.4665Z" stroke="black" stroke-width="0.564931" stroke-linecap="round" stroke-linejoin="round"/>
<path d="M94.3788 17.8838C94.4759 19.1643 94.3155 20.716 93.3898 21.2432C90.6849 22.8032 89.5987 23.4337 88.6813 24.7353C86.924 27.2277 87.0354 28.8856 86.7063 39.9628C83.386 42.8251 79.2492 46.0452 77.7329 47.4048" stroke="black" stroke-width="0.564931" stroke-linecap="round" stroke-linejoin="round"/>
<path d="M77.9898 48.8933C77.3872 48.1634 77.3872 47.6377 77.7322 47.4049C78.2075 47.081 79.5761 47.6068 81.6679 49.9953C83.9125 52.5563 84.4828 54.0289 84.1867 54.5464C83.9834 54.9027 83.2565 54.804 82.4543 54.1027" stroke="black" stroke-width="0.564931" stroke-linecap="round" stroke-linejoin="round"/>
<path d="M121.126 46.3311C120.138 46.5029 119.589 46.2174 119.551 45.773C119.502 45.1869 120.641 44.2763 123.945 43.5547C127.653 42.7457 128.904 43.2534 128.983 43.8981C128.979 44.1586 128.888 44.4104 128.724 44.6127C128.56 44.8152 128.333 44.9567 128.079 45.0145" stroke="black" stroke-width="0.564931" stroke-linecap="round" stroke-linejoin="round"/>
<path d="M119.551 45.7878C117.161 35.3547 116.915 34.2843 115.931 33.5657C114.582 32.582 113.641 32.1918 105.827 31.4619C107.82 32.4917 109.733 33.6685 111.551 34.9826" stroke="black" stroke-width="0.564931" stroke-linecap="round" stroke-linejoin="round"/>
<path d="M129.698 72.0208C132.334 73.6094 134.363 74.8259 135.208 75.427C135.709 78.5906 132.03 83.3842 129.655 83.8851C111.794 73.8241 109.649 72.5202 107.801 70.4775C106.042 68.5296 105.425 65.3682 102.52 52.3018C101.887 52.2642 101.263 52.1241 100.674 51.8867" stroke="black" stroke-width="0.564931" stroke-linecap="round" stroke-linejoin="round"/>
<path d="M110.792 31.9912C111.593 35.0539 113.439 42.181 114.298 47.3189C114.77 50.1383 115.343 53.9474 115.844 57.1939" stroke="black" stroke-width="0.564931" stroke-linecap="round" stroke-linejoin="round"/>
<path d="M90.7275 26.5664C90.5625 28.1555 90.5625 29.7574 90.7275 31.3465C90.8457 32.4357 94.8635 43.6996 95.7365 45.7725C89.108 60.2129 88.0693 62.8892 87.8795 65.2506C87.6535 68.0376 87.951 69.9018 93.2749 90.5821C96.5236 91.5409 102.148 89.8236 103.679 88.0919C102.191 81.666 100.674 75.2544 99.0282 66.8964C99.5863 65.2935 100.874 63.3328 103.737 57.7822" stroke="black" stroke-width="0.564931" stroke-linecap="round" stroke-linejoin="round"/>
<path d="M135.195 76.8154C136.481 77.1491 137.744 77.5694 138.973 78.0749C138.816 81.9247 135.767 91.9714 133.434 94.7621C132.247 92.9732 131.001 86.3183 130.772 83.3988" stroke="black" stroke-width="0.564931" stroke-linecap="round" stroke-linejoin="round"/>
<path d="M102.864 88.7793C103.689 90.1155 104.371 91.5354 104.898 93.0155C102.15 95.8349 93.8491 99.5559 90.1567 99.9709C91.3152 96.6913 92.9919 93.6181 95.1229 90.8688" stroke="black" stroke-width="0.564931" stroke-linecap="round" stroke-linejoin="round"/>
<path d="M84.1733 54.5714C87.2232 52.207 93.5 46.8386 95.4659 45.0723" stroke="black" stroke-width="0.564931" stroke-linecap="round" stroke-linejoin="round"/>
<path d="M81.0244 44.6572C83.7007 44.8719 87.4789 49.838 87.207 52.1279" stroke="black" stroke-width="0.564931" stroke-linecap="round" stroke-linejoin="round"/>
<path d="M118.648 41.8243C119.659 39.6316 126.591 38.3029 128.057 39.4893" stroke="black" stroke-width="0.564931" stroke-linecap="round" stroke-linejoin="round"/>
<path d="M94.2778 19.7985C94.5927 20.2092 94.9927 20.5463 95.4514 20.786C97.1288 20.0588 98.7061 19.1199 100.145 17.9922" stroke="black" stroke-width="0.564931" stroke-linecap="round" stroke-linejoin="round"/>
<path d="M101.004 18.5391C100.401 20.5141 98.2987 23.4909 97.7978 24.1492C96.8608 23.1539 96.0698 22.031 95.4477 20.8138C94.9114 21.9229 94.4888 23.0839 94.1883 24.2788C93.9118 22.974 93.887 21.6283 94.1167 20.3144" stroke="black" stroke-width="0.564931" stroke-linecap="round" stroke-linejoin="round"/>
<path d="M94.6947 22.6211C94.8092 23.2204 95.0119 23.7992 95.2973 24.3385C95.1256 25.9414 94.2383 37.5202 94.2383 38.2923C94.7158 39.2993 95.3117 40.2458 96.0129 41.1117C96.782 40.264 97.4674 39.3436 98.0595 38.3638C97.7732 36.2171 96.0257 25.1256 95.7998 24.3535C96.1289 23.8435 96.4069 23.3017 96.6283 22.7363" stroke="black" stroke-width="0.564931" stroke-linecap="round" stroke-linejoin="round"/>
<path d="M94.4487 42.3962C98.3701 43.6986 108.574 41.1082 112.095 37.1152" stroke="black" stroke-width="0.564931" stroke-linecap="round" stroke-linejoin="round"/>
<path d="M95.1929 44.3999C99.3289 45.5734 108.946 43.27 112.61 39.2334" stroke="black" stroke-width="0.564931" stroke-linecap="round" stroke-linejoin="round"/>
<path d="M93.4329 46.862C93.5278 44.0018 93.3794 41.1388 92.9893 38.3037" stroke="black" stroke-width="0.564931" stroke-linecap="round" stroke-linejoin="round"/>
<path d="M102.521 52.2715C102.119 56.6987 101.187 61.0618 99.7441 65.2664" stroke="black" stroke-width="0.564931" stroke-linecap="round" stroke-linejoin="round"/>
<path d="M99.2998 44.6426C100.128 48.1346 100.173 48.4638 101.389 48.3922" stroke="black" stroke-width="0.564931" stroke-linecap="round" stroke-linejoin="round"/>
<path d="M126.392 72.7227C130.256 75.1699 133.748 77.3739 134.865 78.0895" stroke="black" stroke-width="0.564931" stroke-linecap="round" stroke-linejoin="round"/>
<path d="M109.647 41.5088C111.336 48.6646 113.253 58.3106 113.855 64.6935C114.241 64.9655 114.828 65.3519 115.572 65.8385" stroke="black" stroke-width="0.564931" stroke-linecap="round" stroke-linejoin="round"/>
<path d="M79.2786 47.792C77.8904 48.9512 77.7902 49.2111 77.1891 49.2375C75.7723 49.3 74.5739 48.8398 74.0835 49.3806C73.1638 50.4479 72.3175 51.5764 71.5504 52.7581C70.9327 53.662 72.6237 54.2894 74.6989 51.8851C75.3105 52.2021 75.9817 52.3875 76.6694 52.4294C77.3571 52.4713 78.0456 52.3688 78.6911 52.1284" stroke="black" stroke-width="0.564931" stroke-linecap="round" stroke-linejoin="round"/>
<path d="M67.7007 50.868C69.4896 51.1256 69.8602 51.2092 70.3769 50.9109C71.604 50.2036 72.1094 49.3291 72.8099 49.537C73.0969 49.6206 73.3824 49.7088 73.6829 49.8089" stroke="black" stroke-width="0.564931" stroke-linecap="round" stroke-linejoin="round"/>
<path d="M83.8007 52.8867C83.171 53.4449 81.6539 54.7902 81.0137 55.4199" stroke="black" stroke-width="0.564931" stroke-linecap="round" stroke-linejoin="round"/>
<path d="M77.3184 52.4277C81.0394 54.3455 81.7406 55.5763 80.4955 56.7069" stroke="black" stroke-width="0.564931" stroke-linecap="round" stroke-linejoin="round"/>
<path d="M78.2339 55.1045C80.3663 56.1922 81.0209 56.8053 80.3377 57.7408C79.9498 58.2681 79.4217 58.2847 77.4038 56.8821" stroke="black" stroke-width="0.564931" stroke-linecap="round" stroke-linejoin="round"/>
<path d="M67.5864 58.0996C68.1446 58.1569 68.8172 58.2427 69.175 58.3" stroke="black" stroke-width="0.564931" stroke-linecap="round" stroke-linejoin="round"/>
<path d="M76.5161 58.1818C77.2031 58.6398 78.763 60.1282 79.4929 58.0244" stroke="black" stroke-width="0.564931" stroke-linecap="round" stroke-linejoin="round"/>
<path d="M75.5718 59.5987C76.2015 59.7561 77.3464 60.1568 77.7614 58.9961" stroke="black" stroke-width="0.564931" stroke-linecap="round" stroke-linejoin="round"/>
<path d="M127.394 43.1396C127.751 44.6996 128.724 45.8875 129.352 48.6383C129.552 49.7096 129.586 50.8054 129.452 51.887C129.394 52.0326 129.306 52.1642 129.193 52.2731C129.08 52.3819 128.946 52.4655 128.798 52.5183C128.651 52.5711 128.493 52.5919 128.337 52.5793C128.181 52.5667 128.029 52.521 127.892 52.4452" stroke="black" stroke-width="0.564931" stroke-linecap="round" stroke-linejoin="round"/>
<path d="M127.924 50.3965C127.981 51.0201 127.981 51.6477 127.924 52.2713C127.852 52.9304 127.063 53.5029 126.116 52.8739" stroke="black" stroke-width="0.564931" stroke-linecap="round" stroke-linejoin="round"/>
<path d="M126.135 50.9111C126.18 51.4776 126.19 52.0465 126.163 52.6142C126.148 52.829 126.071 53.0347 125.94 53.206C125.81 53.3774 125.632 53.507 125.43 53.579C125.226 53.651 125.007 53.6621 124.798 53.6112C124.588 53.5602 124.398 53.4493 124.251 53.2921" stroke="black" stroke-width="0.564931" stroke-linecap="round" stroke-linejoin="round"/>
<path d="M124.217 51.3562C124.304 51.9098 124.333 52.471 124.303 53.0307C124.288 53.2738 124.181 53.5022 124.004 53.6698C123.828 53.8374 123.594 53.9316 123.351 53.9334C123.107 53.9352 122.872 53.8446 122.692 53.6796C122.513 53.5147 122.403 53.2878 122.385 53.045C122.264 51.6862 122.024 50.3406 121.669 49.0234" stroke="black" stroke-width="0.564931" stroke-linecap="round" stroke-linejoin="round"/>
<path d="M120.954 44.4854C121.117 44.9988 121.193 45.5356 121.18 46.0739C121.123 46.6893 119.935 47.9344 119.935 48.6214C119.973 49.3219 120.2 49.9989 120.593 50.5798" stroke="black" stroke-width="0.564931" stroke-linecap="round" stroke-linejoin="round"/>
<path d="M123.3 50.4961C124.23 50.2099 127.307 49.4227 128.266 49.251" stroke="black" stroke-width="0.564931" stroke-linecap="round" stroke-linejoin="round"/>
<path d="M48.423 29.4003C47.7951 29.0563 47.3058 28.5053 47.0386 27.841C48.0389 27.9977 49.168 28.0542 49.5107 27.6829C50.1133 27.0539 50.2978 25.567 49.8271 20.625C49.399 20.8252 48.9529 20.9841 48.4946 21.0995C48.5661 22.832 47.9779 22.8892 47.666 22.2731C47.077 21.1154 45.7626 21.9582 46.9075 23.7472C43.9458 26.5018 39.1808 30.5881 33.9834 32.6392" stroke="black" stroke-width="0.564931" stroke-linecap="round" stroke-linejoin="round"/>
<path d="M128.966 43.8984C126.405 30.8605 124.899 27.8121 122.14 25.2647C117.461 20.9283 112.094 20.5117 102.904 19.3969C101.875 19.2629 99.3573 17.6042 97.5239 15.9268" stroke="black" stroke-width="0.564931" stroke-linecap="round" stroke-linejoin="round"/>
<path d="M123.366 66.0515L134.357 63.7188" stroke="black" stroke-width="0.564931" stroke-linecap="round" stroke-linejoin="round"/>
<path d="M122.886 63.8486L120.753 64.3066L121.727 68.756L123.859 68.298L122.886 63.8486Z" stroke="black" stroke-width="0.564931" stroke-linecap="round" stroke-linejoin="round"/>
<path d="M136.023 61.0586L133.891 61.5166L134.849 65.9637L136.982 65.5057L136.023 61.0586Z" stroke="black" stroke-width="0.564931" stroke-linecap="round" stroke-linejoin="round"/>
<path d="M136.498 63.2704L139.797 62.5653L139.662 52.2715" stroke="black" stroke-width="0.564931" stroke-linecap="round" stroke-linejoin="round"/>
<path d="M121.227 66.5183L117.94 67.2037L113.859 57.7607" stroke="black" stroke-width="0.564931" stroke-linecap="round" stroke-linejoin="round"/>
<path d="M20.4582 68.3146C20.4582 68.3063 20.4868 65.624 20.4868 65.624C19.7968 65.725 19.1732 66.091 18.7483 66.6439C18.3235 67.1968 18.1308 67.8935 18.2113 68.5865L18.6336 71.729L20.8662 71.4428L20.4582 68.3146Z" stroke="black" stroke-width="0.564931" stroke-linejoin="round"/>
<path d="M29.9152 67.1559C29.8329 66.5043 29.5106 65.9078 29.0113 65.4814C28.4569 65.6773 27.8798 65.8023 27.2939 65.8535C27.4152 66.3808 27.4536 66.5676 27.5802 67.1988C27.6977 67.3163 27.7268 67.8534 28.0884 70.5485L30.321 70.2623L29.9152 67.1559Z" stroke="black" stroke-width="0.564931" stroke-linejoin="round"/>
</svg>
