<svg width="137" height="144" viewBox="0 0 137 144" fill="none" xmlns="http://www.w3.org/2000/svg">
<path d="M71.5312 116.016C70.68 115.881 67.9382 116.438 67.5465 115.369C65.9346 112.567 65.0608 112.062 67.1021 109.056C68.3148 106.887 63.3359 103.159 61.6034 104.447C59.0048 107.46 58.6658 107.098 55.1632 106.202C53.9806 106.202 53.7245 103.324 53.3329 102.571C52.911 100.311 46.3955 101.486 46.2599 103.324C46.4633 107.091 46.2599 107.332 43.0813 109.109C42.0117 110.036 39.8423 108.183 38.8556 107.836C36.9423 107.083 33.387 112.054 34.6977 113.576C35.4961 114.495 37.7106 116.077 37.0553 117.387C36.4904 118.532 36.9122 120.4 35.5488 120.973C34.3738 121.41 31.391 121.839 31.6546 123.549C31.9258 133.635 36.2946 124.882 39.428 132.158C40.3093 133.1 38.4639 135.269 38.1777 136.151C37.2286 138.169 42.2753 141.792 43.8722 140.429C46.0566 137.823 46.8851 137.71 50.0337 138.689C51.5401 138.757 51.7586 141.702 52.203 142.689C52.9562 144.421 59.2835 143.442 59.1705 141.303C58.9294 137.642 59.2609 137.582 62.2738 135.857C64.1042 134.448 66.4769 138.471 68.2094 136.783C74.2955 130.079 68.7592 132.384 68.3374 127.601C68.94 124.287 69.4221 123.835 72.7137 123.082C74.7701 122.268 73.7909 116.084 71.5312 116.016ZM45.6423 126.728C40.0382 117.425 54.2066 108.936 59.7881 118.208C65.3697 127.481 51.2389 136.053 45.6423 126.728Z" fill="#38A1FF"/>
<path d="M101.857 113.75C104.049 113.365 104.328 108.575 102.219 107.927C99.6426 107.317 98.0005 107.174 97.1117 104.387C95.9366 102.308 99.8836 99.3853 97.4205 97.6077C93.0141 93.5553 93.2099 98.6472 89.7525 99.4305C86.5362 99.536 86.1219 98.504 84.3217 96.1087C83.011 94.3612 78.7552 96.3874 78.9887 98.3685C79.742 101.178 80.691 102.413 78.5368 104.869C77.4672 106.85 73.0005 104.982 72.5109 107.618C71.0044 115.196 77.1207 109.712 78.8908 115.753C79.5687 116.589 77.8664 119.309 77.6781 120.145C76.9248 122.088 80.691 124.664 82.2578 123.64C84.5175 121.335 84.9393 120.115 88.4494 120.679C90.4003 120.792 91.1987 125.447 93.5489 124.506C94.739 123.858 97.1569 123.414 96.9158 121.696C96.8104 120.8 95.4094 117.599 96.1626 116.83C97.6239 114.036 98.9722 114.013 101.857 113.75ZM87.651 114.782C81.3162 114.382 81.9188 104.748 88.2536 105.14C94.5883 105.532 93.9933 115.173 87.651 114.782Z" fill="#38A1FF"/>
<path d="M127.882 125.575C127.833 125.271 127.685 124.993 127.46 124.783C127.234 124.575 126.945 124.447 126.639 124.422L124.899 124.287C123.822 123.963 122.744 121.929 123.113 120.844C125.192 118.351 123.957 117.47 121.69 115.873C119.069 115.12 119.89 118.841 115.928 116.822C114.383 116.355 115.438 113.192 113.359 113.274C107.762 113.169 110.934 114.781 108.953 117.387C104.433 120.588 104.998 113.621 101.036 119.85C100.366 120.679 102.136 121.929 102.482 122.524C103.235 129.454 96.9911 123.232 98.8215 130.855C98.9571 131.94 100.75 131.653 101.48 131.782C102.829 132.015 103.8 133.996 103.582 135.164C101.458 137.634 102.829 138.809 105.088 140.293C105.97 140.994 107.152 139.314 107.785 138.915C114.722 137.988 108.576 144.361 116.123 142.553C117.283 142.41 116.944 140.406 117.095 139.638C121.411 134.109 121.464 142.967 125.516 136.406C126.27 135.42 124.628 134.222 124.138 133.522C123.505 126.788 129.478 132.61 127.882 125.575ZM112.169 131.601C107.491 130.004 109.743 123.014 114.474 124.445C119.151 126.057 116.899 133.039 112.207 131.623L112.169 131.601Z" fill="#38A1FF"/>
<path d="M80.5709 62.1074C80.6364 61.9946 80.6771 61.8693 80.6914 61.7398C80.705 61.6101 80.6922 61.4791 80.6522 61.3549C80.6123 61.2307 80.5468 61.1162 80.4602 61.0188C80.3735 60.9215 80.2681 60.8432 80.1491 60.7893C78.0099 60.036 79.5616 63.3352 73.498 62.7025C73.3112 62.7059 73.1296 62.7621 72.973 62.8648C72.817 62.9675 72.6935 63.1123 72.6167 63.2825C71.7956 65.1279 71.0273 66.0619 68.6471 66.7173C68.3979 66.786 68.186 66.9505 68.0576 67.1749C67.9292 67.3992 67.8947 67.6652 67.9616 67.9149C69.566 70.2198 73.8143 65.964 74.1307 64.6534C76.5034 64.6534 79.1774 64.8266 80.5709 62.1074Z" fill="#38A1FF"/>
<path d="M77.4437 66.0543C76.3839 67.1658 74.952 67.8493 73.4214 67.9751C72.2087 67.8922 72.4573 69.7678 73.6624 69.8807C75.4627 70.0465 78.1292 69.0221 78.8523 67.5532C79.1385 66.9732 79.372 66.3631 78.792 65.7756C78.4154 65.399 77.7902 65.6475 77.4437 66.0543Z" fill="#38A1FF"/>
<path d="M67.3356 56.3152C61.4604 58.3264 64.639 55.1025 61.9349 55.1477C61.8067 55.1676 61.684 55.2143 61.5749 55.2848C61.4659 55.3551 61.3728 55.4476 61.3018 55.5563C61.2308 55.6649 61.1834 55.7873 61.1627 55.9155C61.142 56.0436 61.1485 56.1747 61.1817 56.3001C61.8295 59.8178 65.2868 59.057 67.9081 58.1832C72.066 56.7973 74.1675 55.1703 71.9229 51.8636C71.8491 51.756 71.7542 51.6651 71.6434 51.5965C71.5319 51.528 71.4084 51.4835 71.2789 51.4657C71.1501 51.448 71.019 51.4575 70.8932 51.4936C70.7682 51.5296 70.6522 51.5916 70.552 51.6752C68.7216 53.6035 73.8286 54.2287 67.3356 56.3152Z" fill="#38A1FF"/>
<path d="M89.6845 17.2971C94.1286 18.1935 100.478 9.16211 102.934 6.43537C105.382 2.66916 100.493 -1.09705 96.8478 1.16267C92.1928 3.56551 85.1952 13.8096 89.6845 17.2971Z" fill="#38A1FF"/>
<path d="M69.4534 62.9064C69.8805 62.1227 70.4838 61.4487 71.216 60.9377C71.9481 60.4267 72.7887 60.0924 73.6715 59.9613C75.5245 59.6298 76.9105 60.0064 77.1364 59.2758C77.5658 57.8748 74.2666 57.6789 71.6905 58.6657C69.8225 59.3737 68.09 61.0459 67.8189 61.8368C67.6985 62.0531 67.6645 62.3071 67.7238 62.5474C67.7831 62.7878 67.9312 62.9967 68.1384 63.1323C68.3455 63.2678 68.5962 63.3199 68.8403 63.278C69.0843 63.2361 69.3035 63.1033 69.4534 62.9064Z" fill="#38A1FF"/>
<path d="M98.4442 32.5347C102.866 34.0412 110.074 42.726 113.569 35.3518C114.413 29.2656 105.623 26.4862 100.583 26.3129C94.5198 25.8309 92.4785 30.6591 98.4442 32.5347Z" fill="#38A1FF"/>
<path d="M70.0255 36.2035C80.3675 36.9115 74.899 10.2242 68.052 9.72709C58.3126 7.51256 66.0861 34.6443 70.0255 36.2035Z" fill="#38A1FF"/>
<path d="M91.3411 23.7146C93.4728 28.0232 103.551 20.1141 115.897 25.6354C127.391 30.78 129.937 17.9975 117.094 14.6757C109.667 12.303 99.8377 14.1786 93.2016 19.2328C90.4147 21.3494 91.1152 23.1949 91.3411 23.7146Z" fill="#38A1FF"/>
<path d="M48.3991 63.819C49.1695 64.1474 49.9984 64.3166 50.8358 64.3166C51.6734 64.3166 52.5021 64.1474 53.2726 63.819C55.3289 63.1034 61.5582 60.9265 59.8559 55.5333C57.0162 46.5321 38.0345 57.9211 48.3991 63.819ZM47.4651 58.1772C48.61 55.6915 57.3024 51.5336 58.1084 56.5803C54.5206 57.3834 51.1541 58.9676 48.2484 61.2203C47.7212 60.4746 46.8399 59.2242 47.4651 58.1772Z" fill="#38A1FF"/>
<path d="M47.6986 46.0645C55.103 45.4242 47.1035 27.7156 47.7513 22.0738C47.8794 16.1157 44.8288 12.3419 40.9044 17.0647C37.688 21.667 38.3886 44.3245 47.6986 46.0645Z" fill="#38A1FF"/>
<path d="M75.8776 101.126C80.1184 95.3563 71.426 87.2063 65.5582 89.0743C64.7778 88.5817 63.9306 88.2035 63.0424 87.952C63.2226 87.1415 63.5712 86.3777 64.0655 85.7111C64.56 85.0437 65.1892 84.4886 65.9123 84.0803C66.0269 84.0231 66.129 83.9432 66.2124 83.846C66.2959 83.7489 66.3592 83.6359 66.3984 83.5139C66.4377 83.3918 66.4523 83.263 66.4412 83.135C66.4301 83.0077 66.3937 82.8834 66.3341 82.7697C64.2099 80.8866 61.325 85.8655 61.0614 87.7862C60.8085 87.8028 60.5569 87.8352 60.3082 87.8842C60.0897 86.6112 60.4211 84.9917 61.325 83.0484C61.3795 82.9324 61.4104 82.8066 61.416 82.6785C61.4216 82.5505 61.4018 82.4224 61.3576 82.3019C61.3135 82.1814 61.246 82.0707 61.1589 81.9765C61.0719 81.8823 60.9671 81.8063 60.8505 81.7528C58.2443 81.4967 58.1162 87.726 58.4928 88.7278C55.9394 90.6184 56.4139 94.8441 59.5474 95.8535C53.6947 97.6236 58.3271 106.105 59.005 101.412C58.2518 99.3033 58.3422 98.4672 60.263 97.6462C60.4891 98.2231 60.7905 98.7677 61.1593 99.2656C60.2328 99.5443 59.0126 102.572 60.9258 102.828C61.0631 102.828 61.1989 102.799 61.3242 102.743C61.4495 102.687 61.5617 102.605 61.6534 102.502C61.745 102.401 61.814 102.28 61.8561 102.149C61.8982 102.019 61.9123 101.88 61.8975 101.744C61.8523 101.322 61.8975 101.036 62.5302 100.742C63.639 101.748 64.8967 102.576 66.2588 103.198C66.2136 104.32 64.9933 106.964 66.8162 107.265C68.3678 107.092 67.6598 104.885 68.1268 103.845C69.2303 104.14 70.3865 104.177 71.5058 103.952C72.6251 103.727 73.6782 103.247 74.5821 102.55C75.9304 103.303 75.0717 104.297 74.4691 105.276C74.402 105.385 74.3568 105.506 74.3365 105.633C74.3154 105.759 74.3199 105.888 74.3493 106.012C74.3787 106.137 74.4329 106.254 74.5075 106.358C74.5821 106.462 74.677 106.55 74.7854 106.617C74.8939 106.684 75.0152 106.729 75.1417 106.75C75.2675 106.771 75.3971 106.766 75.5214 106.737C75.6456 106.708 75.7631 106.653 75.8671 106.579C75.971 106.504 76.0592 106.409 76.1262 106.301C77.3239 104.794 78.0168 102.339 75.8776 101.126ZM60.1726 93.9704C56.8282 92.3132 60.1726 88.2985 63.1855 90.0761C61.7346 90.9574 60.6612 92.3449 60.1726 93.9704ZM62.1009 96.9833C60.9861 92.9083 65.0385 90.1288 69.0006 91.0704C67.4278 91.337 65.9563 92.024 64.7417 93.0582C63.5271 94.0924 62.6147 95.4354 62.1009 96.9457V96.9833ZM70.5296 102.143C68.3754 102.316 66.0102 101.277 63.7505 99.1828C63.8255 97.7012 64.3978 96.2873 65.375 95.171C66.3522 94.054 67.6773 93.2992 69.1361 93.0288C70.6878 94.3771 72.5257 98.6329 70.5296 102.105V102.143ZM74.9286 98.3768C74.8231 98.9756 74.5956 99.5458 74.2597 100.053C73.9245 100.56 73.4876 100.991 72.9777 101.322C73.337 99.9089 73.398 98.4356 73.1569 96.9976C72.9159 95.5597 72.3773 94.1873 71.5766 92.9685C74.0774 93.1719 75.2976 96.5464 74.9286 98.3919V98.3768Z" fill="#38A1FF"/>
<path d="M134.547 67.018C127.836 51.4486 114.662 43.0725 95.7857 36.8884C94.475 33.6721 91.5073 30.7194 88.1101 31.6157C89.8275 26.3431 85.1951 10.412 78.205 16.227C76.578 19.24 80.2614 26.215 80.2614 30.2825C80.2614 34.6965 83.425 39.0352 86.9803 34.8019C91.7634 29.7703 96.9908 40.2253 93.8122 45.98C93.2985 47.2769 93.1682 48.6937 93.4356 50.0626C96.2828 71.1533 64.5638 82.4971 47.4879 69.79C41.2736 63.6812 37.515 59.7945 37.6958 50.2057C41.4168 48.9327 40.4903 45.2042 38.8934 40.5567C37.6908 37.1081 37.1043 33.4748 37.1609 29.823C37.1609 21.8989 30.5626 26.1095 30.4797 32.7456C-18.737 38.8845 -1.1564 104.093 37.5074 90.7451C41.9516 90.9711 44.0682 89.0428 44.5502 87.0392C47.0435 87.702 54.8772 88.267 51.9395 84.0865C59.1631 85.8491 52.4819 75.8536 47.4201 74.1286C47.7956 73.7038 48.0436 73.1818 48.1357 72.6222C65.5732 84.2974 98.4973 72.0497 95.409 49.814C95.1228 46.0026 97.7365 42.8466 96.5238 39.2687C108.335 43.0349 117.984 48.6691 124.62 55.501C113.133 51.9231 94.0683 60.0204 96.087 73.4055C89.3078 76.7348 87.387 88.9825 96.7347 88.0636C102.731 106.345 146.637 95.5207 134.547 67.018ZM30.2688 34.6287C30.0052 40.3232 30.314 48.0966 35.7223 50.153C35.5985 55.1904 36.9749 60.1509 39.6768 64.4043C35.7147 62.8978 33.1688 60.0355 30.7057 56.8192C25.8548 48.6239 13.803 44.0141 5.14823 50.8535C8.33443 44.1572 15.2567 36.4063 30.2688 34.6287ZM42.6295 86.5345C42.3282 87.6945 40.7614 88.9524 37.3568 88.6963C35.1724 88.9147 29.7415 83.9434 28.7849 85.4197C28.0317 87.5438 32.8524 88.8168 34.6301 89.8789C31.2555 91.3251 26.819 89.5927 23.9039 87.0467C23.6919 86.9224 23.4409 86.8825 23.2007 86.9345C22.9605 86.9865 22.7487 87.1273 22.6074 87.3284C22.466 87.5295 22.4055 87.7766 22.4377 88.0199C22.47 88.2639 22.5927 88.4862 22.7816 88.6436C23.3465 89.0428 24.1525 89.5927 25.0413 90.1501C19.5212 89.5859 14.3572 87.1612 10.3983 83.273C2.17293 77.0663 -4.86233 48.0288 16.5448 49.5579C25.2447 50.1379 28.0015 57.7155 33.4098 62.8526C36.3399 66.6188 47.3523 67.2064 45.7856 72.9084C42.5466 74.7388 31.6548 67.2515 32.1368 74.6634C32.5737 81.4125 43.3601 82.6403 42.6295 86.5345ZM53.0393 82.354C49.4463 78.8289 45.4391 75.8912 39.6692 75.3564C38.0799 75.2058 37.4095 76.4637 38.1628 77.6161C42.0043 83.8153 46.2224 83.4236 50.4481 85.2691C48.4548 85.5553 46.4238 85.4272 44.4824 84.8924C42.8253 80.5839 34.4493 79.2808 34.0877 74.4299C33.9069 72.0572 36.9576 73.6767 39.0892 74.0759C45.0172 75.1832 51.1034 76.765 53.0393 82.354ZM51.0884 83.3634C47.1866 81.8569 43.6614 82.0904 40.3547 77.4203C44.5587 77.9626 48.3976 80.0883 51.0884 83.3634ZM132.145 85.5854C129.885 89.2386 125.825 91.8373 121.268 93.3438C121.085 91.0223 121.214 88.6865 121.652 86.3989C121.68 86.2731 121.682 86.1436 121.659 86.017C121.636 85.8905 121.588 85.7692 121.518 85.6615C121.448 85.5538 121.357 85.4604 121.25 85.3881C121.144 85.3158 121.024 85.2645 120.899 85.2389C118.443 85.5628 119.475 91.1594 119.339 93.9087C116.195 94.7215 112.937 95.0092 109.698 94.7599C109.614 91.7718 109.892 88.7852 110.527 85.8641C110.56 85.7406 110.568 85.6118 110.551 85.4845C110.533 85.3579 110.492 85.2359 110.427 85.1252C110.363 85.0145 110.277 84.9181 110.176 84.8405C110.074 84.7629 109.957 84.7064 109.834 84.674C107.227 84.7493 108.018 93.0048 107.747 94.4661C100.478 94.1272 93.7444 84.8096 102.836 79.567C103.073 79.4616 103.257 79.2665 103.35 79.0255C103.443 78.7844 103.437 78.5155 103.333 78.279C100.433 75.8988 96.0644 83.9283 96.554 85.9545C89.0743 86.5571 92.4413 76.8177 97.6462 74.558C102.529 71.4696 108.224 69.9115 113.999 70.0837C114.127 70.0877 114.255 70.0663 114.375 70.0207C114.495 69.975 114.605 69.9061 114.698 69.8179C114.791 69.7297 114.865 69.6239 114.917 69.5066C114.97 69.3893 114.998 69.2629 115.001 69.1347C113.186 65.5869 98.7534 71.2287 97.9399 72.1476C96.7272 59.3425 119.242 52.3299 127.896 59.1467C133.726 66.2723 136.905 78.3468 132.145 85.5854Z" fill="#38A1FF"/>
<path d="M57.2192 41.1973C65.0755 44.489 63.087 30.1624 61.9647 23.1798C59.9912 14.1409 59.4413 9.41811 53.1743 10.9095C46.0939 15.2633 51.9466 37.7023 57.2192 41.1973Z" fill="#38A1FF"/>
<path d="M46.8626 53.9503C47.4125 52.9033 50.787 50.3422 53.4158 49.8526C53.6656 49.8 53.8846 49.6511 54.0256 49.4384C54.1665 49.2255 54.2181 48.9658 54.169 48.7152C52.5646 45.9885 45.4465 51.9466 45.1301 53.0464C45.0302 53.2738 45.0204 53.5306 45.1027 53.765C45.1851 53.9994 45.3534 54.1937 45.5737 54.3086C45.7938 54.4235 46.0495 54.4504 46.2889 54.3839C46.5282 54.3173 46.7333 54.1623 46.8626 53.9503Z" fill="#38A1FF"/>
<path d="M78.7996 39.2393C76.1467 39.3112 73.5359 39.9184 71.1241 41.0244C71.0013 41.0746 70.8898 41.1488 70.7964 41.2427C70.703 41.3365 70.6292 41.4481 70.5795 41.5709C70.529 41.6937 70.5049 41.8252 70.5064 41.9578C70.5079 42.0903 70.5365 42.2211 70.5893 42.3426C70.6902 42.5715 70.877 42.7518 71.109 42.8447C71.3418 42.9377 71.6009 42.9359 71.8321 42.8397C74.015 41.8279 76.3794 41.2668 78.7845 41.1902C79.0286 41.1706 79.2568 41.0604 79.4233 40.8811C79.5905 40.7017 79.6839 40.4665 79.6862 40.2216C79.6877 39.9767 79.598 39.7399 79.4338 39.5581C79.2696 39.3763 79.0436 39.2625 78.7996 39.2393Z" fill="#38A1FF"/>
<path d="M86.9729 45.7768C86.2197 38.636 71.765 42.2742 72.4279 48.5487C73.1209 56.7741 88.6075 53.5125 86.9729 45.7768ZM74.8759 49.671C71.5315 45.0235 85.0898 41.0991 85.0898 46.3341C81.5406 46.9422 78.0998 48.0665 74.8759 49.671Z" fill="#38A1FF"/>
</svg>
