<svg width="148" height="122" viewBox="0 0 148 122" fill="none" xmlns="http://www.w3.org/2000/svg">
<path fill-rule="evenodd" clip-rule="evenodd" d="M122.081 2.60801C102.472 2.91683 21.6812 3.08481 1.47321 2.82795C0.2733 2.81289 0.182158 0.767838 1.42425 0.767838C22.2551 0.793448 94.2657 0.39649 122.042 0.99381C123.379 1.02093 123.016 2.59294 122.081 2.60801Z" fill="#191919"/>
<path fill-rule="evenodd" clip-rule="evenodd" d="M98.0189 61.3413C96.666 61.9254 95.2285 62.2898 93.7608 62.4207C93.9016 64.1457 93.883 65.88 93.705 67.6015C93.6857 67.6944 93.6341 67.7775 93.5593 67.836C93.4846 67.8945 93.3916 67.9248 93.2968 67.9213C93.2019 67.9179 93.1113 67.8811 93.0411 67.8173C92.9708 67.7535 92.9253 67.667 92.9126 67.5729C92.7718 66.3956 93.101 65.1203 92.8637 62.4787C91.1019 62.5262 90.2763 61.9801 88.7284 61.7699C84.8792 61.2443 81.1795 59.9315 77.8599 57.9133C77.7612 57.8378 77.6963 57.7263 77.6793 57.6033C77.6622 57.4802 77.6944 57.3553 77.7687 57.2557C81.1747 53.0964 83.7939 48.351 85.4977 43.2523C85.6989 42.676 86.3655 41.9017 86.3685 42.8937C86.3768 45.4367 86.08 47.9781 86.08 50.5248C86.08 55.1467 86.2028 60.0909 90.7056 61.2524C93.467 61.9628 96.0371 61.0619 97.7462 60.6054C98.1522 60.4932 98.4535 61.1312 98.0189 61.3413Z" fill="#191919"/>
<path fill-rule="evenodd" clip-rule="evenodd" d="M91.5001 51.4504C91.1054 52.215 92.4507 52.1246 93.2574 52.163C93.3592 52.1715 93.4548 52.2158 93.5271 52.288C93.5994 52.3602 93.6438 52.4557 93.6523 52.5576C93.6609 52.6594 93.6331 52.761 93.5739 52.8443C93.5147 52.9276 93.428 52.9872 93.329 53.0127C92.7955 53.0844 92.2533 53.0537 91.7313 52.9223C90.7988 52.7287 90.087 52.3852 90.5947 51.3405C90.923 50.6353 91.2958 49.9517 91.711 49.2939C91.7619 49.2142 91.8401 49.1558 91.931 49.1296C92.0218 49.1033 92.1191 49.111 92.2047 49.1512C92.2903 49.1914 92.3583 49.2614 92.3961 49.3481C92.4339 49.4348 92.4388 49.5322 92.41 49.6223C92.1534 50.2538 91.8492 50.865 91.5001 51.4504Z" fill="#191919"/>
<path fill-rule="evenodd" clip-rule="evenodd" d="M96.612 48.5072C96.621 48.9907 96.6572 49.7236 95.9446 49.7425C95.3706 49.7583 95.2094 49.2506 95.2124 48.5719C95.2155 47.3494 96.5826 47.009 96.612 48.5072Z" fill="#191919"/>
<path fill-rule="evenodd" clip-rule="evenodd" d="M89.8916 48.4763C89.8796 48.9388 89.683 49.375 89.1489 49.3531C88.703 49.335 88.5426 48.7324 88.5554 48.3355C88.5742 47.7495 88.7588 47.4504 89.1294 47.3691C89.6981 47.244 89.9075 47.8963 89.8916 48.4763Z" fill="#191919"/>
<path fill-rule="evenodd" clip-rule="evenodd" d="M89.3759 45.0259C89.0775 44.9914 88.7753 45.041 88.5036 45.169C88.2318 45.2971 88.0012 45.4985 87.8378 45.7505C87.425 46.3606 86.9836 45.8597 87.1403 45.4982C87.3414 45.0586 87.6782 44.6951 88.1012 44.4611C88.5242 44.2271 89.0111 44.1349 89.4904 44.1981C89.5975 44.2163 89.6932 44.2755 89.7574 44.3631C89.8216 44.4507 89.8492 44.5599 89.8343 44.6675C89.8195 44.7751 89.7633 44.8727 89.6777 44.9396C89.5921 45.0065 89.4839 45.0374 89.3759 45.0259Z" fill="#191919"/>
<path fill-rule="evenodd" clip-rule="evenodd" d="M95.5129 44.9226C95.4188 44.9221 95.328 44.888 95.2567 44.8266C95.1855 44.7652 95.1384 44.6804 95.1239 44.5875C95.1094 44.4945 95.1284 44.3995 95.1776 44.3193C95.2268 44.2391 95.3029 44.179 95.3924 44.1498C95.9673 44.0266 96.5673 44.1155 97.0818 44.4001C97.5963 44.6848 97.9904 45.1459 98.1914 45.6985C98.3157 46.1301 97.7394 46.4841 97.521 45.9998C97.3478 45.6272 97.0584 45.3209 96.6964 45.1267C96.3343 44.9325 95.919 44.8609 95.5129 44.9226Z" fill="#191919"/>
<path fill-rule="evenodd" clip-rule="evenodd" d="M91.9236 55.5035C92.2474 56.2329 92.8221 56.8219 93.5434 57.1635C94.2646 57.505 95.0845 57.5765 95.854 57.3648C96.6475 57.1087 97.3144 56.561 97.7198 55.8323C98.1253 55.1036 98.2391 54.2483 98.0384 53.4389C97.9465 53.0623 97.609 52.9312 97.2038 53.2506C95.5082 54.5868 94.2533 54.7955 92.2497 54.8286C91.9243 54.8339 91.7337 55.1254 91.9236 55.5035Z" fill="#191919"/>
<path fill-rule="evenodd" clip-rule="evenodd" d="M37.1303 70.0092C37.3096 70.3489 36.8079 70.7135 36.5277 70.4611C34.906 68.9931 31.9367 66.9209 31.0991 64.9625C29.9692 62.3261 30.5861 59.0247 28.3505 56.8915C28.2699 56.8225 28.219 56.7252 28.2082 56.6197C28.1974 56.5142 28.2277 56.4086 28.2927 56.3248C28.3577 56.241 28.4525 56.1855 28.5573 56.1696C28.6622 56.1538 28.7691 56.179 28.8559 56.2399C31.3266 57.9777 30.8581 61.3801 32.0022 63.8477C33.1622 66.3462 35.8588 67.6056 37.1303 70.0092Z" fill="#191919"/>
<path fill-rule="evenodd" clip-rule="evenodd" d="M20.6067 66.1615C18.302 65.7044 16.1464 64.6838 14.3322 63.1907C13.7499 62.6778 14.4474 62.2642 14.8723 62.5512C16.6765 63.826 18.7414 64.684 20.9178 65.0633C23.042 65.3775 25.2045 65.322 27.3098 64.8991C27.8287 64.8298 27.8174 65.589 27.4604 65.8029C25.8364 66.7784 22.4295 66.563 20.6067 66.1615Z" fill="#191919"/>
<path fill-rule="evenodd" clip-rule="evenodd" d="M11.0301 64.9874C10.7077 64.6342 11.2501 64.1649 11.6041 64.421C14.0215 66.2758 16.797 67.6095 19.7557 68.3379C22.0666 68.8651 21.4256 69.9468 19.3512 69.5189C16.1727 68.9133 13.2633 67.3289 11.0301 64.9874Z" fill="#191919"/>
<path fill-rule="evenodd" clip-rule="evenodd" d="M20.0086 73.2408C17.2631 73.0818 13.4607 71.8164 11.3998 70.0101C11.3274 69.9441 11.2809 69.8543 11.2688 69.7569C11.2567 69.6596 11.2797 69.5612 11.3338 69.4794C11.3879 69.3976 11.4694 69.3378 11.5637 69.3108C11.658 69.2838 11.7588 69.2914 11.848 69.3322C14.9807 70.8673 16.6514 71.6469 20.1525 72.0815C22.1847 72.3346 22.1252 73.3635 20.0086 73.2408Z" fill="#191919"/>
<path fill-rule="evenodd" clip-rule="evenodd" d="M32.1424 76.7564C32.6945 77.133 32.0671 78.0602 31.5044 77.7273C28.5351 75.979 25.1538 77.0494 21.9284 77.0441C18.7835 77.0974 15.7026 76.1525 13.1283 74.3452C12.757 74.0673 13.166 73.5114 13.5584 73.6914C16.5059 75.18 19.7798 75.9051 23.0801 75.8005C26.1285 75.616 29.4322 74.9109 32.1424 76.7564Z" fill="#191919"/>
<path fill-rule="evenodd" clip-rule="evenodd" d="M146.416 121.294C116.267 121.661 30.4271 120.905 12.0917 120.691C10.9106 120.678 9.97356 119.345 12.0578 119.336C35.6342 119.214 111.306 119.243 146.372 119.566C147.753 119.575 147.756 121.277 146.416 121.294Z" fill="#38A1FF"/>
<path fill-rule="evenodd" clip-rule="evenodd" d="M88.3222 66.7949C81.6936 67.8495 68.997 74.9367 62.083 84.0803C68.6362 83.0883 87.9644 82.9188 93.5188 83.5703C91.4289 81.0254 89.1147 78.6734 86.604 76.5426C87.5682 75.4376 88.4751 74.5782 89.2682 73.8219C87.6811 72.8427 85.0719 71.2805 83.9202 70.7427C85.2248 69.2559 86.7027 67.9306 88.3222 66.7949Z" fill="#38A1FF"/>
<path fill-rule="evenodd" clip-rule="evenodd" d="M102.816 74.1626C103.665 75.0097 104.39 75.9735 104.968 77.0249C102.645 78.3567 98.1379 80.8507 95.418 83.7408C98.0151 84.0813 99.7114 85.3415 100.615 89.1642C101.004 90.804 101.54 93.435 102.072 96.3885C106.993 95.313 111.996 94.6516 117.027 94.4112C116.144 92.1506 114.964 90.0177 113.518 88.069C113.207 87.6584 113.783 87.1372 114.125 87.5357C115.872 89.5408 117.224 91.8583 118.109 94.3661C120.363 94.2329 122.624 94.2649 124.873 94.4617C125.385 94.5197 125.391 95.2858 124.861 95.273C117.265 95.0255 109.669 95.7412 102.253 97.4031C103.01 101.721 103.722 106.545 103.946 109.923C115.621 109.81 134.562 115.579 137.498 108.62C144.072 93.0343 124.105 68.4357 109.898 66.2822C111.097 67.9421 111.937 69.8338 112.364 71.8366C110.807 72.3767 104.857 73.7935 102.816 74.1626Z" fill="#38A1FF"/>
<path fill-rule="evenodd" clip-rule="evenodd" d="M94.0749 78.5841C91.6871 72.6252 91.7519 69.4533 91.071 66.5322C91.0553 66.4315 91.0015 66.3405 90.9207 66.2783C90.84 66.216 90.7383 66.1872 90.6369 66.1977C90.5354 66.2083 90.4419 66.2574 90.3756 66.3349C90.3094 66.4125 90.2754 66.5125 90.2808 66.6143C90.2567 70.1403 92.0532 76.0133 93.5122 79.3901C93.5584 79.4718 93.6233 79.5415 93.7015 79.5935C93.7796 79.6456 93.869 79.6784 93.9623 79.6894C94.0555 79.7004 94.1501 79.6893 94.2382 79.6569C94.3264 79.6245 94.4056 79.5718 94.4696 79.503C99.1947 72.9416 101.555 70.5711 106.973 66.3628C107.058 66.3031 107.116 66.2131 107.135 66.1116C107.154 66.0102 107.134 65.9052 107.077 65.8187C107.021 65.7322 106.933 65.671 106.832 65.6478C106.732 65.6247 106.626 65.6415 106.537 65.6946C101.509 69.0504 97.2594 73.4458 94.0749 78.5841Z" fill="#38A1FF"/>
<path fill-rule="evenodd" clip-rule="evenodd" d="M55.6584 84.762C51.0109 81.9283 43.1328 74.9571 39.9029 70.5469C36.657 73.8577 33.7694 77.5017 31.2881 81.4184C37.1679 90.0897 46.4794 99.4442 52.3148 102.162C51.6369 99.271 51.4644 91.2798 51.6369 88.7293C51.8094 86.1789 53.7316 85.159 55.6584 84.762Z" fill="#38A1FF"/>
<path fill-rule="evenodd" clip-rule="evenodd" d="M29.0284 84.6285C30.4701 84.5682 29.7289 83.5574 29.1143 83.5453C20.9039 83.3842 12.1046 83.1838 5.91445 83.2802C6.39276 47.5111 6.10653 24.9417 6.30237 4.78726C6.30764 4.25321 5.50695 4.33531 5.48284 4.84375C4.70098 21.229 5.18155 65.3538 4.57896 83.1582C4.55786 83.7683 4.60005 84.1577 5.91972 84.2165C9.61588 84.3822 13.2179 84.389 16.9351 84.453C20.3511 84.5125 25.7179 84.7671 29.0284 84.6285Z" fill="#38A1FF"/>
<path fill-rule="evenodd" clip-rule="evenodd" d="M118.979 49.1272C119.341 41.7831 119.228 34.3418 119.261 26.9819C119.281 22.6312 119.478 10.9499 119.429 5.217C119.421 4.22423 118.397 4.78992 118.387 5.29233C118.189 15.0265 117.676 39.332 118.048 49.1377C118.08 49.9633 118.942 49.9512 118.979 49.1272Z" fill="#38A1FF"/>
<path fill-rule="evenodd" clip-rule="evenodd" d="M17.8165 26.6797C17.8165 24.2919 17.8368 21.9057 17.8165 19.5179C28.5713 19.4561 39.3328 19.3951 50.0861 19.2008C50.0951 21.2903 50.0861 23.3798 50.0861 25.4693C39.8141 25.7321 29.3102 26.1193 19.0074 26.3038C18.3438 26.3159 18.4515 27.3072 19.0932 27.3154C29.4962 27.4412 40.2186 26.7776 50.654 26.5072C50.7921 26.4929 50.9193 26.4257 51.0089 26.3197C51.0984 26.2136 51.1435 26.077 51.1346 25.9385C51.1346 23.4988 51.1263 21.0583 51.1429 18.6185C51.1282 18.4794 51.0602 18.3513 50.9532 18.2612C50.8462 18.171 50.7085 18.1258 50.5689 18.1349C39.4579 18.1417 28.3393 18.2931 17.2282 18.4415C17.0861 18.4562 16.9553 18.5254 16.8632 18.6345C16.771 18.7437 16.7248 18.8843 16.7341 19.0268C16.7959 21.6029 16.9269 24.1729 17.0158 26.7475C17.0286 27.271 17.8157 27.1972 17.8165 26.6797Z" fill="#38A1FF"/>
<path fill-rule="evenodd" clip-rule="evenodd" d="M17.1905 43.8963C28.4228 43.4579 39.9873 43.4067 51.1511 42.6376C51.2329 42.6395 51.314 42.6232 51.3886 42.5898C51.4632 42.5564 51.5295 42.5069 51.5826 42.4447C51.6357 42.3825 51.6742 42.3093 51.6955 42.2304C51.7168 42.1514 51.7202 42.0688 51.7055 41.9883C51.5082 40.396 51.3101 38.8036 51.1029 37.2128C51.0163 36.5522 50.025 36.7782 50.0974 37.4267C50.248 38.8089 50.4152 40.1904 50.5794 41.5695C39.674 42.0298 28.6722 42.3409 17.8135 42.6889C17.8135 40.5293 17.8022 38.3668 17.8632 36.211C28.8416 36.0973 39.6318 35.9195 50.7308 36.0099C50.8379 36.0117 50.9414 35.9718 51.0196 35.8986C51.0979 35.8255 51.1446 35.7248 51.1499 35.6179C51.1553 35.5109 51.1189 35.4061 51.0485 35.3255C50.978 35.2449 50.8789 35.1948 50.7723 35.1858C39.6303 34.6729 28.4417 34.8988 17.253 34.9214C17.1663 34.9168 17.0795 34.9293 16.9977 34.9583C16.9158 34.9874 16.8405 35.0323 16.7761 35.0905C16.7117 35.1488 16.6594 35.2192 16.6224 35.2978C16.5853 35.3763 16.5641 35.4614 16.5601 35.5481C16.6527 38.119 16.6181 40.6988 16.6271 43.2726C16.6213 43.4295 16.6769 43.5824 16.7821 43.6989C16.8873 43.8154 17.0339 43.8862 17.1905 43.8963Z" fill="#38A1FF"/>
<path fill-rule="evenodd" clip-rule="evenodd" d="M50.2265 58.982C44.8333 59.0535 37.9721 58.9466 32.4395 59.2079C31.9763 59.2298 31.9974 60.1743 32.4516 60.1819C37.4328 60.267 44.9712 60.0207 50.7297 60.1419C51.3662 60.1555 51.3956 59.5394 51.321 59.0814C50.9492 56.8334 50.9291 54.5413 51.2615 52.2871C51.2768 52.2059 51.2738 52.1222 51.2525 52.0422C51.2313 51.9623 51.1924 51.8881 51.1387 51.8252C51.085 51.7623 51.0179 51.7122 50.9423 51.6786C50.8667 51.645 50.7845 51.6287 50.7018 51.6311C39.7437 51.8902 28.7825 52.2954 17.8251 52.4709C17.6778 52.481 17.5401 52.5477 17.441 52.6572C17.3418 52.7666 17.2889 52.9101 17.2934 53.0577C17.2738 55.4289 17.2783 57.8031 17.2617 60.1713C17.272 60.3273 17.3425 60.4732 17.4583 60.5782C17.5741 60.6831 17.7262 60.739 17.8824 60.734C21.046 60.618 23.537 60.6353 26.7013 60.4402C27.2286 60.4078 27.1842 59.4565 26.6614 59.455C23.6951 59.4467 21.4076 59.4791 18.442 59.5409C18.4307 57.5516 18.4285 55.5622 18.4149 53.5729C28.9769 53.1963 39.5471 53.0306 50.1113 52.7353C49.8641 54.813 49.9029 56.9148 50.2265 58.982Z" fill="#38A1FF"/>
<path fill-rule="evenodd" clip-rule="evenodd" d="M75.8319 66.0044C76.3306 66.1226 76.4661 65.3219 75.9826 65.1803C70.7077 63.4998 66.2835 59.8511 63.6294 54.9928C57.5048 44.0542 61.2944 29.7193 71.2447 22.4475C80.0576 16.0065 98.9895 16.1376 105.094 26.6656C105.463 27.3021 106.422 26.9541 106.114 26.277C101.342 15.758 81.9716 14.2515 72.4725 20.0514C61.2876 26.8833 56.1 41.6589 61.6408 53.7687C64.4278 59.8609 69.6041 64.5295 75.8319 66.0044Z" fill="#38A1FF"/>
<path fill-rule="evenodd" clip-rule="evenodd" d="M118.891 68.2096C119.082 66.5856 118.912 62.259 118.919 59.7274C118.919 58.819 118.066 59.1526 118.035 59.533C117.854 62.4227 117.847 65.3206 118.013 68.2111C118.047 68.6427 118.841 68.6359 118.891 68.2096Z" fill="#38A1FF"/>
<path fill-rule="evenodd" clip-rule="evenodd" d="M121.592 112.759C117.096 112.232 107.772 111.654 101.718 111.554C101.718 108.078 98.393 88.2033 96.2772 86.5409C94.2509 84.9486 55.8116 84.6518 54.2245 87.6708C52.138 91.6449 55.5863 116.265 57.4905 116.915C60.5886 117.97 119.474 117.794 122.043 117.593C123.386 117.492 123.578 112.99 121.592 112.759ZM66.0903 88.9121C63.8577 89.1456 61.7215 89.4545 59.4949 89.7806C57.5674 90.0631 57.431 90.4668 57.2216 92.3168C56.9562 94.5134 56.8289 96.7245 56.8405 98.937C56.8405 99.4078 56.1558 99.5313 56.0933 99.0357C55.8051 96.4967 55.8243 93.9322 56.1505 91.3978C56.366 89.7347 56.9791 88.9875 58.6362 88.6492C61.0864 88.1543 63.5876 87.958 66.085 88.0647C66.1864 88.0795 66.2792 88.1302 66.3464 88.2075C66.4137 88.2848 66.4511 88.3837 66.4517 88.4862C66.4523 88.5886 66.4162 88.688 66.3499 88.7661C66.2836 88.8443 66.1915 88.8961 66.0903 88.9121ZM75.9321 105.731C74.339 106.033 72.6134 105.171 71.9919 102.741C71.4519 100.632 72.4439 99.0402 74.1959 98.592C78.3915 97.5194 79.9243 104.968 75.9321 105.731Z" fill="#38A1FF"/>
<path fill-rule="evenodd" clip-rule="evenodd" d="M119.485 55.4421C112.321 48.3443 116.591 38.3932 112.01 33.5778C111.144 32.6438 109.974 32.0479 108.709 31.8961C107.444 31.7444 106.167 32.0467 105.104 32.7492C101.575 27.0103 94.3769 25.6213 88.2485 27.5307C81.5695 29.6119 79.1765 37.7658 84.5381 40.3901C87.3476 41.7655 97.2113 41.8822 100.295 41.2849C100.542 43.8384 101.497 46.2721 103.053 48.3119C103.212 48.504 103.435 48.7699 103.7 48.5379C103.987 48.2795 104.324 48.0835 104.691 47.9623C105.057 47.841 105.445 47.7972 105.829 47.8336C106.213 47.87 106.586 47.9858 106.923 48.1737C107.26 48.3616 107.555 48.6174 107.788 48.925C108.002 49.2418 108.152 49.5977 108.228 49.9725C108.304 50.3472 108.306 50.7334 108.233 51.1087C108.159 51.4841 108.013 51.8413 107.801 52.1598C107.589 52.4783 107.317 52.7518 106.999 52.9647C106.078 53.574 105.421 53.4852 104.389 53.4332C104.066 53.4174 104.006 53.6878 103.984 53.9348C103.665 57.5233 103.312 61.6179 103.859 65.1868C103.874 65.2858 103.926 65.3755 104.005 65.4367C104.084 65.4978 104.184 65.5257 104.283 65.5143C104.383 65.5029 104.474 65.4532 104.537 65.3757C104.601 65.2982 104.631 65.1991 104.622 65.0994C104.63 64.1322 104.594 63.1651 104.562 62.1971C109.605 62.7613 115.99 59.8116 119.5 56.4394C120.056 55.9113 119.658 55.6138 119.485 55.4421ZM92.3529 30.8894C91.1234 30.8674 89.9068 31.1436 88.8074 31.6947C87.5864 32.2807 85.5135 33.7375 85.6529 35.265C85.6943 35.723 85.036 36.0032 84.865 35.5309C84.0402 33.2546 86.336 31.4762 87.8666 30.6409C89.2301 29.8969 90.7575 29.5047 92.3108 29.4997C94.2978 29.502 93.4775 30.9369 92.3529 30.8894Z" fill="#191919"/>
</svg>
