<svg width="144" height="127" viewBox="0 0 144 127" fill="none" xmlns="http://www.w3.org/2000/svg">
<path d="M107.379 99.4805V109.047H111.492C111.387 105.531 111.283 102.002 111.183 98.4561L107.379 99.4805Z" fill="#38A1FF"/>
<path d="M131.829 50.9628C131.136 50.8122 130.067 50.4581 129.374 50.7218C128.681 50.9854 128.161 51.9872 127.814 52.6199C124.116 59.2786 120.056 79.4354 118.7 86.9301C120.031 87.4355 121.223 88.249 122.18 89.3028C123.882 84.5424 135.226 53.4711 135.528 52.8158C134.737 51.7838 133.08 51.2716 131.829 50.9628Z" fill="#38A1FF"/>
<path d="M87.667 93.3411L91.5462 93.2959C91.4633 92.5426 91.3955 91.7894 91.3202 91.0361C89.8906 91.4007 88.6116 92.2074 87.667 93.3411Z" fill="#38A1FF"/>
<path d="M122.226 91.6974C120.84 88.7523 117.239 87.5847 114.038 87.0801C110.392 91.5393 104.246 90.4621 99.0562 90.3266V93.2039L122.602 92.9177C122.531 92.4959 122.404 92.0861 122.226 91.6974Z" fill="#38A1FF"/>
<path d="M99.0708 81.1449C99.0708 83.4046 99.0708 89.0464 99.0708 89.0464C100.803 89.0464 102.536 89.1217 104.261 89.2045C110.867 89.5284 115.205 87.2386 115.469 80.5498L99.0708 81.1449Z" fill="#FF3E74"/>
<path d="M90.7179 81.5898L89.347 81.9514C86.4395 82.7574 83.0424 83.5483 80.7977 85.7176C77.2273 89.1448 76.9411 94.8845 77.1746 99.5094C77.4548 103.862 78.2126 108.172 79.4343 112.36C79.6678 113.203 79.7356 114.243 80.5039 114.695C81.4372 115.276 82.5535 115.489 83.6352 115.292C84.7168 115.096 85.687 114.504 86.3566 113.633C83.6826 104.94 82.6733 92.6926 91.2452 89.9358C91.1096 88.5875 90.8007 85.6197 90.7179 81.5898Z" fill="#FF3E74"/>
<path d="M117.985 76.5946C116.29 67.4277 112.298 54.9088 103.048 50.9316C104.087 58.0799 104.554 69.13 104.63 76.5419C104.629 76.734 104.571 76.9215 104.462 77.0805C104.353 77.2387 104.199 77.3607 104.02 77.4307C102.393 77.8593 100.74 78.1787 99.0708 78.3873V79.8938L118.414 79.1933C118.271 78.3271 118.143 77.4609 117.985 76.5946Z" fill="#E5E5E5"/>
<path d="M103.372 67.1646C103.225 61.5908 102.735 56.0313 101.903 50.518C101.557 48.2582 101.248 45.5089 99.877 43.7991C98.2801 41.803 95.5684 41.4188 93.0978 41.8858C93.2748 43.802 93.1656 45.734 92.7739 47.618C93.3682 47.7341 93.903 48.0546 94.2849 48.5238C94.6676 48.9929 94.8739 49.5812 94.8679 50.1865C94.996 52.4463 92.6835 55.1579 90.2882 55.3236C90.4246 57.7155 89.9033 60.099 88.7817 62.2158V67.0516C92.5329 67.5638 99.3271 68.1212 103.372 67.1646Z" fill="#E5E5E5"/>
<path d="M103.629 76.3482C103.629 74.7814 103.455 69.4334 103.418 68.3262C99.3652 69.3656 92.8723 68.8986 88.7671 68.3262C88.7671 68.9815 88.7671 76.4009 88.7671 76.416C89.1211 76.1749 91.7801 77.7266 98.0922 77.2295C99.958 77.0833 101.809 76.7888 103.629 76.3482Z" fill="#E5E5E5"/>
<path d="M99.2973 101.264C99.9978 101.467 102.13 102.077 101.858 101.399C100.994 100.81 100.06 100.33 99.0789 99.9682C98.0695 99.4936 98.062 99.0116 98.062 97.9495C98.062 96.8874 98.062 78.6138 98.062 78.4857C95.9333 78.7049 93.7859 78.665 91.667 78.3652C91.7062 84.2669 92.1061 90.161 92.8646 96.0137C93.181 98.8835 93.6179 101.919 95.5688 104.179C96.5299 105.315 97.8662 106.068 99.335 106.303C99.4856 106.303 100.39 106.491 100.525 106.378C100.661 106.265 100.382 106.228 100.194 106.13C99.4404 105.753 98.7399 105.376 98.0093 105.03C97.5423 104.796 98.1373 103.697 98.5893 103.81C99.4645 104.041 100.365 104.165 101.271 104.179C101 104.006 100.39 103.674 100.194 103.539L98.6872 102.492C98.3106 102.19 98.8228 101.121 99.2973 101.264Z" fill="#C49E91"/>
<path d="M93.8671 50.7076C93.849 50.2777 93.6931 49.8649 93.4212 49.531C93.15 49.1971 92.7779 48.9599 92.3606 48.8547C90.244 48.4479 89.0011 51.5211 88.4588 51.363C87.9895 51.4277 87.512 51.3809 87.0646 51.2265C86.6171 51.072 86.2119 50.8143 85.8827 50.4741C85.3494 49.8203 85.0399 49.0122 85.0014 48.1692C84.911 47.1749 85.25 46.1957 84.9487 45.2391C84.542 43.9134 83.8414 43.0773 83.8942 41.6461C83.9974 40.9886 83.9642 40.3168 83.7963 39.6727C83.443 39.0258 82.8675 38.5282 82.1768 38.2716C81.4589 37.8942 80.653 37.7166 79.8432 37.7578C79.0335 37.7988 78.2501 38.057 77.5745 38.5051C76.2412 39.4015 75.2319 40.8402 74.0569 41.9399C72.7311 43.1903 70.6069 45.1713 68.5882 44.7269C66.7729 52.41 66.7428 63.1662 74.3732 64.8008C78.0716 65.5917 82.4404 65.8478 85.8601 63.9797C86.6676 63.585 87.3387 62.958 87.7884 62.1795C89.0697 59.9838 89.5766 57.4213 89.2271 54.9032C89.2271 54.5793 89.5661 53.9315 89.9804 53.9993C91.7203 54.3232 94.0027 52.5305 93.8671 50.7076ZM78.5838 42.0981C79.0335 42.922 79.7039 43.6047 80.5189 44.0702C81.3347 44.5357 82.2627 44.7656 83.2012 44.7344C83.7812 44.7344 83.2614 45.9622 82.7342 45.9848C81.7188 46.0136 80.7155 45.7625 79.8327 45.2589C78.9507 44.7554 78.2245 44.0189 77.7327 43.13C77.4766 42.663 78.3051 41.5859 78.5838 42.0981ZM72.2339 53.1406C71.7443 54.5642 70.8555 56.2138 69.4093 55.8297C67.9631 55.4455 68.2267 53.6377 68.7012 52.1991C68.4465 51.5776 68.2572 50.9314 68.1363 50.2708C67.9254 49.7027 67.9042 49.0817 68.076 48.5006C68.8745 46.9942 72.5956 46.0752 74.2753 46.0601C74.8553 46.0601 74.3506 47.2804 73.8233 47.3105C73.7556 48.0287 73.6493 48.7427 73.507 49.4497C74.0267 48.7793 74.6067 48.1541 75.1039 47.5817C75.6989 46.8887 76.068 47.7625 75.6085 48.3349C74.8297 49.1821 74.1224 50.0915 73.4919 51.0541C72.6182 52.4777 73.8761 53.2611 75.1114 53.6679C75.6085 53.826 74.9683 55.0388 74.4259 54.858C73.9634 54.7348 73.5311 54.519 73.1537 54.2238C72.7771 53.9286 72.4645 53.5602 72.2339 53.1406ZM81.4612 60.9894C79.0885 55.4681 74.0267 56.4699 73.733 60.7634C73.733 61.2756 72.6935 62.1042 72.7462 61.3133C73.1454 55.438 79.5254 53.4268 82.4103 60.1683C82.6137 60.6429 81.7399 61.6447 81.4612 60.9894ZM83.3066 55.8899C81.5893 56.2515 80.3841 55.1367 79.5404 53.7658C78.4731 51.7792 77.866 49.5783 77.7628 47.3256C77.3101 47.2744 76.8551 47.2493 76.3994 47.2503C75.8119 47.2503 76.3392 45.9848 76.874 45.9923C78.9228 45.9923 81.9809 46.4744 83.495 47.9884C83.9318 48.4328 83.6983 49.0882 83.5853 49.6757C83.5853 49.7887 83.5326 49.9092 83.51 50.0297C84.9261 52.3648 85.9581 55.3476 83.3066 55.8899ZM92.1045 50.6172L89.9201 52.1237C89.664 52.3045 89.4305 52.1237 89.4154 51.8375C89.4199 51.6681 89.4666 51.5025 89.551 51.3554C89.6346 51.2082 89.7536 51.0841 89.8975 50.9939L92.0819 49.4874C92.3229 49.3217 92.5715 49.4874 92.5866 49.7811C92.5768 49.9454 92.5278 50.1049 92.4442 50.2464C92.3606 50.3879 92.2438 50.5073 92.1045 50.5946V50.6172Z" fill="#C49E91"/>
<path d="M51.5565 19.1234C50.6473 19.033 49.7291 19.1313 48.8595 19.4121C47.9901 19.6929 47.1879 20.1504 46.5034 20.7557C45.8188 21.361 45.2667 22.1012 44.8816 22.9298C44.4965 23.7584 44.2866 24.6576 44.2651 25.5712C44.2912 27.3333 44.9679 29.0236 46.1652 30.3168C47.3625 31.61 48.9956 32.4148 50.7505 32.5763C51.6578 32.6613 52.5729 32.5588 53.4389 32.2749C54.3048 31.9912 55.1031 31.5323 55.7841 30.9269C56.4652 30.3214 57.0144 29.5823 57.3977 28.7556C57.7809 27.9288 57.9899 27.0321 58.0118 26.121C57.9798 24.3664 57.3047 22.6846 56.1148 21.3947C54.9248 20.1048 53.3029 19.2966 51.5565 19.1234Z" fill="#FF3E74"/>
<path d="M83.5468 50.0294C83.3758 50.9253 83.0549 51.786 82.5977 52.5754C82.4169 52.9653 82.1292 53.2957 81.7677 53.5278C81.4061 53.76 80.9858 53.8842 80.5564 53.886C79.6977 53.7806 79.2006 52.9445 78.8541 52.1611C78.5468 51.4335 78.314 50.6764 78.1611 49.9014C78.4353 51.2417 78.9129 52.5321 79.5772 53.7278C80.3832 55.0912 81.5884 56.2135 83.3434 55.852C85.9572 55.3398 84.9252 52.3645 83.5468 50.0294Z" fill="#C49E91"/>
<path d="M68.7005 52.1982C68.2259 53.6369 67.9472 55.4372 69.4085 55.8289C71.0807 56.2733 72.0222 54.0135 72.4743 52.3414C71.2991 54.2245 69.6721 54.3902 68.7005 52.1982Z" fill="#C49E91"/>
<path d="M51.6466 26.2334C51.5713 25.0207 51.4884 23.8004 51.4131 22.5877C51.3604 21.7817 50.3887 22.5877 50.4264 23.1376C50.5017 24.3503 50.577 25.5705 50.6599 26.7832C50.7126 27.5892 51.6843 26.7606 51.6466 26.2334Z" fill="#585858"/>
<path d="M51.3834 28.9685C51.2396 29.0565 51.1203 29.1791 51.036 29.3252C50.9518 29.4712 50.9055 29.6361 50.9014 29.8046C50.9014 30.0984 51.0219 30.1135 51.2855 30.249C51.5492 30.3846 52.1517 29.8046 52.1216 29.3828C52.1144 29.2997 52.087 29.2196 52.0418 29.1495C51.9965 29.0794 51.9348 29.0214 51.862 28.9806C51.7893 28.9398 51.7076 28.9173 51.6243 28.9152C51.5409 28.9131 51.4582 28.9314 51.3834 28.9685Z" fill="#585858"/>
<path d="M76.6555 15.7111C78.2072 16.4644 80.2636 16.4644 81.9282 16.2158C83.1206 16.0502 84.2753 15.6781 85.3404 15.1161C85.6959 15.5781 85.9166 16.13 85.9761 16.71C86.0364 17.2901 85.9332 17.8753 85.6794 18.4002C84.8681 19.9127 83.5778 21.1129 82.0111 21.8124C81.2578 18.8371 76.5802 17.1799 75.2319 20.3737C74.3205 22.5656 77.1677 24.6898 81.0997 23.3113C81.059 24.0827 80.7238 24.8091 80.1634 25.3403C79.6022 25.8716 78.8588 26.1672 78.0867 26.1661C77.5519 26.1661 77.0397 27.4541 77.6121 27.424C78.7751 27.3313 79.8666 26.8241 80.6884 25.9947C81.5094 25.1653 82.005 24.0689 82.0864 22.9046C84.6625 21.609 87.6905 18.6111 86.8921 15.5981C86.7821 15.1874 86.6201 14.7925 86.41 14.4231C89.1443 12.3743 90.4398 8.593 88.8882 5.62523C87.8381 3.91492 86.3264 2.53619 84.5269 1.64812C83.6983 1.11882 82.7734 0.759068 81.8047 0.589665C80.8368 0.420336 79.844 0.444665 78.8851 0.661373C76.0077 1.49747 73.8233 5.61016 76.7534 7.7569C77.1979 8.07326 77.9059 6.90574 77.4464 6.56678C77.0073 6.24522 76.6796 5.79373 76.5109 5.2761C76.3422 4.7584 76.3399 4.20078 76.5049 3.68187C76.8815 2.52188 78.1695 1.92682 79.2843 1.75357C81.5893 1.39202 83.8942 2.68759 85.6718 4.01329C89.89 7.21457 89.0991 11.4628 85.8752 13.6096C84.9751 12.5367 83.8595 11.6651 82.6009 11.0513C81.3422 10.4375 79.9683 10.0953 78.5688 10.0468C77.8321 10.0219 77.1052 10.2258 76.4891 10.6304C75.8729 11.035 75.3969 11.6205 75.1265 12.3065C74.9095 12.9625 74.9464 13.6757 75.2296 14.3058C75.5129 14.936 76.0213 15.4373 76.6555 15.7111ZM76.3768 21.4734C75.6989 20.6223 76.6103 19.9669 77.4389 19.9669C78.1861 19.9482 78.9213 20.1591 79.545 20.5713C80.1686 20.9834 80.6507 21.5771 80.9264 22.2718C79.4425 22.6485 77.3334 22.6485 76.3768 21.4734ZM76.7911 11.6135C78.614 10.6418 82.5459 12.0579 84.6775 14.295C82.4178 15.2742 77.8984 15.7563 76.3919 13.7753C76.2631 13.612 76.1704 13.423 76.12 13.221C76.0703 13.019 76.0635 12.8086 76.1011 12.6039C76.1396 12.3993 76.2202 12.205 76.3392 12.0342C76.4582 11.8634 76.6126 11.7199 76.7911 11.6135Z" fill="#585858"/>
<path d="M52.8977 33.6086C54.6519 33.113 56.1979 32.0616 57.3035 30.6124C58.4091 29.1631 59.0147 27.3943 59.0291 25.5715C59.0213 23.923 58.4915 22.3193 57.5159 20.9905C56.5402 19.6616 55.1688 18.6759 53.5983 18.1747C52.0155 17.7202 50.331 17.7657 48.775 18.305C47.2191 18.8443 45.8678 19.8511 44.9059 21.1877C43.9453 22.4793 43.3859 24.025 43.2975 25.6323C43.2091 27.2396 43.5956 28.8374 44.4087 30.2266C45.2795 31.6204 46.5724 32.7 48.0992 33.3083C49.626 33.9166 51.3071 34.0218 52.8977 33.6086ZM51.557 19.1238C53.3034 19.297 54.9254 20.1051 56.1153 21.395C57.3052 22.685 57.9802 24.3667 58.0123 26.1214C57.9907 27.0351 57.7809 27.9347 57.3958 28.7637C57.0107 29.5926 56.4588 30.3333 55.7744 30.9391C55.09 31.545 54.288 32.0032 53.4185 32.2849C52.5489 32.5667 51.6306 32.666 50.7209 32.5767C48.966 32.4151 47.3328 31.6103 46.1355 30.3171C44.9383 29.0239 44.2615 27.3337 44.2355 25.5715C44.2566 24.6552 44.4673 23.7531 44.8543 22.9223C45.2412 22.0915 45.7961 21.3498 46.484 20.744C47.1718 20.1382 47.9777 19.6816 48.8508 19.4026C49.724 19.1238 50.6453 19.0289 51.557 19.1238Z" fill="#585858"/>
<path d="M39.4524 27.9819C39.2716 27.3115 38.3677 28.2982 38.4958 28.7954L39.7386 33.5558C39.9194 34.2262 40.8233 33.2395 40.6952 32.7423L39.4524 27.9819Z" fill="#585858"/>
<path d="M58.6446 34.5505L55.0667 37.9326C54.3135 38.6331 54.8408 39.3562 55.3379 38.8892L58.9158 35.5071C59.1192 35.3113 59.3753 34.9271 59.2548 34.6258C59.1342 34.3245 58.848 34.3622 58.6446 34.5505Z" fill="#585858"/>
<path d="M62.1546 38.4667L59.8346 39.9731C59.6898 40.0619 59.5697 40.1857 59.4854 40.3332C59.4011 40.4806 59.3555 40.647 59.3525 40.8168C59.3525 41.0955 59.5936 41.2762 59.8572 41.1105C60.6104 40.6134 61.3637 40.1238 62.1772 39.6041C62.322 39.5171 62.4422 39.3947 62.5265 39.2484C62.6108 39.1022 62.6566 38.9368 62.6593 38.768C62.6442 38.4667 62.4182 38.2859 62.1546 38.4667Z" fill="#585858"/>
<path d="M35.0536 26.6483C34.7598 26.0005 33.886 26.9947 34.0969 27.4693L35.2343 29.97C35.5281 30.6178 36.4019 29.6236 36.191 29.149L35.0536 26.6483Z" fill="#585858"/>
<path d="M99.8699 75.149C100.992 74.9983 101.565 73.7856 101.648 72.7688C101.783 72.0155 101.098 70.509 99.8699 70.7275C98.7853 70.9309 98.145 72.1888 98.145 73.2132C98.145 74.2376 98.7853 75.2996 99.8699 75.149ZM99.1167 72.6633C99.1167 71.5485 100.578 71.7895 100.623 73.2132C100.608 74.441 99.1092 73.9212 99.1393 72.6633H99.1167Z" fill="#585858"/>
<path d="M72.7461 61.3121C72.6934 62.0653 73.7028 61.3121 73.7329 60.7622C74.0266 56.4688 79.096 55.4895 81.4611 60.9882C81.7398 61.6435 82.6136 60.6417 82.4102 60.1672C79.5253 53.4483 73.1529 55.4142 72.7461 61.3121Z" fill="#585858"/>
<path d="M74.4248 54.8203C74.9672 55.0011 75.6074 53.7959 75.1103 53.6302C73.875 53.2235 72.617 52.4401 73.4908 51.0165C74.1213 50.0538 74.8286 49.1444 75.6074 48.2973C76.0669 47.7625 75.6978 46.8887 75.1027 47.544C74.6056 48.1165 74.0256 48.7417 73.5059 49.4121C73.649 48.705 73.7544 47.9909 73.8222 47.2729C74.3495 47.2729 74.8542 46.015 74.2742 46.0225C72.5794 46.0225 68.8734 46.9866 68.075 48.4629C67.9032 49.044 67.9243 49.6651 68.1353 50.2331C68.2561 50.8937 68.4454 51.54 68.7002 52.1614C69.6794 54.3684 71.2989 54.1801 72.4664 52.3045C72.3986 52.5606 72.3157 52.8318 72.2254 53.103C72.4574 53.5227 72.7715 53.8913 73.1496 54.1864C73.5277 54.4815 73.9616 54.6972 74.4248 54.8203ZM72.3233 50.6323C72.231 51.3337 71.8886 51.9784 71.3591 52.4476C71.2342 52.5331 71.0889 52.5837 70.9379 52.5943C70.787 52.6049 70.636 52.575 70.5004 52.5079C70.6429 51.1002 70.3566 49.6825 69.6794 48.4404C70.6674 47.8939 71.7474 47.5339 72.8656 47.3783C72.7443 48.472 72.5628 49.5583 72.3233 50.6323Z" fill="#585858"/>
<path d="M143.626 122.43H126.339C126.714 122.119 127.016 121.731 127.228 121.293C128.411 118.28 125.865 116.623 123.899 117.926C123.024 116.337 122.016 114.825 120.886 113.407C119.837 112.208 118.557 111.236 117.12 110.548C115.684 109.86 114.123 109.472 112.532 109.407C112.427 105.55 112.319 101.694 112.208 97.8371H115.003C115.217 97.8078 115.413 97.6993 115.552 97.5336C115.691 97.3679 115.764 97.157 115.756 96.9408C115.636 96.052 115.523 95.1556 115.402 94.2668L122.935 94.1764C123.296 94.1764 123.605 93.7621 123.688 93.4232C123.777 92.2579 123.46 91.0979 122.791 90.139C124.381 85.7778 136.048 53.8253 136.35 53.0118C136.463 52.8242 136.522 52.6093 136.522 52.3904C136.522 52.1714 136.463 51.9566 136.35 51.7689C135.333 50.2625 132.885 49.7578 131.235 49.5092C130 49.336 129.269 49.4113 128.396 50.3378C126.505 52.3339 125.571 55.377 124.705 57.9154C122.597 64.6983 120.837 71.5844 119.432 78.5466C119.013 75.4056 118.346 72.3023 117.436 69.2667C115.056 61.1091 110.8 52.3414 102.853 49.3887C102.522 47.1968 102.16 44.4625 100.767 42.7225C98.9137 40.4101 95.7727 40.0711 92.9631 40.7038C92.6588 39.0804 92.0449 37.5308 91.1553 36.1392C87.2836 30.0229 87.9013 33.2693 81.5289 31.0774C75.1565 28.8855 69.462 29.2244 68.317 32.7119C67.1721 36.1995 70.3809 39.6342 65.8012 41.2386C61.4475 42.7451 59.8431 51.0308 66.4791 53.8404C66.489 56.0473 66.8789 58.236 67.6316 60.3107C68.6861 63.0977 70.7801 65.38 73.7479 66.0353C77.6572 66.894 82.252 67.0974 85.8675 65.1164C86.5861 64.7262 87.2332 64.217 87.7808 63.6099V77.123C87.7808 77.2209 87.826 77.4017 87.9314 77.4394C88.8368 77.7829 89.7686 78.0495 90.7184 78.2378C90.7184 78.9911 90.7184 79.684 90.7184 80.4071C88.3547 81.0105 86.0363 81.7811 83.7811 82.7121C74.5237 86.5687 75.6235 99.4415 77.1299 107.441C77.6421 110.13 78.0188 111.411 78.6364 114.047C75.6235 113.874 71.4656 113.038 68.1965 114.288C65.9368 115.169 64.5282 117.7 64.0085 120.065C63.5791 120.065 63.2552 120.585 63.2552 120.969V122.8C63.2552 122.943 63.3306 123.154 63.5114 123.154H89.1215C89.4982 123.154 89.8748 122.528 89.8748 122.25V120.464C90.1459 118.378 90.4096 115.696 89.4454 113.783C89.0311 112.962 88.1197 112.314 87.261 112.744C86.5304 110.263 86.0039 107.726 85.6868 105.159C85.2649 101.686 85.1821 97.7392 86.8392 94.6133L91.6826 94.553C91.8302 96.9363 92.2083 99.3007 92.8124 101.611C93.7615 104.624 95.9384 107.32 99.2451 107.637C100.262 107.735 101.866 107.637 101.919 106.288C101.929 106.132 101.903 105.974 101.845 105.828C101.786 105.683 101.695 105.552 101.58 105.445C101.769 105.389 101.944 105.293 102.092 105.162C102.241 105.032 102.359 104.872 102.439 104.692C102.77 103.999 102.439 103.547 101.942 103.072C102.164 103.052 102.382 102.998 102.589 102.914C102.895 102.787 103.147 102.559 103.304 102.268C103.462 101.978 103.515 101.643 103.456 101.317C103.222 100.398 101.987 99.8106 101.196 99.4189C100.584 99.2276 99.9938 98.9753 99.4334 98.6657C98.7706 98.146 99.0342 96.8278 99.0417 96.0896V94.4928L103.629 94.4325V97.5132C103.629 97.6564 103.704 97.8597 103.885 97.8597H106.423C106.392 97.9313 106.374 98.0074 106.371 98.0857V109.505C104.162 109.68 102.039 110.437 100.217 111.697C98.0851 113.241 96.8648 115.327 95.7576 117.61C95.106 117.467 94.4259 117.555 93.833 117.861C93.2402 118.166 92.7725 118.669 92.5111 119.282C91.901 120.502 92.0366 122.25 93.3773 122.935C94.7181 123.621 96.2397 122.702 96.9326 121.481C96.9613 121.434 96.9839 121.383 97.0004 121.331C97.2776 120.793 97.3763 120.181 97.2814 119.583C97.1865 118.986 96.9033 118.435 96.4732 118.009C97.4147 116.035 98.4165 114.243 100.239 112.857C102.268 111.386 104.725 110.626 107.229 110.695H109.188V117.007C106.883 118.175 106.032 121.918 108.035 122.958C109.542 123.711 111.109 122.325 111.802 121.09C112.818 119.312 112.314 116.646 110.182 116.736V110.71H111.689C113.249 110.709 114.791 111.035 116.219 111.665C117.645 112.295 118.924 113.217 119.974 114.371C121.103 115.806 122.135 117.317 123.063 118.89C122.666 119.414 122.452 120.052 122.452 120.709C122.452 121.366 122.666 122.005 123.063 122.528H116.163C115.628 122.528 115.101 123.786 115.688 123.786H143.129C143.686 123.688 144.214 122.43 143.626 122.43ZM96.1719 121.082C95.1098 122.815 92.2927 121.278 93.3096 119.478C93.5318 119.121 93.8858 118.866 94.294 118.767C94.7023 118.67 95.1331 118.735 95.4939 118.95C95.8532 119.157 96.1237 119.488 96.254 119.881C96.385 120.275 96.3662 120.702 96.202 121.082H96.1719ZM127.808 52.6201C128.154 51.9874 128.652 51.0006 129.367 50.7219C130.083 50.4432 131.13 50.8123 131.823 50.963C133.088 51.2341 134.73 51.784 135.521 52.8159C135.483 52.8913 123.183 86.4707 122.174 89.3029C121.217 88.2491 120.025 87.4364 118.694 86.9302C120.05 79.4581 124.102 59.2863 127.808 52.6201ZM119.025 80.362C118.603 82.4409 118.197 84.5198 117.828 86.6063C116.866 86.29 115.881 86.0504 114.882 85.8907C115.816 84.2442 116.353 82.4025 116.449 80.5126C119.025 80.4222 118.837 80.4523 119.025 80.362ZM108.593 80.9269L108.668 80.7988L115.447 80.5503C115.184 87.239 110.845 89.5289 104.239 89.205C102.514 89.1221 100.782 89.0468 99.0492 89.0468C99.0492 89.0468 99.0492 83.4427 99.0492 81.1453L100.669 81.0851C100.672 81.1378 100.688 81.1898 100.714 81.2357C102.574 84.4144 106.747 83.6611 108.578 80.9269H108.593ZM102.243 81.0248L107.599 80.8365C107.278 81.2319 106.876 81.5543 106.42 81.7811C105.964 82.0085 105.465 82.1351 104.956 82.1532C104.447 82.1712 103.94 82.0793 103.469 81.885C102.999 81.6899 102.576 81.3969 102.228 81.0248H102.243ZM118.001 76.5958C118.159 77.462 118.31 78.3357 118.43 79.202L99.0869 79.9025V78.396C100.756 78.1873 102.409 77.868 104.036 77.4394C104.215 77.3693 104.369 77.2473 104.478 77.0891C104.587 76.9302 104.645 76.7426 104.646 76.5506C104.586 69.0181 104.096 58.0359 103.064 50.9404C112.299 54.9099 116.291 67.4288 117.986 76.5958H118.001ZM93.0836 41.8563C95.5693 41.3968 98.2809 41.7734 99.8627 43.7695C100.962 45.1404 101.369 47.1817 101.663 49.0422C102.647 55.0442 103.214 61.1073 103.358 67.1878C99.3129 68.1444 92.4885 67.5795 88.7524 67.0447V62.1863C89.874 60.0694 90.3953 57.6859 90.2589 55.2941C92.6542 55.1284 94.9667 52.4393 94.8386 50.157C94.8447 49.5516 94.6383 48.9633 94.2556 48.4941C93.8737 48.025 93.3389 47.7045 92.7446 47.5885C93.1416 45.7051 93.2561 43.7732 93.0836 41.8563ZM88.067 61.6816C87.6098 62.6759 86.8294 63.4856 85.8525 63.979C82.4328 65.847 78.064 65.5909 74.3655 64.8C66.7051 63.1579 66.7804 52.3414 68.5581 44.7261C70.5767 45.1705 72.7009 43.2197 74.0266 41.9391C75.2016 40.8394 76.211 39.4007 77.5442 38.5044C78.2199 38.0562 79.004 37.7981 79.8137 37.7569C80.6235 37.7159 81.4287 37.8933 82.1465 38.2709C82.8372 38.5274 83.4127 39.0249 83.766 39.6719C83.934 40.3159 83.9671 40.9878 83.8639 41.6454C83.8112 43.0765 84.5117 43.9051 84.9185 45.2383C85.2197 46.195 84.9185 47.1742 84.9712 48.1684C85.0186 49.0149 85.338 49.8234 85.8826 50.4734C86.2148 50.818 86.6253 51.0783 87.078 51.2329C87.5314 51.3875 88.015 51.4318 88.4888 51.3622C88.7826 51.445 89.0537 50.9178 89.4756 50.4131C90.2288 49.4942 91.2833 48.5827 92.4885 48.9066C92.8862 49.0258 93.2365 49.2664 93.4903 49.5946C93.7442 49.9228 93.8888 50.3223 93.9046 50.737C94.0402 52.5598 91.7579 54.3526 89.9953 54.0287C89.5961 53.9609 89.2421 54.6087 89.2421 54.9326C89.5373 57.2491 89.1276 59.6011 88.067 61.6816ZM88.8956 121.858H64.2345V121.323H88.8956V121.858ZM87.0953 114.024C87.3062 113.806 87.5171 113.746 87.9239 113.987C89.0914 114.665 89.0537 116.706 89.0688 117.873C89.0688 118.627 89.0688 119.312 88.9935 120.028H64.9274C65.3267 118.024 66.4339 115.922 68.4677 115.32C72.618 114.107 79.013 115.599 79.239 115.455C80.7455 117.301 83.7057 117.188 85.5662 115.704C85.9903 115.352 86.3692 114.95 86.6961 114.506C86.8347 114.354 86.9635 114.194 87.0802 114.024H87.0953ZM86.6358 93.3554C83.0956 98.6732 84.474 107.494 86.3571 113.61C85.6875 114.481 84.7173 115.074 83.6357 115.269C82.554 115.466 81.4377 115.253 80.5045 114.672C79.7512 114.22 79.6684 113.166 79.4349 112.337C78.2131 108.149 77.4553 103.84 77.1751 99.4867C76.9416 94.8694 77.2279 89.1221 80.7982 85.6949C83.0579 83.5482 86.44 82.7573 89.3475 81.9287L90.7184 81.5671C90.7937 85.4087 91.1026 88.4292 91.2155 89.8905C89.8929 90.2626 88.6907 90.9744 87.728 91.9543C87.3213 92.3867 86.956 92.856 86.6358 93.3554ZM87.6979 93.3554C88.6447 92.2217 89.9222 91.4135 91.3511 91.0429C91.4265 91.7961 91.4942 92.5494 91.5771 93.3026L87.6979 93.3554ZM99.1095 99.9839C100.091 100.345 101.024 100.826 101.889 101.415C102.168 102.108 100.051 101.49 99.328 101.279C98.8534 101.136 98.3412 102.206 98.748 102.5L100.209 103.554C100.405 103.69 101.015 104.021 101.286 104.194C100.381 104.18 99.4809 104.056 98.6048 103.825C98.1529 103.712 97.5578 104.812 98.0248 105.046C98.7781 105.415 99.4861 105.799 100.209 106.145C100.398 106.243 100.684 106.273 100.541 106.394C100.398 106.514 99.5012 106.341 99.3505 106.319C97.8817 106.084 96.5455 105.33 95.5843 104.194C93.6335 101.935 93.1966 98.9218 92.8802 96.0294C92.1232 90.1789 91.7255 84.2878 91.6901 78.3885C93.809 78.692 95.9564 78.7327 98.0851 78.509C98.0851 78.637 98.0851 96.8127 98.0851 97.9727C98.0851 99.1327 98.07 99.4792 99.0794 99.9688L99.1095 99.9839ZM91.7052 77.0326C89.9426 76.7389 88.986 76.2794 88.7901 76.4451C88.7901 76.3698 88.7901 68.28 88.7901 68.3553C92.9103 68.9127 99.3882 69.3797 103.441 68.3553C103.478 69.4626 103.636 74.8106 103.652 76.3773C99.7415 77.3829 95.6702 77.6006 91.675 77.0176L91.7052 77.0326ZM110.627 118.145C111.515 118.694 111.44 119.832 111.094 120.683C110.634 121.436 109.693 122.189 108.759 121.722C107.824 121.255 107.764 119.937 108.216 119.101C108.668 118.265 109.685 117.557 110.596 118.129L110.627 118.145ZM107.41 109.06V99.4792L111.237 98.4322C111.342 101.948 111.445 105.477 111.546 109.023L107.41 109.06ZM99.1246 93.2424V90.365C104.307 90.5006 110.423 91.5777 114.107 87.1185C116.954 87.5629 120.012 88.4894 121.729 90.8019C122.217 91.4308 122.541 92.1713 122.671 92.9561L99.1246 93.2424ZM123.545 119.478C123.768 119.123 124.122 118.869 124.53 118.77C124.937 118.673 125.368 118.737 125.729 118.95C126.083 119.161 126.347 119.494 126.474 119.887C126.6 120.279 126.579 120.704 126.414 121.082C125.352 122.83 122.535 121.278 123.545 119.478Z" fill="#585858"/>
<path d="M82.7346 45.9993C83.2618 45.9993 83.7816 44.7188 83.2016 44.7489C82.263 44.7801 81.335 44.5501 80.5193 44.0847C79.7043 43.6192 79.0339 42.9364 78.5842 42.1126C78.3055 41.6003 77.4769 42.6775 77.7331 43.1445C78.2249 44.0333 78.951 44.7698 79.8331 45.2734C80.7159 45.7769 81.7192 46.0281 82.7346 45.9993Z" fill="#585858"/>
<path d="M76.9108 45.998C76.376 45.998 75.8487 47.2484 76.4362 47.256C76.8919 47.255 77.3469 47.2801 77.7996 47.3313C77.8862 48.9898 78.2425 50.623 78.8541 52.1671C79.2006 52.9203 79.7053 53.7866 80.5564 53.892C80.9858 53.8902 81.4061 53.766 81.7677 53.5338C82.1292 53.3017 82.417 52.9713 82.5977 52.5814C83.1114 51.6817 83.4587 50.6968 83.6221 49.6739C83.7351 49.0863 83.9686 48.431 83.5317 47.9866C82.0177 46.4726 78.9596 45.998 76.9108 45.998ZM82.786 49.1466C82.5827 50.5326 81.8219 53.7866 80.3681 52.2349C80.5806 50.6431 80.2627 49.0258 79.4643 47.6326C80.6574 47.9176 81.785 48.429 82.786 49.1391V49.1466Z" fill="#585858"/>
<path d="M89.9192 52.1081L92.1036 50.6016C92.246 50.5121 92.3642 50.3891 92.4486 50.2434C92.5322 50.0977 92.5797 49.9337 92.5857 49.7655C92.5857 49.4793 92.3221 49.3061 92.081 49.4718L89.8966 50.9783C89.7535 51.0685 89.6337 51.1926 89.5501 51.3397C89.4658 51.4869 89.4191 51.6525 89.4146 51.8219C89.4296 52.0855 89.6481 52.2889 89.9192 52.1081Z" fill="#585858"/>
<path d="M13.5698 124.947H16.4698V74.54H13.5698V124.947Z" fill="#38A1FF"/>
<path d="M71.6768 124.946H74.5843V74.6221H71.6768V124.946Z" fill="#38A1FF"/>
<path d="M8.73584 66.2451V71.3898H78.4633V66.923L8.73584 66.2451Z" fill="#38A1FF"/>
<path d="M92.8119 124.947H75.5627V72.6492H78.7263C79.0954 72.6492 79.4796 72.024 79.4796 71.7453V66.0282C79.4796 65.8775 79.3967 65.6742 79.2235 65.6742L68.8212 65.5838V63.4596C68.8212 63.3164 68.7459 63.1055 68.5651 63.1055C57.1912 63.1055 48.7549 63.1055 48.8528 63.1055L37.6747 36.2525C37.5768 36.019 37.4036 36.0039 37.1927 36.0943L35.1288 37.0133C34.9622 37.1095 34.8287 37.2537 34.7454 37.4271C34.6621 37.6004 34.6329 37.7948 34.6618 37.985C42.5633 57.4487 44.9962 63.4822 45.7721 65.3503L8.48665 64.9887C8.05731 64.9887 7.73341 65.5084 7.73341 65.8926V72.2951C7.73341 72.4458 7.80874 72.6492 7.98951 72.6492H12.509V124.947H1.51916C0.984361 124.947 0.457092 126.205 1.04462 126.205H22.9941C23.5289 126.205 24.0561 124.947 23.4686 124.947H17.4427V72.6492H70.6817V124.947H65.3488C64.814 124.947 64.2943 126.205 64.8818 126.205H92.3449C92.8797 126.205 93.4145 124.947 92.8119 124.947ZM36.8462 37.3899C40.1454 45.2989 47.5422 63.0603 47.9489 64.0321L46.8341 64.7853C43.5651 56.7708 35.8745 37.8192 35.8745 37.8192L36.8462 37.3899ZM48.9733 64.3484H67.8044V65.5838L47.6552 65.3879C48.7926 64.597 48.8227 64.5744 48.9733 64.3484ZM16.4409 124.947H13.571V74.5398H16.471L16.4409 124.947ZM8.73522 71.3912V66.2466L78.4627 66.9245V71.3912H8.73522ZM74.5835 124.947H71.676V74.6227H74.5835V124.947Z" fill="#585858"/>
<path d="M60.3169 124.945H54.8258C54.291 124.945 53.7637 126.203 54.3513 126.203H59.8424C60.3772 126.203 60.9045 124.945 60.3169 124.945Z" fill="#585858"/>
</svg>
